M48
; DRILL file {KiCad 9.0.7-1.fc42} date 2026-02-12T12:45:46-0300
; FORMAT={-:-/ absolute / metric / decimal}
; #@! TF.CreationDate,2026-02-12T12:45:46-03:00
; #@! TF.GenerationSoftware,Kicad,Pcbnew,9.0.7-1.fc42
; #@! TF.FileFunction,MixedPlating,1,2
FMAT,2
METRIC
; #@! TA.AperFunction,Plated,PTH,ViaDrill
T1C0.250
; #@! TA.AperFunction,Plated,PTH,ComponentDrill
T2C1.040
; #@! TA.AperFunction,Plated,PTH,ComponentDrill
T3C1.100
; #@! TA.AperFunction,Plated,PTH,ComponentDrill
T4C3.200
; #@! TA.AperFunction,NonPlated,NPTH,ComponentDrill
T5C3.200
%
G90
G05
T1
X49.136Y-52.922
X49.136Y-55.422
X49.136Y-57.922
X49.136Y-60.422
X51.136Y-52.922
X51.136Y-55.422
X51.136Y-57.922
X51.136Y-60.422
X53.136Y-52.922
X53.136Y-55.422
X53.136Y-57.922
X53.136Y-60.422
X55.136Y-52.922
X55.136Y-55.422
X55.136Y-57.922
X55.136Y-60.422
X55.136Y-70.422
X55.136Y-72.922
X55.136Y-75.422
X55.136Y-77.922
X55.136Y-79.922
X55.136Y-82.422
X55.136Y-84.922
X55.136Y-86.922
X55.136Y-89.422
X55.136Y-91.922
X55.136Y-94.422
X55.136Y-108.144
X104.736Y-52.922
X104.736Y-55.422
X104.736Y-57.922
X104.736Y-60.422
X104.736Y-70.422
X104.736Y-72.922
X104.736Y-75.422
X104.736Y-77.922
X104.736Y-79.922
X104.736Y-82.422
X104.736Y-84.922
X104.736Y-86.922
X104.736Y-89.422
X104.736Y-91.922
X104.736Y-94.422
X104.736Y-108.144
X106.736Y-52.922
X106.736Y-55.422
X106.736Y-57.922
X106.736Y-60.422
X108.736Y-52.922
X108.736Y-55.422
X108.736Y-57.922
X108.736Y-60.422
X110.736Y-52.922
X110.736Y-55.422
X110.736Y-57.922
X110.736Y-60.422
T2
X60.936Y-42.972
X60.936Y-45.512
X60.936Y-48.052
X60.936Y-62.684
X60.936Y-65.224
X60.936Y-67.764
X60.936Y-82.684
X60.936Y-85.224
X60.936Y-87.764
X72.936Y-42.972
X72.936Y-45.512
X72.936Y-48.052
X72.936Y-62.684
X72.936Y-65.224
X72.936Y-67.764
X72.936Y-82.684
X72.936Y-85.224
X72.936Y-87.764
X86.936Y-42.972
X86.936Y-45.512
X86.936Y-48.052
X86.936Y-62.684
X86.936Y-65.224
X86.936Y-67.764
X86.936Y-82.684
X86.936Y-85.224
X86.936Y-87.764
X98.936Y-42.972
X98.936Y-45.512
X98.936Y-48.052
X98.936Y-62.684
X98.936Y-65.224
X98.936Y-67.764
X98.936Y-82.684
X98.936Y-85.224
X98.936Y-87.764
T3
X57.856Y-104.544
X57.856Y-109.624
X59.236Y-107.084
X60.616Y-104.544
X60.616Y-109.624
X61.996Y-107.084
X63.376Y-104.544
X63.376Y-109.624
X64.756Y-107.084
X66.136Y-104.544
X66.136Y-109.624
X67.516Y-107.084
X68.896Y-104.544
X68.896Y-109.624
X70.276Y-107.084
X71.656Y-104.544
X71.656Y-109.624
X73.036Y-107.084
X74.416Y-104.544
X74.416Y-109.624
X75.796Y-107.084
X77.176Y-104.544
X77.176Y-109.624
X78.556Y-107.084
X79.936Y-104.544
X79.936Y-109.624
X81.316Y-107.084
X82.696Y-104.544
X82.696Y-109.624
X84.076Y-107.084
X85.456Y-104.544
X85.456Y-109.624
X86.836Y-107.084
X88.216Y-104.544
X88.216Y-109.624
X89.596Y-107.084
X90.976Y-104.544
X90.976Y-109.624
X92.356Y-107.084
X93.736Y-104.544
X93.736Y-109.624
X95.116Y-107.084
X96.496Y-104.544
X96.496Y-109.624
X97.876Y-107.084
X99.256Y-104.544
X99.256Y-109.624
X100.636Y-107.084
X102.016Y-104.544
X102.016Y-109.624
T4
X42.423Y-41.222
X42.423Y-113.994
X116.799Y-41.222
X116.799Y-113.994
T5
X49.386Y-107.084
X110.486Y-107.084
M30
