G04 #@! TF.GenerationSoftware,KiCad,Pcbnew,9.0.7-1.fc42*
G04 #@! TF.CreationDate,2026-02-12T12:45:23-03:00*
G04 #@! TF.ProjectId,backplane,6261636b-706c-4616-9e65-2e6b69636164,v0.0*
G04 #@! TF.SameCoordinates,Original*
G04 #@! TF.FileFunction,Copper,L1,Top*
G04 #@! TF.FilePolarity,Positive*
%FSLAX46Y46*%
G04 Gerber Fmt 4.6, Leading zero omitted, Abs format (unit mm)*
G04 Created by KiCad (PCBNEW 9.0.7-1.fc42) date 2026-02-12 12:45:23*
%MOMM*%
%LPD*%
G01*
G04 APERTURE LIST*
%ADD10C,0.150000*%
G04 #@! TA.AperFunction,NonConductor*
%ADD11C,0.150000*%
G04 #@! TD*
G04 #@! TA.AperFunction,ComponentPad*
%ADD12R,1.390000X1.390000*%
G04 #@! TD*
G04 #@! TA.AperFunction,ComponentPad*
%ADD13C,1.390000*%
G04 #@! TD*
G04 #@! TA.AperFunction,ComponentPad*
%ADD14C,5.500000*%
G04 #@! TD*
G04 #@! TA.AperFunction,ComponentPad*
%ADD15C,1.650000*%
G04 #@! TD*
G04 #@! TA.AperFunction,ViaPad*
%ADD16C,0.650000*%
G04 #@! TD*
G04 #@! TA.AperFunction,Conductor*
%ADD17C,0.750000*%
G04 #@! TD*
G04 APERTURE END LIST*
D10*
D11*
X106057428Y-40034295D02*
X105714571Y-40034295D01*
X105886000Y-40034295D02*
X105886000Y-39234295D01*
X105886000Y-39234295D02*
X105828857Y-39348580D01*
X105828857Y-39348580D02*
X105771714Y-39424771D01*
X105771714Y-39424771D02*
X105714571Y-39462866D01*
D12*
G04 #@! TO.P,J6,1,Pin_1*
G04 #@! TO.N,/V_{G6}*
X72936000Y-62684500D03*
D13*
G04 #@! TO.P,J6,2,Pin_2*
G04 #@! TO.N,/V_{D6}*
X72936000Y-65224500D03*
G04 #@! TO.P,J6,3,Pin_3*
G04 #@! TO.N,/V_{S6}*
X72936000Y-67764500D03*
G04 #@! TD*
D12*
G04 #@! TO.P,J4,1,Pin_1*
G04 #@! TO.N,/V_{G4}*
X98936000Y-82684500D03*
D13*
G04 #@! TO.P,J4,2,Pin_2*
G04 #@! TO.N,/V_{D4}*
X98936000Y-85224500D03*
G04 #@! TO.P,J4,3,Pin_3*
G04 #@! TO.N,/V_{S4}*
X98936000Y-87764500D03*
G04 #@! TD*
D14*
G04 #@! TO.P,H4,1*
G04 #@! TO.N,unconnected-(H4-Pad1)*
X116798600Y-113994100D03*
G04 #@! TD*
D12*
G04 #@! TO.P,J2,1,Pin_1*
G04 #@! TO.N,/V_{G2}*
X72936000Y-82684500D03*
D13*
G04 #@! TO.P,J2,2,Pin_2*
G04 #@! TO.N,/V_{D2}*
X72936000Y-85224500D03*
G04 #@! TO.P,J2,3,Pin_3*
G04 #@! TO.N,/V_{S2}*
X72936000Y-87764500D03*
G04 #@! TD*
D12*
G04 #@! TO.P,J10,1,Pin_1*
G04 #@! TO.N,/V_{G10}*
X72936000Y-42972000D03*
D13*
G04 #@! TO.P,J10,2,Pin_2*
G04 #@! TO.N,/V_{D10}*
X72936000Y-45512000D03*
G04 #@! TO.P,J10,3,Pin_3*
G04 #@! TO.N,/V_{S10}*
X72936000Y-48052000D03*
G04 #@! TD*
D12*
G04 #@! TO.P,J1,1,Pin_1*
G04 #@! TO.N,/V_{G1}*
X60936000Y-82684500D03*
D13*
G04 #@! TO.P,J1,2,Pin_2*
G04 #@! TO.N,/V_{D1}*
X60936000Y-85224500D03*
G04 #@! TO.P,J1,3,Pin_3*
G04 #@! TO.N,/V_{S1}*
X60936000Y-87764500D03*
G04 #@! TD*
D12*
G04 #@! TO.P,J5,1,Pin_1*
G04 #@! TO.N,/V_{G5}*
X60936000Y-62684500D03*
D13*
G04 #@! TO.P,J5,2,Pin_2*
G04 #@! TO.N,/V_{D5}*
X60936000Y-65224500D03*
G04 #@! TO.P,J5,3,Pin_3*
G04 #@! TO.N,/V_{S5}*
X60936000Y-67764500D03*
G04 #@! TD*
D15*
G04 #@! TO.P,J13,1*
G04 #@! TO.N,/V_{G8}*
X102016000Y-104544000D03*
G04 #@! TO.P,J13,2*
G04 #@! TO.N,/V_{S8}*
X99256000Y-104544000D03*
G04 #@! TO.P,J13,3*
G04 #@! TO.N,/V_{D4}*
X96496000Y-104544000D03*
G04 #@! TO.P,J13,4*
G04 #@! TO.N,/V_{G11}*
X93736000Y-104544000D03*
G04 #@! TO.P,J13,5*
G04 #@! TO.N,/V_{G7}*
X90976000Y-104544000D03*
G04 #@! TO.P,J13,6*
G04 #@! TO.N,/V_{D3}*
X88216000Y-104544000D03*
G04 #@! TO.P,J13,7*
G04 #@! TO.N,unconnected-(J13-Pad7)*
X85456000Y-104544000D03*
G04 #@! TO.P,J13,8*
G04 #@! TO.N,unconnected-(J13-Pad8)*
X82696000Y-104544000D03*
G04 #@! TO.P,J13,9*
G04 #@! TO.N,unconnected-(J13-Pad9)*
X79936000Y-104544000D03*
G04 #@! TO.P,J13,10*
G04 #@! TO.N,unconnected-(J13-Pad10)*
X77176000Y-104544000D03*
G04 #@! TO.P,J13,11*
G04 #@! TO.N,unconnected-(J13-Pad11)*
X74416000Y-104544000D03*
G04 #@! TO.P,J13,12*
G04 #@! TO.N,/V_{D2}*
X71656000Y-104544000D03*
G04 #@! TO.P,J13,13*
G04 #@! TO.N,/V_{G6}*
X68896000Y-104544000D03*
G04 #@! TO.P,J13,14*
G04 #@! TO.N,/V_{G10}*
X66136000Y-104544000D03*
G04 #@! TO.P,J13,15*
G04 #@! TO.N,/V_{D1}*
X63376000Y-104544000D03*
G04 #@! TO.P,J13,16*
G04 #@! TO.N,/V_{S5}*
X60616000Y-104544000D03*
G04 #@! TO.P,J13,17*
G04 #@! TO.N,/V_{G5}*
X57856000Y-104544000D03*
G04 #@! TO.P,J13,18*
G04 #@! TO.N,/V_{S12}*
X100636000Y-107084000D03*
G04 #@! TO.P,J13,19*
G04 #@! TO.N,/V_{D8}*
X97876000Y-107084000D03*
G04 #@! TO.P,J13,20*
G04 #@! TO.N,/V_{S4}*
X95116000Y-107084000D03*
G04 #@! TO.P,J13,21*
G04 #@! TO.N,/V_{D11}*
X92356000Y-107084000D03*
G04 #@! TO.P,J13,22*
G04 #@! TO.N,/V_{D7}*
X89596000Y-107084000D03*
G04 #@! TO.P,J13,23*
G04 #@! TO.N,/V_{S3}*
X86836000Y-107084000D03*
G04 #@! TO.P,J13,24*
G04 #@! TO.N,unconnected-(J13-Pad24)*
X84076000Y-107084000D03*
G04 #@! TO.P,J13,25*
G04 #@! TO.N,unconnected-(J13-Pad25)*
X81316000Y-107084000D03*
G04 #@! TO.P,J13,26*
G04 #@! TO.N,unconnected-(J13-Pad26)*
X78556000Y-107084000D03*
G04 #@! TO.P,J13,27*
G04 #@! TO.N,unconnected-(J13-Pad27)*
X75796000Y-107084000D03*
G04 #@! TO.P,J13,28*
G04 #@! TO.N,/V_{S2}*
X73036000Y-107084000D03*
G04 #@! TO.P,J13,29*
G04 #@! TO.N,/V_{D6}*
X70276000Y-107084000D03*
G04 #@! TO.P,J13,30*
G04 #@! TO.N,/V_{D10}*
X67516000Y-107084000D03*
G04 #@! TO.P,J13,31*
G04 #@! TO.N,/V_{S1}*
X64756000Y-107084000D03*
G04 #@! TO.P,J13,32*
G04 #@! TO.N,/V_{D5}*
X61996000Y-107084000D03*
G04 #@! TO.P,J13,33*
G04 #@! TO.N,/V_{S9}*
X59236000Y-107084000D03*
G04 #@! TO.P,J13,34*
G04 #@! TO.N,/V_{D12}*
X102016000Y-109624000D03*
G04 #@! TO.P,J13,35*
G04 #@! TO.N,/V_{G12}*
X99256000Y-109624000D03*
G04 #@! TO.P,J13,36*
G04 #@! TO.N,/V_{G4}*
X96496000Y-109624000D03*
G04 #@! TO.P,J13,37*
G04 #@! TO.N,/V_{S11}*
X93736000Y-109624000D03*
G04 #@! TO.P,J13,38*
G04 #@! TO.N,/V_{S7}*
X90976000Y-109624000D03*
G04 #@! TO.P,J13,39*
G04 #@! TO.N,/V_{G3}*
X88216000Y-109624000D03*
G04 #@! TO.P,J13,40*
G04 #@! TO.N,GND*
X85456000Y-109624000D03*
G04 #@! TO.P,J13,41*
G04 #@! TO.N,unconnected-(J13-Pad41)*
X82696000Y-109624000D03*
G04 #@! TO.P,J13,42*
G04 #@! TO.N,unconnected-(J13-Pad42)*
X79936000Y-109624000D03*
G04 #@! TO.P,J13,43*
G04 #@! TO.N,unconnected-(J13-Pad43)*
X77176000Y-109624000D03*
G04 #@! TO.P,J13,44*
G04 #@! TO.N,GND*
X74416000Y-109624000D03*
G04 #@! TO.P,J13,45*
G04 #@! TO.N,/V_{G2}*
X71656000Y-109624000D03*
G04 #@! TO.P,J13,46*
G04 #@! TO.N,/V_{S6}*
X68896000Y-109624000D03*
G04 #@! TO.P,J13,47*
G04 #@! TO.N,/V_{S10}*
X66136000Y-109624000D03*
G04 #@! TO.P,J13,48*
G04 #@! TO.N,/V_{G1}*
X63376000Y-109624000D03*
G04 #@! TO.P,J13,49*
G04 #@! TO.N,/V_{G9}*
X60616000Y-109624000D03*
G04 #@! TO.P,J13,50*
G04 #@! TO.N,/V_{D9}*
X57856000Y-109624000D03*
G04 #@! TD*
D12*
G04 #@! TO.P,J3,1,Pin_1*
G04 #@! TO.N,/V_{G3}*
X86936000Y-82684500D03*
D13*
G04 #@! TO.P,J3,2,Pin_2*
G04 #@! TO.N,/V_{D3}*
X86936000Y-85224500D03*
G04 #@! TO.P,J3,3,Pin_3*
G04 #@! TO.N,/V_{S3}*
X86936000Y-87764500D03*
G04 #@! TD*
D12*
G04 #@! TO.P,J11,1,Pin_1*
G04 #@! TO.N,/V_{G11}*
X86936000Y-42972000D03*
D13*
G04 #@! TO.P,J11,2,Pin_2*
G04 #@! TO.N,/V_{D11}*
X86936000Y-45512000D03*
G04 #@! TO.P,J11,3,Pin_3*
G04 #@! TO.N,/V_{S11}*
X86936000Y-48052000D03*
G04 #@! TD*
D14*
G04 #@! TO.P,H2,1*
G04 #@! TO.N,unconnected-(H2-Pad1)*
X116798600Y-41221900D03*
G04 #@! TD*
D12*
G04 #@! TO.P,J7,1,Pin_1*
G04 #@! TO.N,/V_{G7}*
X86936000Y-62684500D03*
D13*
G04 #@! TO.P,J7,2,Pin_2*
G04 #@! TO.N,/V_{D7}*
X86936000Y-65224500D03*
G04 #@! TO.P,J7,3,Pin_3*
G04 #@! TO.N,/V_{S7}*
X86936000Y-67764500D03*
G04 #@! TD*
D12*
G04 #@! TO.P,J8,1,Pin_1*
G04 #@! TO.N,/V_{G8}*
X98936000Y-62684500D03*
D13*
G04 #@! TO.P,J8,2,Pin_2*
G04 #@! TO.N,/V_{D8}*
X98936000Y-65224500D03*
G04 #@! TO.P,J8,3,Pin_3*
G04 #@! TO.N,/V_{S8}*
X98936000Y-67764500D03*
G04 #@! TD*
D12*
G04 #@! TO.P,J9,1,Pin_1*
G04 #@! TO.N,/V_{G9}*
X60936000Y-42972000D03*
D13*
G04 #@! TO.P,J9,2,Pin_2*
G04 #@! TO.N,/V_{D9}*
X60936000Y-45512000D03*
G04 #@! TO.P,J9,3,Pin_3*
G04 #@! TO.N,/V_{S9}*
X60936000Y-48052000D03*
G04 #@! TD*
D14*
G04 #@! TO.P,H1,1*
G04 #@! TO.N,unconnected-(H1-Pad1)*
X42423400Y-41221900D03*
G04 #@! TD*
G04 #@! TO.P,H3,1*
G04 #@! TO.N,unconnected-(H3-Pad1)*
X42423400Y-113994100D03*
G04 #@! TD*
D12*
G04 #@! TO.P,J12,1,Pin_1*
G04 #@! TO.N,/V_{G12}*
X98936000Y-42972000D03*
D13*
G04 #@! TO.P,J12,2,Pin_2*
G04 #@! TO.N,/V_{D12}*
X98936000Y-45512000D03*
G04 #@! TO.P,J12,3,Pin_3*
G04 #@! TO.N,/V_{S12}*
X98936000Y-48052000D03*
G04 #@! TD*
D16*
G04 #@! TO.N,/V_{G9}*
X55136000Y-108144000D03*
G04 #@! TO.N,/V_{G12}*
X104736000Y-108144000D03*
G04 #@! TO.N,GND*
X104736000Y-84922000D03*
X55136000Y-89422000D03*
X104736000Y-77922000D03*
X106736000Y-52922000D03*
X55136000Y-70422000D03*
X104736000Y-79922000D03*
X49136000Y-60422000D03*
X55136000Y-60422000D03*
X108736000Y-52922000D03*
X104736000Y-52922000D03*
X53136000Y-60422000D03*
X110736000Y-55422000D03*
X55136000Y-72922000D03*
X110736000Y-60422000D03*
X55136000Y-77922000D03*
X104736000Y-70422000D03*
X55136000Y-52922000D03*
X104736000Y-94422000D03*
X55136000Y-79922000D03*
X104736000Y-89422000D03*
X108736000Y-55422000D03*
X51136000Y-57922000D03*
X55136000Y-94422000D03*
X55136000Y-91922000D03*
X55136000Y-82422000D03*
X106736000Y-57922000D03*
X49136000Y-57922000D03*
X55136000Y-86922000D03*
X53136000Y-52922000D03*
X104736000Y-57922000D03*
X104736000Y-60422000D03*
X55136000Y-55422000D03*
X106736000Y-55422000D03*
X53136000Y-55422000D03*
X53136000Y-57922000D03*
X104736000Y-82422000D03*
X108736000Y-60422000D03*
X106736000Y-60422000D03*
X51136000Y-55422000D03*
X55136000Y-75422000D03*
X51136000Y-52922000D03*
X104736000Y-86922000D03*
X104736000Y-91922000D03*
X104736000Y-72922000D03*
X49136000Y-55422000D03*
X104736000Y-55422000D03*
X110736000Y-57922000D03*
X108736000Y-57922000D03*
X110736000Y-52922000D03*
X55136000Y-84922000D03*
X55136000Y-57922000D03*
X104736000Y-75422000D03*
X49136000Y-52922000D03*
X51136000Y-60422000D03*
G04 #@! TD*
D17*
G04 #@! TO.N,/V_{D1}*
X59086000Y-86208500D02*
X60070000Y-85224500D01*
X63376000Y-104544000D02*
X63376000Y-103184000D01*
X60070000Y-85224500D02*
X60936000Y-85224500D01*
X63376000Y-103184000D02*
X59086000Y-98894000D01*
X59086000Y-98894000D02*
X59086000Y-86208500D01*
G04 #@! TO.N,/V_{S1}*
X60936000Y-90708500D02*
X60936000Y-87764500D01*
X64756000Y-102364000D02*
X60936000Y-98544000D01*
X60936000Y-98544000D02*
X60936000Y-90708500D01*
X64756000Y-107084000D02*
X64756000Y-102364000D01*
G04 #@! TO.N,/V_{S2}*
X73036000Y-107084000D02*
X73036000Y-87864500D01*
X73036000Y-87864500D02*
X72936000Y-87764500D01*
X73036000Y-87864500D02*
X72936000Y-87764500D01*
G04 #@! TO.N,/V_{D2}*
X71656000Y-104544000D02*
X71656000Y-99314000D01*
X71336000Y-98994000D02*
X71336000Y-86408500D01*
X71656000Y-99314000D02*
X71336000Y-98994000D01*
X71336000Y-86408500D02*
X72520000Y-85224500D01*
X72520000Y-85224500D02*
X72936000Y-85224500D01*
G04 #@! TO.N,/V_{D3}*
X88216000Y-104544000D02*
X88216000Y-99314000D01*
X87352000Y-85224500D02*
X86936000Y-85224500D01*
X88536000Y-86408500D02*
X87352000Y-85224500D01*
X88536000Y-98994000D02*
X88536000Y-86408500D01*
X88216000Y-99314000D02*
X88536000Y-98994000D01*
G04 #@! TO.N,/V_{S3}*
X86836000Y-87864500D02*
X86936000Y-87764500D01*
X86836000Y-107084000D02*
X86836000Y-87864500D01*
G04 #@! TO.N,/V_{S4}*
X95116000Y-107084000D02*
X95116000Y-102364000D01*
X95116000Y-102364000D02*
X98936000Y-98544000D01*
X98936000Y-90708500D02*
X98936000Y-87764500D01*
X98936000Y-98544000D02*
X98936000Y-90708500D01*
G04 #@! TO.N,/V_{D4}*
X100786000Y-98894000D02*
X100786000Y-86208500D01*
X100786000Y-86208500D02*
X99802000Y-85224500D01*
X96496000Y-104544000D02*
X96496000Y-103184000D01*
X96496000Y-103184000D02*
X100786000Y-98894000D01*
X99802000Y-85224500D02*
X98936000Y-85224500D01*
G04 #@! TO.N,/V_{S5}*
X52736000Y-95094000D02*
X60616000Y-102974000D01*
X54880000Y-67764500D02*
X52736000Y-69908500D01*
X52736000Y-69908500D02*
X52736000Y-87258500D01*
X60616000Y-102974000D02*
X60616000Y-104544000D01*
X52736000Y-87258500D02*
X52736000Y-95094000D01*
X60936000Y-67764500D02*
X54880000Y-67764500D01*
G04 #@! TO.N,/V_{D5}*
X51536000Y-67708500D02*
X51536000Y-96044000D01*
X59236000Y-103744000D02*
X59236000Y-105109000D01*
X59236000Y-105109000D02*
X61211000Y-107084000D01*
X51536000Y-96044000D02*
X59236000Y-103744000D01*
X54020000Y-65224500D02*
X51536000Y-67708500D01*
X60936000Y-65224500D02*
X54020000Y-65224500D01*
X61211000Y-107084000D02*
X61996000Y-107084000D01*
G04 #@! TO.N,/V_{G5}*
X50286000Y-89138500D02*
X50286000Y-65808500D01*
X50286000Y-96974000D02*
X50286000Y-89138500D01*
X57856000Y-104544000D02*
X50286000Y-96974000D01*
X53410000Y-62684500D02*
X60936000Y-62684500D01*
X50286000Y-65808500D02*
X53410000Y-62684500D01*
G04 #@! TO.N,/V_{G6}*
X70310000Y-62684500D02*
X72936000Y-62684500D01*
X66336000Y-66658500D02*
X70310000Y-62684500D01*
X68896000Y-100382000D02*
X66336000Y-97822000D01*
X68896000Y-104544000D02*
X68896000Y-100382000D01*
X66336000Y-97822000D02*
X66336000Y-66658500D01*
G04 #@! TO.N,/V_{D6}*
X70276000Y-107084000D02*
X70276000Y-99662000D01*
X70276000Y-99662000D02*
X67836000Y-97222000D01*
X67836000Y-68508500D02*
X71120000Y-65224500D01*
X71120000Y-65224500D02*
X72936000Y-65224500D01*
X67836000Y-97222000D02*
X67836000Y-68508500D01*
G04 #@! TO.N,/V_{G7}*
X93536000Y-97822000D02*
X93536000Y-66658500D01*
X93536000Y-66658500D02*
X89562000Y-62684500D01*
X90976000Y-104544000D02*
X90976000Y-100382000D01*
X89562000Y-62684500D02*
X86936000Y-62684500D01*
X90976000Y-100382000D02*
X93536000Y-97822000D01*
G04 #@! TO.N,/V_{D7}*
X92036000Y-68508500D02*
X88752000Y-65224500D01*
X89596000Y-107084000D02*
X89596000Y-99662000D01*
X92036000Y-97222000D02*
X92036000Y-68508500D01*
X88752000Y-65224500D02*
X86936000Y-65224500D01*
X89596000Y-99662000D02*
X92036000Y-97222000D01*
G04 #@! TO.N,/V_{D8}*
X100636000Y-103744000D02*
X100636000Y-105109000D01*
X105852000Y-65224500D02*
X108336000Y-67708500D01*
X98661000Y-107084000D02*
X97876000Y-107084000D01*
X108336000Y-67708500D02*
X108336000Y-96044000D01*
X100636000Y-105109000D02*
X98661000Y-107084000D01*
X108336000Y-96044000D02*
X100636000Y-103744000D01*
X98936000Y-65224500D02*
X105852000Y-65224500D01*
G04 #@! TO.N,/V_{G8}*
X109586000Y-89138500D02*
X109586000Y-65808500D01*
X109586000Y-65808500D02*
X106462000Y-62684500D01*
X109586000Y-96974000D02*
X109586000Y-89138500D01*
X106462000Y-62684500D02*
X98936000Y-62684500D01*
X102016000Y-104544000D02*
X109586000Y-96974000D01*
G04 #@! TO.N,/V_{S8}*
X99256000Y-102974000D02*
X99256000Y-104544000D01*
X107136000Y-69908500D02*
X107136000Y-87258500D01*
X107136000Y-95094000D02*
X99256000Y-102974000D01*
X104992000Y-67764500D02*
X107136000Y-69908500D01*
X98936000Y-67764500D02*
X104992000Y-67764500D01*
X107136000Y-87258500D02*
X107136000Y-95094000D01*
G04 #@! TO.N,/V_{S9}*
X47436000Y-96294000D02*
X47436000Y-50908500D01*
X58226000Y-107084000D02*
X47436000Y-96294000D01*
X50292500Y-48052000D02*
X60936000Y-48052000D01*
X59236000Y-107084000D02*
X58226000Y-107084000D01*
X47436000Y-50908500D02*
X50292500Y-48052000D01*
G04 #@! TO.N,/V_{D9}*
X46136000Y-48208500D02*
X48832500Y-45512000D01*
X57856000Y-109624000D02*
X57856000Y-108614000D01*
X46136000Y-96894000D02*
X46136000Y-89058500D01*
X48832500Y-45512000D02*
X60936000Y-45512000D01*
X57856000Y-108614000D02*
X46136000Y-96894000D01*
X46136000Y-89058500D02*
X46136000Y-48208500D01*
G04 #@! TO.N,/V_{G9}*
X55136000Y-108144000D02*
X54886000Y-108144000D01*
X44786000Y-47008500D02*
X48822500Y-42972000D01*
X54886000Y-108144000D02*
X44786000Y-98044000D01*
X44786000Y-98044000D02*
X44786000Y-47008500D01*
X48822500Y-42972000D02*
X60936000Y-42972000D01*
G04 #@! TO.N,/V_{D10}*
X64736000Y-98344000D02*
X64736000Y-49408500D01*
X67516000Y-101124000D02*
X64736000Y-98344000D01*
X67516000Y-107084000D02*
X67516000Y-101124000D01*
X68632500Y-45512000D02*
X72936000Y-45512000D01*
X64736000Y-49408500D02*
X68632500Y-45512000D01*
G04 #@! TO.N,/V_{G10}*
X66136000Y-101644000D02*
X63336000Y-98844000D01*
X63336000Y-47808500D02*
X68172500Y-42972000D01*
X63336000Y-98844000D02*
X63336000Y-47808500D01*
X68172500Y-42972000D02*
X72936000Y-42972000D01*
X66136000Y-104544000D02*
X66136000Y-101644000D01*
G04 #@! TO.N,/V_{D11}*
X92356000Y-101124000D02*
X95136000Y-98344000D01*
X92356000Y-107084000D02*
X92356000Y-101124000D01*
X95136000Y-98344000D02*
X95136000Y-49408500D01*
X95136000Y-49408500D02*
X91239500Y-45512000D01*
X91239500Y-45512000D02*
X86936000Y-45512000D01*
G04 #@! TO.N,/V_{G11}*
X93736000Y-101644000D02*
X96536000Y-98844000D01*
X93736000Y-104544000D02*
X93736000Y-101644000D01*
X91699500Y-42972000D02*
X86936000Y-42972000D01*
X96536000Y-98844000D02*
X96536000Y-47808500D01*
X96536000Y-47808500D02*
X91699500Y-42972000D01*
G04 #@! TO.N,/V_{D12}*
X102016000Y-109624000D02*
X102016000Y-108614000D01*
X113736000Y-48208500D02*
X111039500Y-45512000D01*
X102016000Y-108614000D02*
X113736000Y-96894000D01*
X113736000Y-96894000D02*
X113736000Y-89058500D01*
X113736000Y-89058500D02*
X113736000Y-48208500D01*
X111039500Y-45512000D02*
X98936000Y-45512000D01*
G04 #@! TO.N,/V_{S12}*
X112436000Y-96294000D02*
X112436000Y-50908500D01*
X112436000Y-50908500D02*
X109579500Y-48052000D01*
X109579500Y-48052000D02*
X98936000Y-48052000D01*
X100636000Y-107084000D02*
X101646000Y-107084000D01*
X101646000Y-107084000D02*
X112436000Y-96294000D01*
G04 #@! TO.N,/V_{G12}*
X104986000Y-108144000D02*
X115086000Y-98044000D01*
X104736000Y-108144000D02*
X104986000Y-108144000D01*
X115086000Y-98044000D02*
X115086000Y-47008500D01*
X115086000Y-47008500D02*
X111049500Y-42972000D01*
X111049500Y-42972000D02*
X98936000Y-42972000D01*
G04 #@! TD*
G04 #@! TA.AperFunction,Conductor*
G04 #@! TO.N,GND*
G36*
X62129834Y-68717426D02*
G01*
X62185767Y-68759298D01*
X62210184Y-68824762D01*
X62210500Y-68833608D01*
X62210500Y-81242982D01*
X62190815Y-81310021D01*
X62138011Y-81355776D01*
X62068853Y-81365720D01*
X62021404Y-81348521D01*
X61950340Y-81304690D01*
X61950334Y-81304686D01*
X61783797Y-81249501D01*
X61783795Y-81249500D01*
X61681010Y-81239000D01*
X60190998Y-81239000D01*
X60190981Y-81239001D01*
X60088203Y-81249500D01*
X60088200Y-81249501D01*
X59921668Y-81304685D01*
X59921663Y-81304687D01*
X59772342Y-81396789D01*
X59648289Y-81520842D01*
X59556187Y-81670163D01*
X59556186Y-81670166D01*
X59501001Y-81836703D01*
X59501001Y-81836704D01*
X59501000Y-81836704D01*
X59490500Y-81939483D01*
X59490500Y-83429501D01*
X59490501Y-83429518D01*
X59501000Y-83532296D01*
X59501001Y-83532299D01*
X59556185Y-83698831D01*
X59556187Y-83698836D01*
X59648289Y-83848157D01*
X59754235Y-83954103D01*
X59787720Y-84015426D01*
X59782736Y-84085118D01*
X59740864Y-84141051D01*
X59704874Y-84159715D01*
X59637956Y-84181458D01*
X59480106Y-84261888D01*
X59336793Y-84366010D01*
X59336788Y-84366014D01*
X58227519Y-85475283D01*
X58227519Y-85475284D01*
X58227517Y-85475286D01*
X58182796Y-85536838D01*
X58123386Y-85618609D01*
X58075698Y-85712203D01*
X58075697Y-85712202D01*
X58042955Y-85776463D01*
X57988214Y-85944942D01*
X57960500Y-86119919D01*
X57960500Y-98427440D01*
X57940815Y-98494479D01*
X57888011Y-98540234D01*
X57818853Y-98550178D01*
X57755297Y-98521153D01*
X57748819Y-98515121D01*
X53897819Y-94664121D01*
X53864334Y-94602798D01*
X53861500Y-94576440D01*
X53861500Y-70426059D01*
X53881185Y-70359020D01*
X53897819Y-70338378D01*
X55309879Y-68926319D01*
X55371202Y-68892834D01*
X55397560Y-68890000D01*
X59985596Y-68890000D01*
X60052635Y-68909685D01*
X60058472Y-68913675D01*
X60178393Y-69000803D01*
X60227961Y-69026059D01*
X60381120Y-69104098D01*
X60381123Y-69104099D01*
X60489316Y-69139252D01*
X60597511Y-69174407D01*
X60701591Y-69190891D01*
X60822232Y-69210000D01*
X60822237Y-69210000D01*
X61049768Y-69210000D01*
X61158710Y-69192744D01*
X61274489Y-69174407D01*
X61490879Y-69104098D01*
X61693607Y-69000803D01*
X61877680Y-68867066D01*
X61998819Y-68745927D01*
X62060142Y-68712442D01*
X62129834Y-68717426D01*
G37*
G04 #@! TD.AperFunction*
G04 #@! TA.AperFunction,Conductor*
G36*
X97789814Y-68712786D02*
G01*
X97803147Y-68710870D01*
X97823290Y-68720069D01*
X97844927Y-68724776D01*
X97862652Y-68738044D01*
X97866703Y-68739895D01*
X97873181Y-68745927D01*
X97994320Y-68867066D01*
X98178393Y-69000803D01*
X98227961Y-69026059D01*
X98381120Y-69104098D01*
X98381123Y-69104099D01*
X98489316Y-69139252D01*
X98597511Y-69174407D01*
X98701591Y-69190891D01*
X98822232Y-69210000D01*
X98822237Y-69210000D01*
X99049768Y-69210000D01*
X99158710Y-69192744D01*
X99274489Y-69174407D01*
X99490879Y-69104098D01*
X99693607Y-69000803D01*
X99813519Y-68913681D01*
X99879325Y-68890202D01*
X99886404Y-68890000D01*
X104474441Y-68890000D01*
X104541480Y-68909685D01*
X104562122Y-68926319D01*
X105974181Y-70338378D01*
X106007666Y-70399701D01*
X106010500Y-70426059D01*
X106010500Y-94576440D01*
X105990815Y-94643479D01*
X105974181Y-94664121D01*
X102123181Y-98515121D01*
X102061858Y-98548606D01*
X101992166Y-98543622D01*
X101936233Y-98501750D01*
X101911816Y-98436286D01*
X101911500Y-98427440D01*
X101911500Y-86119919D01*
X101888776Y-85976452D01*
X101883786Y-85944944D01*
X101829042Y-85776458D01*
X101812082Y-85743173D01*
X101796302Y-85712202D01*
X101796302Y-85712203D01*
X101748614Y-85618610D01*
X101644483Y-85475286D01*
X101519214Y-85350017D01*
X100535214Y-84366017D01*
X100535213Y-84366016D01*
X100535211Y-84366014D01*
X100535206Y-84366010D01*
X100391893Y-84261888D01*
X100391892Y-84261887D01*
X100391890Y-84261886D01*
X100234042Y-84181458D01*
X100167126Y-84159715D01*
X100109451Y-84120277D01*
X100082253Y-84055918D01*
X100094168Y-83987072D01*
X100117758Y-83954109D01*
X100223712Y-83848156D01*
X100315814Y-83698834D01*
X100370999Y-83532297D01*
X100381500Y-83429509D01*
X100381499Y-81939492D01*
X100370999Y-81836703D01*
X100315814Y-81670166D01*
X100223712Y-81520844D01*
X100099656Y-81396788D01*
X100006888Y-81339569D01*
X99950336Y-81304687D01*
X99950331Y-81304685D01*
X99913242Y-81292395D01*
X99783797Y-81249501D01*
X99783795Y-81249500D01*
X99681010Y-81239000D01*
X98190998Y-81239000D01*
X98190981Y-81239001D01*
X98088203Y-81249500D01*
X98088200Y-81249501D01*
X97921668Y-81304685D01*
X97921659Y-81304690D01*
X97850596Y-81348521D01*
X97783203Y-81366961D01*
X97716540Y-81346038D01*
X97671771Y-81292395D01*
X97661500Y-81242982D01*
X97661500Y-68833608D01*
X97667738Y-68812362D01*
X97669318Y-68790274D01*
X97677390Y-68779490D01*
X97681185Y-68766569D01*
X97697918Y-68752069D01*
X97711190Y-68734341D01*
X97723810Y-68729633D01*
X97733989Y-68720814D01*
X97755906Y-68717662D01*
X97776654Y-68709924D01*
X97789814Y-68712786D01*
G37*
G04 #@! TD.AperFunction*
G04 #@! TA.AperFunction,Conductor*
G36*
X62129834Y-49004926D02*
G01*
X62185767Y-49046798D01*
X62210184Y-49112262D01*
X62210500Y-49121108D01*
X62210500Y-61242982D01*
X62190815Y-61310021D01*
X62138011Y-61355776D01*
X62068853Y-61365720D01*
X62021404Y-61348521D01*
X61950340Y-61304690D01*
X61950334Y-61304686D01*
X61783797Y-61249501D01*
X61783795Y-61249500D01*
X61681010Y-61239000D01*
X60190998Y-61239000D01*
X60190981Y-61239001D01*
X60088203Y-61249500D01*
X60088200Y-61249501D01*
X59921668Y-61304685D01*
X59921663Y-61304687D01*
X59772342Y-61396789D01*
X59646451Y-61522681D01*
X59585128Y-61556166D01*
X59558770Y-61559000D01*
X53498578Y-61559000D01*
X53321421Y-61559000D01*
X53263095Y-61568238D01*
X53146442Y-61586714D01*
X52977960Y-61641456D01*
X52977947Y-61641462D01*
X52820113Y-61721883D01*
X52812211Y-61727625D01*
X52812210Y-61727624D01*
X52812210Y-61727625D01*
X52676792Y-61826011D01*
X52676787Y-61826015D01*
X49427519Y-65075283D01*
X49427519Y-65075284D01*
X49427517Y-65075286D01*
X49382796Y-65136838D01*
X49323386Y-65218609D01*
X49242957Y-65376457D01*
X49242956Y-65376460D01*
X49188214Y-65544943D01*
X49160500Y-65719921D01*
X49160500Y-96127441D01*
X49140815Y-96194480D01*
X49088011Y-96240235D01*
X49018853Y-96250179D01*
X48955297Y-96221154D01*
X48948819Y-96215122D01*
X48597819Y-95864122D01*
X48564334Y-95802799D01*
X48561500Y-95776441D01*
X48561500Y-51426059D01*
X48581185Y-51359020D01*
X48597819Y-51338378D01*
X50722378Y-49213819D01*
X50783701Y-49180334D01*
X50810059Y-49177500D01*
X59985596Y-49177500D01*
X60052635Y-49197185D01*
X60058472Y-49201175D01*
X60178393Y-49288303D01*
X60227074Y-49313107D01*
X60381120Y-49391598D01*
X60381123Y-49391599D01*
X60489316Y-49426752D01*
X60597511Y-49461907D01*
X60701591Y-49478391D01*
X60822232Y-49497500D01*
X60822237Y-49497500D01*
X61049768Y-49497500D01*
X61158710Y-49480244D01*
X61274489Y-49461907D01*
X61490879Y-49391598D01*
X61693607Y-49288303D01*
X61877680Y-49154566D01*
X61998819Y-49033427D01*
X62060142Y-48999942D01*
X62129834Y-49004926D01*
G37*
G04 #@! TD.AperFunction*
G04 #@! TA.AperFunction,Conductor*
G36*
X97789814Y-49000286D02*
G01*
X97803147Y-48998370D01*
X97823290Y-49007569D01*
X97844927Y-49012276D01*
X97862652Y-49025544D01*
X97866703Y-49027395D01*
X97873181Y-49033427D01*
X97994320Y-49154566D01*
X98178393Y-49288303D01*
X98227074Y-49313107D01*
X98381120Y-49391598D01*
X98381123Y-49391599D01*
X98489316Y-49426752D01*
X98597511Y-49461907D01*
X98701591Y-49478391D01*
X98822232Y-49497500D01*
X98822237Y-49497500D01*
X99049768Y-49497500D01*
X99158710Y-49480244D01*
X99274489Y-49461907D01*
X99490879Y-49391598D01*
X99693607Y-49288303D01*
X99813519Y-49201181D01*
X99879325Y-49177702D01*
X99886404Y-49177500D01*
X109061941Y-49177500D01*
X109128980Y-49197185D01*
X109149622Y-49213819D01*
X111274181Y-51338378D01*
X111307666Y-51399701D01*
X111310500Y-51426059D01*
X111310500Y-95776441D01*
X111290815Y-95843480D01*
X111274181Y-95864122D01*
X110923181Y-96215122D01*
X110861858Y-96248607D01*
X110792166Y-96243623D01*
X110736233Y-96201751D01*
X110711816Y-96136287D01*
X110711500Y-96127441D01*
X110711500Y-65719921D01*
X110683786Y-65544945D01*
X110629042Y-65376458D01*
X110629042Y-65376457D01*
X110588061Y-65296029D01*
X110548614Y-65218610D01*
X110444483Y-65075286D01*
X110319214Y-64950017D01*
X107195214Y-61826017D01*
X107195213Y-61826016D01*
X107195212Y-61826015D01*
X107195211Y-61826014D01*
X107195206Y-61826010D01*
X107051893Y-61721888D01*
X107051892Y-61721887D01*
X107051890Y-61721886D01*
X107001320Y-61696119D01*
X106894042Y-61641457D01*
X106894039Y-61641456D01*
X106725557Y-61586714D01*
X106638067Y-61572857D01*
X106550579Y-61559000D01*
X106550578Y-61559000D01*
X100313230Y-61559000D01*
X100246191Y-61539315D01*
X100225549Y-61522681D01*
X100099657Y-61396789D01*
X100099656Y-61396788D01*
X100006888Y-61339569D01*
X99950336Y-61304687D01*
X99950331Y-61304685D01*
X99913242Y-61292395D01*
X99783797Y-61249501D01*
X99783795Y-61249500D01*
X99681010Y-61239000D01*
X98190998Y-61239000D01*
X98190981Y-61239001D01*
X98088203Y-61249500D01*
X98088200Y-61249501D01*
X97921668Y-61304685D01*
X97921659Y-61304690D01*
X97850596Y-61348521D01*
X97783203Y-61366961D01*
X97716540Y-61346038D01*
X97671771Y-61292395D01*
X97661500Y-61242982D01*
X97661500Y-49121108D01*
X97667738Y-49099862D01*
X97669318Y-49077774D01*
X97677390Y-49066990D01*
X97681185Y-49054069D01*
X97697918Y-49039569D01*
X97711190Y-49021841D01*
X97723810Y-49017133D01*
X97733989Y-49008314D01*
X97755906Y-49005162D01*
X97776654Y-48997424D01*
X97789814Y-49000286D01*
G37*
G04 #@! TD.AperFunction*
G04 #@! TA.AperFunction,Conductor*
G36*
X114794712Y-38142185D02*
G01*
X114840467Y-38194989D01*
X114850411Y-38264147D01*
X114821386Y-38327703D01*
X114796564Y-38349602D01*
X114710848Y-38406875D01*
X114710834Y-38406885D01*
X114444967Y-38625076D01*
X114201776Y-38868267D01*
X113983585Y-39134134D01*
X113983575Y-39134148D01*
X113792504Y-39420106D01*
X113792493Y-39420124D01*
X113630372Y-39723430D01*
X113630370Y-39723435D01*
X113498750Y-40041193D01*
X113398908Y-40370327D01*
X113331810Y-40707650D01*
X113298100Y-41049934D01*
X113298100Y-41393865D01*
X113331810Y-41736149D01*
X113398908Y-42073472D01*
X113498750Y-42402606D01*
X113630370Y-42720364D01*
X113630372Y-42720369D01*
X113792493Y-43023675D01*
X113792497Y-43023682D01*
X113792500Y-43023687D01*
X113983578Y-43309656D01*
X113983585Y-43309665D01*
X114201776Y-43575532D01*
X114444967Y-43818723D01*
X114444972Y-43818727D01*
X114444973Y-43818728D01*
X114710840Y-44036919D01*
X114996813Y-44228000D01*
X114996822Y-44228005D01*
X114996824Y-44228006D01*
X115300130Y-44390127D01*
X115300132Y-44390127D01*
X115300138Y-44390131D01*
X115617895Y-44521750D01*
X115947022Y-44621590D01*
X116284350Y-44688689D01*
X116626631Y-44722400D01*
X116626634Y-44722400D01*
X116970566Y-44722400D01*
X116970569Y-44722400D01*
X117312850Y-44688689D01*
X117650178Y-44621590D01*
X117979305Y-44521750D01*
X118297062Y-44390131D01*
X118600387Y-44228000D01*
X118886360Y-44036919D01*
X119152227Y-43818728D01*
X119395428Y-43575527D01*
X119613619Y-43309660D01*
X119670899Y-43223934D01*
X119724509Y-43179130D01*
X119793834Y-43170423D01*
X119856862Y-43200577D01*
X119893582Y-43260020D01*
X119898000Y-43292826D01*
X119898000Y-111923173D01*
X119878315Y-111990212D01*
X119825511Y-112035967D01*
X119756353Y-112045911D01*
X119692797Y-112016886D01*
X119670898Y-111992064D01*
X119613624Y-111906348D01*
X119613619Y-111906340D01*
X119395428Y-111640473D01*
X119395427Y-111640472D01*
X119395423Y-111640467D01*
X119152232Y-111397276D01*
X118886365Y-111179085D01*
X118886364Y-111179084D01*
X118886360Y-111179081D01*
X118600387Y-110988000D01*
X118600382Y-110987997D01*
X118600375Y-110987993D01*
X118297069Y-110825872D01*
X118297064Y-110825870D01*
X118296704Y-110825721D01*
X118203994Y-110787319D01*
X117979306Y-110694250D01*
X117650172Y-110594408D01*
X117312848Y-110527310D01*
X117312849Y-110527310D01*
X117055056Y-110501921D01*
X116970569Y-110493600D01*
X116626631Y-110493600D01*
X116548566Y-110501288D01*
X116284350Y-110527310D01*
X115947027Y-110594408D01*
X115617893Y-110694250D01*
X115300135Y-110825870D01*
X115300130Y-110825872D01*
X114996824Y-110987993D01*
X114996806Y-110988004D01*
X114710848Y-111179075D01*
X114710834Y-111179085D01*
X114444967Y-111397276D01*
X114201776Y-111640467D01*
X113983585Y-111906334D01*
X113983575Y-111906348D01*
X113792504Y-112192306D01*
X113792493Y-112192324D01*
X113630372Y-112495630D01*
X113630370Y-112495635D01*
X113498750Y-112813393D01*
X113398908Y-113142527D01*
X113331810Y-113479850D01*
X113298100Y-113822134D01*
X113298100Y-114166065D01*
X113331810Y-114508349D01*
X113398908Y-114845672D01*
X113498750Y-115174806D01*
X113630370Y-115492564D01*
X113630372Y-115492569D01*
X113792493Y-115795875D01*
X113792504Y-115795893D01*
X113983575Y-116081851D01*
X113983585Y-116081865D01*
X114201776Y-116347732D01*
X114444967Y-116590923D01*
X114444972Y-116590927D01*
X114444973Y-116590928D01*
X114710840Y-116809119D01*
X114710847Y-116809124D01*
X114710857Y-116809131D01*
X114796562Y-116866397D01*
X114841368Y-116920009D01*
X114850075Y-116989334D01*
X114819921Y-117052361D01*
X114760478Y-117089081D01*
X114727672Y-117093499D01*
X44494328Y-117093499D01*
X44427289Y-117073814D01*
X44381534Y-117021010D01*
X44371590Y-116951852D01*
X44400615Y-116888296D01*
X44425438Y-116866397D01*
X44511142Y-116809131D01*
X44511141Y-116809131D01*
X44511160Y-116809119D01*
X44777027Y-116590928D01*
X45020228Y-116347727D01*
X45238419Y-116081860D01*
X45429500Y-115795887D01*
X45591631Y-115492562D01*
X45723250Y-115174805D01*
X45823090Y-114845678D01*
X45890189Y-114508350D01*
X45923900Y-114166069D01*
X45923900Y-113822131D01*
X45890189Y-113479850D01*
X45823090Y-113142522D01*
X45723250Y-112813395D01*
X45591631Y-112495638D01*
X45429500Y-112192313D01*
X45238419Y-111906340D01*
X45020228Y-111640473D01*
X45020227Y-111640472D01*
X45020223Y-111640467D01*
X44777032Y-111397276D01*
X44511165Y-111179085D01*
X44511164Y-111179084D01*
X44511160Y-111179081D01*
X44225187Y-110988000D01*
X44225182Y-110987997D01*
X44225175Y-110987993D01*
X43921869Y-110825872D01*
X43921864Y-110825870D01*
X43921504Y-110825721D01*
X43828794Y-110787319D01*
X43604106Y-110694250D01*
X43274972Y-110594408D01*
X42937648Y-110527310D01*
X42937649Y-110527310D01*
X42679856Y-110501921D01*
X42595369Y-110493600D01*
X42251431Y-110493600D01*
X42173366Y-110501288D01*
X41909150Y-110527310D01*
X41571827Y-110594408D01*
X41242693Y-110694250D01*
X40924935Y-110825870D01*
X40924930Y-110825872D01*
X40621624Y-110987993D01*
X40621606Y-110988004D01*
X40335648Y-111179075D01*
X40335634Y-111179085D01*
X40069767Y-111397276D01*
X39826576Y-111640467D01*
X39608385Y-111906334D01*
X39608375Y-111906348D01*
X39551102Y-111992064D01*
X39497490Y-112036869D01*
X39428165Y-112045576D01*
X39365138Y-112015422D01*
X39328418Y-111955979D01*
X39324000Y-111923173D01*
X39324000Y-106972549D01*
X47685500Y-106972549D01*
X47685500Y-107195450D01*
X47685501Y-107195466D01*
X47714594Y-107416452D01*
X47714595Y-107416457D01*
X47714596Y-107416463D01*
X47714597Y-107416465D01*
X47772290Y-107631780D01*
X47772293Y-107631790D01*
X47857593Y-107837722D01*
X47857595Y-107837726D01*
X47969052Y-108030774D01*
X47969057Y-108030780D01*
X47969058Y-108030782D01*
X48104751Y-108207622D01*
X48104757Y-108207629D01*
X48262370Y-108365242D01*
X48262376Y-108365247D01*
X48439226Y-108500948D01*
X48632274Y-108612405D01*
X48697002Y-108639216D01*
X48835961Y-108696775D01*
X48838219Y-108697710D01*
X49053537Y-108755404D01*
X49274543Y-108784500D01*
X49274550Y-108784500D01*
X49497450Y-108784500D01*
X49497457Y-108784500D01*
X49718463Y-108755404D01*
X49933781Y-108697710D01*
X50139726Y-108612405D01*
X50332774Y-108500948D01*
X50509624Y-108365247D01*
X50667247Y-108207624D01*
X50802948Y-108030774D01*
X50914405Y-107837726D01*
X50999710Y-107631781D01*
X51057404Y-107416463D01*
X51086500Y-107195457D01*
X51086500Y-106972543D01*
X51057404Y-106751537D01*
X50999710Y-106536219D01*
X50914405Y-106330274D01*
X50802948Y-106137226D01*
X50667247Y-105960376D01*
X50667242Y-105960370D01*
X50509629Y-105802757D01*
X50509622Y-105802751D01*
X50332782Y-105667058D01*
X50332780Y-105667057D01*
X50332774Y-105667052D01*
X50139726Y-105555595D01*
X50139722Y-105555593D01*
X49933790Y-105470293D01*
X49933783Y-105470291D01*
X49933781Y-105470290D01*
X49718463Y-105412596D01*
X49718457Y-105412595D01*
X49718452Y-105412594D01*
X49497466Y-105383501D01*
X49497463Y-105383500D01*
X49497457Y-105383500D01*
X49274543Y-105383500D01*
X49274537Y-105383500D01*
X49274533Y-105383501D01*
X49053547Y-105412594D01*
X49053540Y-105412595D01*
X49053537Y-105412596D01*
X48838219Y-105470290D01*
X48838209Y-105470293D01*
X48632277Y-105555593D01*
X48632273Y-105555595D01*
X48439226Y-105667052D01*
X48439217Y-105667058D01*
X48262377Y-105802751D01*
X48262370Y-105802757D01*
X48104757Y-105960370D01*
X48104751Y-105960377D01*
X47969058Y-106137217D01*
X47969052Y-106137226D01*
X47857595Y-106330273D01*
X47857593Y-106330277D01*
X47772293Y-106536209D01*
X47772290Y-106536219D01*
X47714597Y-106751534D01*
X47714594Y-106751547D01*
X47685501Y-106972533D01*
X47685500Y-106972549D01*
X39324000Y-106972549D01*
X39324000Y-46919921D01*
X43660500Y-46919921D01*
X43660500Y-46924022D01*
X43660500Y-98132578D01*
X43688214Y-98307556D01*
X43702455Y-98351386D01*
X43702455Y-98351387D01*
X43742955Y-98476037D01*
X43777392Y-98543622D01*
X43823386Y-98633890D01*
X43927517Y-98777214D01*
X43927519Y-98777216D01*
X54152781Y-109002480D01*
X54152783Y-109002482D01*
X54152786Y-109002484D01*
X54212740Y-109046042D01*
X54296110Y-109106614D01*
X54373529Y-109146061D01*
X54453957Y-109187042D01*
X54453960Y-109187043D01*
X54538201Y-109214414D01*
X54622444Y-109241786D01*
X54797421Y-109269500D01*
X54797422Y-109269500D01*
X55224578Y-109269500D01*
X55224579Y-109269500D01*
X55399555Y-109241786D01*
X55568042Y-109187042D01*
X55725890Y-109106614D01*
X55869214Y-109002483D01*
X55994483Y-108877214D01*
X56098614Y-108733890D01*
X56117525Y-108696774D01*
X56136841Y-108676322D01*
X56153700Y-108653803D01*
X56160509Y-108651263D01*
X56165500Y-108645979D01*
X56192806Y-108639216D01*
X56219164Y-108629386D01*
X56226266Y-108630931D01*
X56233321Y-108629184D01*
X56259947Y-108638257D01*
X56287437Y-108644238D01*
X56295744Y-108650457D01*
X56299456Y-108651722D01*
X56315691Y-108665389D01*
X56424571Y-108774269D01*
X56458056Y-108835592D01*
X56453072Y-108905284D01*
X56447375Y-108918245D01*
X56395928Y-109019215D01*
X56319293Y-109255072D01*
X56280500Y-109499999D01*
X56280500Y-109748000D01*
X56319293Y-109992927D01*
X56319294Y-109992931D01*
X56395927Y-110228782D01*
X56508511Y-110449742D01*
X56654276Y-110650370D01*
X56829630Y-110825724D01*
X57030258Y-110971489D01*
X57251218Y-111084073D01*
X57487069Y-111160706D01*
X57578920Y-111175253D01*
X57732000Y-111199500D01*
X57732005Y-111199500D01*
X57980000Y-111199500D01*
X58116070Y-111177947D01*
X58224931Y-111160706D01*
X58460782Y-111084073D01*
X58681742Y-110971489D01*
X58882370Y-110825724D01*
X59057724Y-110650370D01*
X59135682Y-110543069D01*
X59191012Y-110500404D01*
X59260625Y-110494425D01*
X59322420Y-110527031D01*
X59336317Y-110543069D01*
X59414276Y-110650370D01*
X59589630Y-110825724D01*
X59790258Y-110971489D01*
X60011218Y-111084073D01*
X60247069Y-111160706D01*
X60338920Y-111175253D01*
X60492000Y-111199500D01*
X60492005Y-111199500D01*
X60740000Y-111199500D01*
X60876070Y-111177947D01*
X60984931Y-111160706D01*
X61220782Y-111084073D01*
X61441742Y-110971489D01*
X61642370Y-110825724D01*
X61817724Y-110650370D01*
X61895682Y-110543069D01*
X61951012Y-110500404D01*
X62020625Y-110494425D01*
X62082420Y-110527031D01*
X62096317Y-110543069D01*
X62174276Y-110650370D01*
X62349630Y-110825724D01*
X62550258Y-110971489D01*
X62771218Y-111084073D01*
X63007069Y-111160706D01*
X63098920Y-111175253D01*
X63252000Y-111199500D01*
X63252005Y-111199500D01*
X63500000Y-111199500D01*
X63636070Y-111177947D01*
X63744931Y-111160706D01*
X63980782Y-111084073D01*
X64201742Y-110971489D01*
X64402370Y-110825724D01*
X64577724Y-110650370D01*
X64655682Y-110543069D01*
X64711012Y-110500404D01*
X64780625Y-110494425D01*
X64842420Y-110527031D01*
X64856317Y-110543069D01*
X64934276Y-110650370D01*
X65109630Y-110825724D01*
X65310258Y-110971489D01*
X65531218Y-111084073D01*
X65767069Y-111160706D01*
X65858920Y-111175253D01*
X66012000Y-111199500D01*
X66012005Y-111199500D01*
X66260000Y-111199500D01*
X66396070Y-111177947D01*
X66504931Y-111160706D01*
X66740782Y-111084073D01*
X66961742Y-110971489D01*
X67162370Y-110825724D01*
X67337724Y-110650370D01*
X67415682Y-110543069D01*
X67471012Y-110500404D01*
X67540625Y-110494425D01*
X67602420Y-110527031D01*
X67616317Y-110543069D01*
X67694276Y-110650370D01*
X67869630Y-110825724D01*
X68070258Y-110971489D01*
X68291218Y-111084073D01*
X68527069Y-111160706D01*
X68618920Y-111175253D01*
X68772000Y-111199500D01*
X68772005Y-111199500D01*
X69020000Y-111199500D01*
X69156070Y-111177947D01*
X69264931Y-111160706D01*
X69500782Y-111084073D01*
X69721742Y-110971489D01*
X69922370Y-110825724D01*
X70097724Y-110650370D01*
X70175682Y-110543069D01*
X70231012Y-110500404D01*
X70300625Y-110494425D01*
X70362420Y-110527031D01*
X70376317Y-110543069D01*
X70454276Y-110650370D01*
X70629630Y-110825724D01*
X70830258Y-110971489D01*
X71051218Y-111084073D01*
X71287069Y-111160706D01*
X71378920Y-111175253D01*
X71532000Y-111199500D01*
X71532005Y-111199500D01*
X71780000Y-111199500D01*
X71916070Y-111177947D01*
X72024931Y-111160706D01*
X72260782Y-111084073D01*
X72481742Y-110971489D01*
X72682370Y-110825724D01*
X72857724Y-110650370D01*
X73003489Y-110449742D01*
X73116073Y-110228782D01*
X73192706Y-109992931D01*
X73209947Y-109884070D01*
X73231500Y-109748000D01*
X73231500Y-109499999D01*
X73205637Y-109336714D01*
X73192706Y-109255069D01*
X73116073Y-109019218D01*
X73024652Y-108839794D01*
X73011757Y-108771125D01*
X73038034Y-108706385D01*
X73095140Y-108666128D01*
X73135138Y-108659500D01*
X73160000Y-108659500D01*
X73302774Y-108636886D01*
X73404931Y-108620706D01*
X73640782Y-108544073D01*
X73861742Y-108431489D01*
X74062370Y-108285724D01*
X74237724Y-108110370D01*
X74315682Y-108003069D01*
X74371012Y-107960404D01*
X74440625Y-107954425D01*
X74502420Y-107987031D01*
X74516317Y-108003069D01*
X74594276Y-108110370D01*
X74769630Y-108285724D01*
X74970258Y-108431489D01*
X75191218Y-108544073D01*
X75427069Y-108620706D01*
X75518920Y-108635253D01*
X75672000Y-108659500D01*
X75696862Y-108659500D01*
X75763901Y-108679185D01*
X75809656Y-108731989D01*
X75819600Y-108801147D01*
X75807347Y-108839795D01*
X75715928Y-109019215D01*
X75639293Y-109255072D01*
X75600500Y-109499999D01*
X75600500Y-109748000D01*
X75639293Y-109992927D01*
X75639294Y-109992931D01*
X75715927Y-110228782D01*
X75828511Y-110449742D01*
X75974276Y-110650370D01*
X76149630Y-110825724D01*
X76350258Y-110971489D01*
X76571218Y-111084073D01*
X76807069Y-111160706D01*
X76898920Y-111175253D01*
X77052000Y-111199500D01*
X77052005Y-111199500D01*
X77300000Y-111199500D01*
X77436070Y-111177947D01*
X77544931Y-111160706D01*
X77780782Y-111084073D01*
X78001742Y-110971489D01*
X78202370Y-110825724D01*
X78377724Y-110650370D01*
X78455682Y-110543069D01*
X78511012Y-110500404D01*
X78580625Y-110494425D01*
X78642420Y-110527031D01*
X78656317Y-110543069D01*
X78734276Y-110650370D01*
X78909630Y-110825724D01*
X79110258Y-110971489D01*
X79331218Y-111084073D01*
X79567069Y-111160706D01*
X79658920Y-111175253D01*
X79812000Y-111199500D01*
X79812005Y-111199500D01*
X80060000Y-111199500D01*
X80196070Y-111177947D01*
X80304931Y-111160706D01*
X80540782Y-111084073D01*
X80761742Y-110971489D01*
X80962370Y-110825724D01*
X81137724Y-110650370D01*
X81215682Y-110543069D01*
X81271012Y-110500404D01*
X81340625Y-110494425D01*
X81402420Y-110527031D01*
X81416317Y-110543069D01*
X81494276Y-110650370D01*
X81669630Y-110825724D01*
X81870258Y-110971489D01*
X82091218Y-111084073D01*
X82327069Y-111160706D01*
X82418920Y-111175253D01*
X82572000Y-111199500D01*
X82572005Y-111199500D01*
X82820000Y-111199500D01*
X82956070Y-111177947D01*
X83064931Y-111160706D01*
X83300782Y-111084073D01*
X83521742Y-110971489D01*
X83722370Y-110825724D01*
X83897724Y-110650370D01*
X84043489Y-110449742D01*
X84156073Y-110228782D01*
X84232706Y-109992931D01*
X84249947Y-109884070D01*
X84271500Y-109748000D01*
X84271500Y-109499999D01*
X84245637Y-109336714D01*
X84232706Y-109255069D01*
X84156073Y-109019218D01*
X84064652Y-108839794D01*
X84051757Y-108771125D01*
X84078034Y-108706385D01*
X84135140Y-108666128D01*
X84175138Y-108659500D01*
X84200000Y-108659500D01*
X84342774Y-108636886D01*
X84444931Y-108620706D01*
X84680782Y-108544073D01*
X84901742Y-108431489D01*
X85102370Y-108285724D01*
X85277724Y-108110370D01*
X85355682Y-108003069D01*
X85411012Y-107960404D01*
X85480625Y-107954425D01*
X85542420Y-107987031D01*
X85556317Y-108003069D01*
X85634276Y-108110370D01*
X85809630Y-108285724D01*
X86010258Y-108431489D01*
X86231218Y-108544073D01*
X86467069Y-108620706D01*
X86558920Y-108635253D01*
X86712000Y-108659500D01*
X86736862Y-108659500D01*
X86803901Y-108679185D01*
X86849656Y-108731989D01*
X86859600Y-108801147D01*
X86847347Y-108839795D01*
X86755928Y-109019215D01*
X86679293Y-109255072D01*
X86640500Y-109499999D01*
X86640500Y-109748000D01*
X86679293Y-109992927D01*
X86679294Y-109992931D01*
X86755927Y-110228782D01*
X86868511Y-110449742D01*
X87014276Y-110650370D01*
X87189630Y-110825724D01*
X87390258Y-110971489D01*
X87611218Y-111084073D01*
X87847069Y-111160706D01*
X87938920Y-111175253D01*
X88092000Y-111199500D01*
X88092005Y-111199500D01*
X88340000Y-111199500D01*
X88476070Y-111177947D01*
X88584931Y-111160706D01*
X88820782Y-111084073D01*
X89041742Y-110971489D01*
X89242370Y-110825724D01*
X89417724Y-110650370D01*
X89495682Y-110543069D01*
X89551012Y-110500404D01*
X89620625Y-110494425D01*
X89682420Y-110527031D01*
X89696317Y-110543069D01*
X89774276Y-110650370D01*
X89949630Y-110825724D01*
X90150258Y-110971489D01*
X90371218Y-111084073D01*
X90607069Y-111160706D01*
X90698920Y-111175253D01*
X90852000Y-111199500D01*
X90852005Y-111199500D01*
X91100000Y-111199500D01*
X91236070Y-111177947D01*
X91344931Y-111160706D01*
X91580782Y-111084073D01*
X91801742Y-110971489D01*
X92002370Y-110825724D01*
X92177724Y-110650370D01*
X92255682Y-110543069D01*
X92311012Y-110500404D01*
X92380625Y-110494425D01*
X92442420Y-110527031D01*
X92456317Y-110543069D01*
X92534276Y-110650370D01*
X92709630Y-110825724D01*
X92910258Y-110971489D01*
X93131218Y-111084073D01*
X93367069Y-111160706D01*
X93458920Y-111175253D01*
X93612000Y-111199500D01*
X93612005Y-111199500D01*
X93860000Y-111199500D01*
X93996070Y-111177947D01*
X94104931Y-111160706D01*
X94340782Y-111084073D01*
X94561742Y-110971489D01*
X94762370Y-110825724D01*
X94937724Y-110650370D01*
X95015682Y-110543069D01*
X95071012Y-110500404D01*
X95140625Y-110494425D01*
X95202420Y-110527031D01*
X95216317Y-110543069D01*
X95294276Y-110650370D01*
X95469630Y-110825724D01*
X95670258Y-110971489D01*
X95891218Y-111084073D01*
X96127069Y-111160706D01*
X96218920Y-111175253D01*
X96372000Y-111199500D01*
X96372005Y-111199500D01*
X96620000Y-111199500D01*
X96756070Y-111177947D01*
X96864931Y-111160706D01*
X97100782Y-111084073D01*
X97321742Y-110971489D01*
X97522370Y-110825724D01*
X97697724Y-110650370D01*
X97775682Y-110543069D01*
X97831012Y-110500404D01*
X97900625Y-110494425D01*
X97962420Y-110527031D01*
X97976317Y-110543069D01*
X98054276Y-110650370D01*
X98229630Y-110825724D01*
X98430258Y-110971489D01*
X98651218Y-111084073D01*
X98887069Y-111160706D01*
X98978920Y-111175253D01*
X99132000Y-111199500D01*
X99132005Y-111199500D01*
X99380000Y-111199500D01*
X99516070Y-111177947D01*
X99624931Y-111160706D01*
X99860782Y-111084073D01*
X100081742Y-110971489D01*
X100282370Y-110825724D01*
X100457724Y-110650370D01*
X100535682Y-110543069D01*
X100591012Y-110500404D01*
X100660625Y-110494425D01*
X100722420Y-110527031D01*
X100736317Y-110543069D01*
X100814276Y-110650370D01*
X100989630Y-110825724D01*
X101190258Y-110971489D01*
X101411218Y-111084073D01*
X101647069Y-111160706D01*
X101738920Y-111175253D01*
X101892000Y-111199500D01*
X101892005Y-111199500D01*
X102140000Y-111199500D01*
X102276070Y-111177947D01*
X102384931Y-111160706D01*
X102620782Y-111084073D01*
X102841742Y-110971489D01*
X103042370Y-110825724D01*
X103217724Y-110650370D01*
X103363489Y-110449742D01*
X103476073Y-110228782D01*
X103552706Y-109992931D01*
X103569947Y-109884070D01*
X103591500Y-109748000D01*
X103591500Y-109499999D01*
X103565637Y-109336714D01*
X103552706Y-109255069D01*
X103476073Y-109019218D01*
X103424624Y-108918243D01*
X103420061Y-108893950D01*
X103411425Y-108870794D01*
X103413726Y-108860214D01*
X103411728Y-108849573D01*
X103421023Y-108826669D01*
X103426277Y-108802521D01*
X103436210Y-108789251D01*
X103438004Y-108784833D01*
X103447419Y-108774276D01*
X103556310Y-108665385D01*
X103617631Y-108631902D01*
X103687323Y-108636886D01*
X103743256Y-108678758D01*
X103754473Y-108696771D01*
X103773386Y-108733890D01*
X103877517Y-108877214D01*
X104002786Y-109002483D01*
X104146110Y-109106614D01*
X104223529Y-109146061D01*
X104303957Y-109187042D01*
X104303960Y-109187043D01*
X104388201Y-109214414D01*
X104472445Y-109241786D01*
X104647421Y-109269500D01*
X104647422Y-109269500D01*
X105074578Y-109269500D01*
X105074579Y-109269500D01*
X105249556Y-109241786D01*
X105418042Y-109187042D01*
X105575890Y-109106614D01*
X105719214Y-109002483D01*
X105844483Y-108877214D01*
X105903042Y-108818655D01*
X105903055Y-108818640D01*
X107749147Y-106972549D01*
X108785500Y-106972549D01*
X108785500Y-107195450D01*
X108785501Y-107195466D01*
X108814594Y-107416452D01*
X108814595Y-107416457D01*
X108814596Y-107416463D01*
X108814597Y-107416465D01*
X108872290Y-107631780D01*
X108872293Y-107631790D01*
X108957593Y-107837722D01*
X108957595Y-107837726D01*
X109069052Y-108030774D01*
X109069057Y-108030780D01*
X109069058Y-108030782D01*
X109204751Y-108207622D01*
X109204757Y-108207629D01*
X109362370Y-108365242D01*
X109362376Y-108365247D01*
X109539226Y-108500948D01*
X109732274Y-108612405D01*
X109797002Y-108639216D01*
X109935961Y-108696775D01*
X109938219Y-108697710D01*
X110153537Y-108755404D01*
X110374543Y-108784500D01*
X110374550Y-108784500D01*
X110597450Y-108784500D01*
X110597457Y-108784500D01*
X110818463Y-108755404D01*
X111033781Y-108697710D01*
X111239726Y-108612405D01*
X111432774Y-108500948D01*
X111609624Y-108365247D01*
X111767247Y-108207624D01*
X111902948Y-108030774D01*
X112014405Y-107837726D01*
X112099710Y-107631781D01*
X112157404Y-107416463D01*
X112186500Y-107195457D01*
X112186500Y-106972543D01*
X112157404Y-106751537D01*
X112099710Y-106536219D01*
X112014405Y-106330274D01*
X111902948Y-106137226D01*
X111767247Y-105960376D01*
X111767242Y-105960370D01*
X111609629Y-105802757D01*
X111609622Y-105802751D01*
X111432782Y-105667058D01*
X111432780Y-105667057D01*
X111432774Y-105667052D01*
X111239726Y-105555595D01*
X111239722Y-105555593D01*
X111033790Y-105470293D01*
X111033783Y-105470291D01*
X111033781Y-105470290D01*
X110818463Y-105412596D01*
X110818457Y-105412595D01*
X110818452Y-105412594D01*
X110597466Y-105383501D01*
X110597463Y-105383500D01*
X110597457Y-105383500D01*
X110374543Y-105383500D01*
X110374537Y-105383500D01*
X110374533Y-105383501D01*
X110153547Y-105412594D01*
X110153540Y-105412595D01*
X110153537Y-105412596D01*
X109938219Y-105470290D01*
X109938209Y-105470293D01*
X109732277Y-105555593D01*
X109732273Y-105555595D01*
X109539226Y-105667052D01*
X109539217Y-105667058D01*
X109362377Y-105802751D01*
X109362370Y-105802757D01*
X109204757Y-105960370D01*
X109204751Y-105960377D01*
X109069058Y-106137217D01*
X109069052Y-106137226D01*
X108957595Y-106330273D01*
X108957593Y-106330277D01*
X108872293Y-106536209D01*
X108872290Y-106536219D01*
X108814597Y-106751534D01*
X108814594Y-106751547D01*
X108785501Y-106972533D01*
X108785500Y-106972549D01*
X107749147Y-106972549D01*
X115944484Y-98777214D01*
X116014762Y-98680483D01*
X116048614Y-98633890D01*
X116129042Y-98476042D01*
X116141960Y-98436286D01*
X116169545Y-98351387D01*
X116169545Y-98351386D01*
X116183786Y-98307556D01*
X116211500Y-98132579D01*
X116211500Y-97955421D01*
X116211500Y-46919921D01*
X116209605Y-46907959D01*
X116204319Y-46874583D01*
X116204319Y-46874581D01*
X116196781Y-46826988D01*
X116183786Y-46744944D01*
X116129042Y-46576458D01*
X116129042Y-46576457D01*
X116118130Y-46555042D01*
X116066484Y-46453682D01*
X116048614Y-46418610D01*
X115944483Y-46275286D01*
X115819214Y-46150017D01*
X111782714Y-42113517D01*
X111727605Y-42073478D01*
X111639390Y-42009386D01*
X111639388Y-42009385D01*
X111481542Y-41928957D01*
X111481539Y-41928956D01*
X111313057Y-41874214D01*
X111225567Y-41860357D01*
X111138079Y-41846500D01*
X111138078Y-41846500D01*
X100313230Y-41846500D01*
X100246191Y-41826815D01*
X100225549Y-41810181D01*
X100099657Y-41684289D01*
X100099656Y-41684288D01*
X99950334Y-41592186D01*
X99783797Y-41537001D01*
X99783795Y-41537000D01*
X99681010Y-41526500D01*
X98190998Y-41526500D01*
X98190981Y-41526501D01*
X98088203Y-41537000D01*
X98088200Y-41537001D01*
X97921668Y-41592185D01*
X97921663Y-41592187D01*
X97772342Y-41684289D01*
X97648289Y-41808342D01*
X97556187Y-41957663D01*
X97556186Y-41957666D01*
X97501001Y-42124203D01*
X97501001Y-42124204D01*
X97501000Y-42124204D01*
X97490500Y-42226983D01*
X97490500Y-43717001D01*
X97490501Y-43717018D01*
X97501000Y-43819796D01*
X97501001Y-43819799D01*
X97556185Y-43986331D01*
X97556186Y-43986334D01*
X97626501Y-44100334D01*
X97648289Y-44135657D01*
X97772344Y-44259712D01*
X97868764Y-44319184D01*
X97915489Y-44371132D01*
X97926712Y-44440094D01*
X97898868Y-44504177D01*
X97891350Y-44512404D01*
X97833433Y-44570320D01*
X97699697Y-44754392D01*
X97596401Y-44957120D01*
X97596400Y-44957123D01*
X97526093Y-45173509D01*
X97490500Y-45398231D01*
X97490500Y-45625768D01*
X97526093Y-45850490D01*
X97596400Y-46066876D01*
X97596401Y-46066879D01*
X97699697Y-46269607D01*
X97833434Y-46453680D01*
X97994320Y-46614566D01*
X98025886Y-46637500D01*
X98086697Y-46681682D01*
X98129362Y-46737013D01*
X98135341Y-46806626D01*
X98102735Y-46868421D01*
X98086697Y-46882318D01*
X97994318Y-46949435D01*
X97833436Y-47110317D01*
X97833429Y-47110326D01*
X97723136Y-47262129D01*
X97698296Y-47281282D01*
X97674642Y-47301895D01*
X97670844Y-47302451D01*
X97667806Y-47304795D01*
X97636547Y-47307479D01*
X97605511Y-47312029D01*
X97602016Y-47310444D01*
X97598193Y-47310773D01*
X97570447Y-47296133D01*
X97541875Y-47283180D01*
X97539031Y-47279556D01*
X97536398Y-47278167D01*
X97518689Y-47256570D01*
X97515229Y-47251219D01*
X97498614Y-47218610D01*
X97459997Y-47165458D01*
X97458012Y-47162726D01*
X97458005Y-47162715D01*
X97394487Y-47075289D01*
X97394482Y-47075284D01*
X92432716Y-42113519D01*
X92432712Y-42113516D01*
X92377605Y-42073478D01*
X92289390Y-42009386D01*
X92289388Y-42009385D01*
X92131542Y-41928957D01*
X92131539Y-41928956D01*
X91963057Y-41874214D01*
X91875567Y-41860357D01*
X91788079Y-41846500D01*
X91788078Y-41846500D01*
X88313230Y-41846500D01*
X88246191Y-41826815D01*
X88225549Y-41810181D01*
X88099657Y-41684289D01*
X88099656Y-41684288D01*
X87950334Y-41592186D01*
X87783797Y-41537001D01*
X87783795Y-41537000D01*
X87681010Y-41526500D01*
X86190998Y-41526500D01*
X86190981Y-41526501D01*
X86088203Y-41537000D01*
X86088200Y-41537001D01*
X85921668Y-41592185D01*
X85921663Y-41592187D01*
X85772342Y-41684289D01*
X85648289Y-41808342D01*
X85556187Y-41957663D01*
X85556186Y-41957666D01*
X85501001Y-42124203D01*
X85501001Y-42124204D01*
X85501000Y-42124204D01*
X85490500Y-42226983D01*
X85490500Y-43717001D01*
X85490501Y-43717018D01*
X85501000Y-43819796D01*
X85501001Y-43819799D01*
X85556185Y-43986331D01*
X85556186Y-43986334D01*
X85626501Y-44100334D01*
X85648289Y-44135657D01*
X85772344Y-44259712D01*
X85868764Y-44319184D01*
X85915489Y-44371132D01*
X85926712Y-44440094D01*
X85898868Y-44504177D01*
X85891350Y-44512404D01*
X85833433Y-44570320D01*
X85699697Y-44754392D01*
X85596401Y-44957120D01*
X85596400Y-44957123D01*
X85526093Y-45173509D01*
X85490500Y-45398231D01*
X85490500Y-45625768D01*
X85526093Y-45850490D01*
X85596400Y-46066876D01*
X85596401Y-46066879D01*
X85699697Y-46269607D01*
X85833434Y-46453680D01*
X85994320Y-46614566D01*
X86025886Y-46637500D01*
X86086697Y-46681682D01*
X86129362Y-46737013D01*
X86135341Y-46806626D01*
X86102735Y-46868421D01*
X86086697Y-46882318D01*
X85994318Y-46949435D01*
X85833436Y-47110317D01*
X85833436Y-47110318D01*
X85833434Y-47110320D01*
X85833430Y-47110326D01*
X85699697Y-47294392D01*
X85596401Y-47497120D01*
X85596400Y-47497123D01*
X85526093Y-47713509D01*
X85490500Y-47938231D01*
X85490500Y-48165768D01*
X85526093Y-48390490D01*
X85596400Y-48606876D01*
X85596401Y-48606879D01*
X85643697Y-48699701D01*
X85699697Y-48809607D01*
X85833434Y-48993680D01*
X85994320Y-49154566D01*
X86178393Y-49288303D01*
X86227074Y-49313107D01*
X86381120Y-49391598D01*
X86381123Y-49391599D01*
X86489316Y-49426752D01*
X86597511Y-49461907D01*
X86701591Y-49478391D01*
X86822232Y-49497500D01*
X86822237Y-49497500D01*
X87049768Y-49497500D01*
X87158710Y-49480244D01*
X87274489Y-49461907D01*
X87490879Y-49391598D01*
X87693607Y-49288303D01*
X87877680Y-49154566D01*
X88038566Y-48993680D01*
X88172303Y-48809607D01*
X88275598Y-48606879D01*
X88345907Y-48390489D01*
X88364244Y-48274710D01*
X88381500Y-48165768D01*
X88381500Y-47938231D01*
X88360793Y-47807499D01*
X88345907Y-47713511D01*
X88275598Y-47497121D01*
X88275598Y-47497120D01*
X88180481Y-47310444D01*
X88172303Y-47294393D01*
X88038566Y-47110320D01*
X87877680Y-46949434D01*
X87813519Y-46902818D01*
X87785302Y-46882317D01*
X87768124Y-46860039D01*
X87748517Y-46839863D01*
X87747073Y-46832740D01*
X87742637Y-46826986D01*
X87740229Y-46798959D01*
X87734643Y-46771384D01*
X87737279Y-46764612D01*
X87736658Y-46757373D01*
X87749786Y-46732492D01*
X87759994Y-46706276D01*
X87767434Y-46699045D01*
X87769264Y-46695578D01*
X87785295Y-46681687D01*
X87813521Y-46661179D01*
X87879328Y-46637702D01*
X87886404Y-46637500D01*
X90721941Y-46637500D01*
X90788980Y-46657185D01*
X90809622Y-46673819D01*
X93974181Y-49838378D01*
X94007666Y-49899701D01*
X94010500Y-49926059D01*
X94010500Y-65241940D01*
X93990815Y-65308979D01*
X93938011Y-65354734D01*
X93868853Y-65364678D01*
X93805297Y-65335653D01*
X93798819Y-65329621D01*
X90295214Y-61826017D01*
X90295211Y-61826014D01*
X90295206Y-61826010D01*
X90151893Y-61721888D01*
X90151892Y-61721887D01*
X90151890Y-61721886D01*
X90101320Y-61696119D01*
X89994042Y-61641457D01*
X89994039Y-61641456D01*
X89825557Y-61586714D01*
X89738067Y-61572857D01*
X89650579Y-61559000D01*
X89650578Y-61559000D01*
X88313230Y-61559000D01*
X88246191Y-61539315D01*
X88225549Y-61522681D01*
X88099657Y-61396789D01*
X88099656Y-61396788D01*
X88006888Y-61339569D01*
X87950336Y-61304687D01*
X87950331Y-61304685D01*
X87913242Y-61292395D01*
X87783797Y-61249501D01*
X87783795Y-61249500D01*
X87681010Y-61239000D01*
X86190998Y-61239000D01*
X86190981Y-61239001D01*
X86088203Y-61249500D01*
X86088200Y-61249501D01*
X85921668Y-61304685D01*
X85921663Y-61304687D01*
X85772342Y-61396789D01*
X85648289Y-61520842D01*
X85556187Y-61670163D01*
X85556186Y-61670166D01*
X85501001Y-61836703D01*
X85501001Y-61836704D01*
X85501000Y-61836704D01*
X85490500Y-61939483D01*
X85490500Y-63429501D01*
X85490501Y-63429518D01*
X85501000Y-63532296D01*
X85501001Y-63532299D01*
X85556185Y-63698831D01*
X85556186Y-63698834D01*
X85647154Y-63846318D01*
X85648289Y-63848157D01*
X85772344Y-63972212D01*
X85868764Y-64031684D01*
X85915489Y-64083632D01*
X85926712Y-64152594D01*
X85898868Y-64216677D01*
X85891350Y-64224904D01*
X85833433Y-64282820D01*
X85699697Y-64466892D01*
X85596401Y-64669620D01*
X85596400Y-64669623D01*
X85526093Y-64886009D01*
X85490500Y-65110731D01*
X85490500Y-65338268D01*
X85526093Y-65562990D01*
X85596400Y-65779376D01*
X85596401Y-65779379D01*
X85661500Y-65907141D01*
X85699697Y-65982107D01*
X85833434Y-66166180D01*
X85994320Y-66327066D01*
X86025886Y-66350000D01*
X86086697Y-66394182D01*
X86129362Y-66449513D01*
X86135341Y-66519126D01*
X86102735Y-66580921D01*
X86086697Y-66594818D01*
X85994318Y-66661935D01*
X85833436Y-66822817D01*
X85833436Y-66822818D01*
X85833434Y-66822820D01*
X85775998Y-66901872D01*
X85699697Y-67006892D01*
X85596401Y-67209620D01*
X85596400Y-67209623D01*
X85526093Y-67426009D01*
X85490500Y-67650731D01*
X85490500Y-67878268D01*
X85526093Y-68102990D01*
X85596400Y-68319376D01*
X85596401Y-68319379D01*
X85661500Y-68447141D01*
X85699697Y-68522107D01*
X85833434Y-68706180D01*
X85994320Y-68867066D01*
X86178393Y-69000803D01*
X86227961Y-69026059D01*
X86381120Y-69104098D01*
X86381123Y-69104099D01*
X86489316Y-69139252D01*
X86597511Y-69174407D01*
X86701591Y-69190891D01*
X86822232Y-69210000D01*
X86822237Y-69210000D01*
X87049768Y-69210000D01*
X87158710Y-69192744D01*
X87274489Y-69174407D01*
X87490879Y-69104098D01*
X87693607Y-69000803D01*
X87877680Y-68867066D01*
X88038566Y-68706180D01*
X88172303Y-68522107D01*
X88275598Y-68319379D01*
X88345907Y-68102989D01*
X88364244Y-67987210D01*
X88381500Y-67878268D01*
X88381500Y-67650731D01*
X88360793Y-67519999D01*
X88345907Y-67426011D01*
X88275598Y-67209621D01*
X88275598Y-67209620D01*
X88222966Y-67106325D01*
X88172303Y-67006893D01*
X88038566Y-66822820D01*
X87877680Y-66661934D01*
X87813519Y-66615318D01*
X87785302Y-66594817D01*
X87768124Y-66572539D01*
X87748517Y-66552363D01*
X87747073Y-66545240D01*
X87742637Y-66539486D01*
X87740229Y-66511459D01*
X87734643Y-66483884D01*
X87737279Y-66477112D01*
X87736658Y-66469873D01*
X87749786Y-66444992D01*
X87759994Y-66418776D01*
X87767434Y-66411545D01*
X87769264Y-66408078D01*
X87785295Y-66394187D01*
X87813521Y-66373679D01*
X87879328Y-66350202D01*
X87886404Y-66350000D01*
X88234441Y-66350000D01*
X88301480Y-66369685D01*
X88322122Y-66386319D01*
X90874181Y-68938378D01*
X90907666Y-68999701D01*
X90910500Y-69026059D01*
X90910500Y-96704441D01*
X90890815Y-96771480D01*
X90874181Y-96792122D01*
X89873181Y-97793122D01*
X89811858Y-97826607D01*
X89742166Y-97821623D01*
X89686233Y-97779751D01*
X89661816Y-97714287D01*
X89661500Y-97705441D01*
X89661500Y-86319921D01*
X89646714Y-86226569D01*
X89633786Y-86144945D01*
X89625655Y-86119921D01*
X89622715Y-86110874D01*
X89579044Y-85976463D01*
X89579042Y-85976457D01*
X89498614Y-85818610D01*
X89467989Y-85776458D01*
X89394484Y-85675286D01*
X88142569Y-84423372D01*
X88129935Y-84408579D01*
X88038568Y-84282823D01*
X88038566Y-84282820D01*
X87980650Y-84224904D01*
X87947165Y-84163581D01*
X87952149Y-84093889D01*
X87994021Y-84037956D01*
X88003225Y-84031690D01*
X88099656Y-83972212D01*
X88223712Y-83848156D01*
X88315814Y-83698834D01*
X88370999Y-83532297D01*
X88381500Y-83429509D01*
X88381499Y-81939492D01*
X88370999Y-81836703D01*
X88315814Y-81670166D01*
X88223712Y-81520844D01*
X88099656Y-81396788D01*
X88006888Y-81339569D01*
X87950336Y-81304687D01*
X87950331Y-81304685D01*
X87913242Y-81292395D01*
X87783797Y-81249501D01*
X87783795Y-81249500D01*
X87681010Y-81239000D01*
X86190998Y-81239000D01*
X86190981Y-81239001D01*
X86088203Y-81249500D01*
X86088200Y-81249501D01*
X85921668Y-81304685D01*
X85921663Y-81304687D01*
X85772342Y-81396789D01*
X85648289Y-81520842D01*
X85556187Y-81670163D01*
X85556186Y-81670166D01*
X85501001Y-81836703D01*
X85501001Y-81836704D01*
X85501000Y-81836704D01*
X85490500Y-81939483D01*
X85490500Y-83429501D01*
X85490501Y-83429518D01*
X85501000Y-83532296D01*
X85501001Y-83532299D01*
X85556185Y-83698831D01*
X85556187Y-83698836D01*
X85648289Y-83848157D01*
X85772344Y-83972212D01*
X85868764Y-84031684D01*
X85915489Y-84083632D01*
X85926712Y-84152594D01*
X85898868Y-84216677D01*
X85891350Y-84224904D01*
X85833433Y-84282820D01*
X85699697Y-84466892D01*
X85596401Y-84669620D01*
X85596400Y-84669623D01*
X85526093Y-84886009D01*
X85490500Y-85110731D01*
X85490500Y-85338268D01*
X85526093Y-85562990D01*
X85596400Y-85779376D01*
X85596401Y-85779379D01*
X85696816Y-85976452D01*
X85699697Y-85982107D01*
X85833434Y-86166180D01*
X85994320Y-86327066D01*
X86070992Y-86382772D01*
X86086697Y-86394182D01*
X86129362Y-86449513D01*
X86135341Y-86519126D01*
X86102735Y-86580921D01*
X86086697Y-86594818D01*
X85994318Y-86661935D01*
X85833436Y-86822817D01*
X85833436Y-86822818D01*
X85833434Y-86822820D01*
X85775998Y-86901872D01*
X85699697Y-87006892D01*
X85596401Y-87209620D01*
X85596400Y-87209623D01*
X85526093Y-87426009D01*
X85490500Y-87650731D01*
X85490500Y-87878268D01*
X85526093Y-88102990D01*
X85596400Y-88319376D01*
X85596401Y-88319379D01*
X85696985Y-88516784D01*
X85710500Y-88573079D01*
X85710500Y-102844628D01*
X85690815Y-102911667D01*
X85638011Y-102957422D01*
X85584867Y-102966823D01*
X85584867Y-102968500D01*
X85332000Y-102968500D01*
X85087072Y-103007293D01*
X84851215Y-103083928D01*
X84630257Y-103196511D01*
X84515792Y-103279675D01*
X84429630Y-103342276D01*
X84429628Y-103342278D01*
X84429627Y-103342278D01*
X84254278Y-103517627D01*
X84254278Y-103517628D01*
X84254276Y-103517630D01*
X84230567Y-103550263D01*
X84176318Y-103624930D01*
X84120988Y-103667595D01*
X84051374Y-103673574D01*
X83989579Y-103640968D01*
X83975682Y-103624930D01*
X83897724Y-103517630D01*
X83722370Y-103342276D01*
X83521742Y-103196511D01*
X83300782Y-103083927D01*
X83064931Y-103007294D01*
X83064929Y-103007293D01*
X83064927Y-103007293D01*
X82820000Y-102968500D01*
X82819995Y-102968500D01*
X82572005Y-102968500D01*
X82572000Y-102968500D01*
X82327072Y-103007293D01*
X82091215Y-103083928D01*
X81870257Y-103196511D01*
X81755792Y-103279675D01*
X81669630Y-103342276D01*
X81669628Y-103342278D01*
X81669627Y-103342278D01*
X81494278Y-103517627D01*
X81494278Y-103517628D01*
X81494276Y-103517630D01*
X81470567Y-103550263D01*
X81416318Y-103624930D01*
X81360988Y-103667595D01*
X81291374Y-103673574D01*
X81229579Y-103640968D01*
X81215682Y-103624930D01*
X81137724Y-103517630D01*
X80962370Y-103342276D01*
X80761742Y-103196511D01*
X80540782Y-103083927D01*
X80304931Y-103007294D01*
X80304929Y-103007293D01*
X80304927Y-103007293D01*
X80060000Y-102968500D01*
X80059995Y-102968500D01*
X79812005Y-102968500D01*
X79812000Y-102968500D01*
X79567072Y-103007293D01*
X79331215Y-103083928D01*
X79110257Y-103196511D01*
X78995792Y-103279675D01*
X78909630Y-103342276D01*
X78909628Y-103342278D01*
X78909627Y-103342278D01*
X78734278Y-103517627D01*
X78734278Y-103517628D01*
X78734276Y-103517630D01*
X78710567Y-103550263D01*
X78656318Y-103624930D01*
X78600988Y-103667595D01*
X78531374Y-103673574D01*
X78469579Y-103640968D01*
X78455682Y-103624930D01*
X78377724Y-103517630D01*
X78202370Y-103342276D01*
X78001742Y-103196511D01*
X77780782Y-103083927D01*
X77544931Y-103007294D01*
X77544929Y-103007293D01*
X77544927Y-103007293D01*
X77300000Y-102968500D01*
X77299995Y-102968500D01*
X77052005Y-102968500D01*
X77052000Y-102968500D01*
X76807072Y-103007293D01*
X76571215Y-103083928D01*
X76350257Y-103196511D01*
X76235792Y-103279675D01*
X76149630Y-103342276D01*
X76149628Y-103342278D01*
X76149627Y-103342278D01*
X75974278Y-103517627D01*
X75974278Y-103517628D01*
X75974276Y-103517630D01*
X75950567Y-103550263D01*
X75896318Y-103624930D01*
X75840988Y-103667595D01*
X75771374Y-103673574D01*
X75709579Y-103640968D01*
X75695682Y-103624930D01*
X75617724Y-103517630D01*
X75442370Y-103342276D01*
X75241742Y-103196511D01*
X75020782Y-103083927D01*
X74784931Y-103007294D01*
X74784929Y-103007293D01*
X74784927Y-103007293D01*
X74540000Y-102968500D01*
X74539995Y-102968500D01*
X74292005Y-102968500D01*
X74287133Y-102968500D01*
X74287133Y-102966553D01*
X74226817Y-102953863D01*
X74177076Y-102904796D01*
X74161500Y-102844628D01*
X74161500Y-88573079D01*
X74175015Y-88516784D01*
X74275598Y-88319379D01*
X74275599Y-88319376D01*
X74278133Y-88311575D01*
X74345907Y-88102989D01*
X74364244Y-87987210D01*
X74381500Y-87878268D01*
X74381500Y-87650731D01*
X74360793Y-87519999D01*
X74345907Y-87426011D01*
X74275598Y-87209621D01*
X74275598Y-87209620D01*
X74222966Y-87106325D01*
X74172303Y-87006893D01*
X74038566Y-86822820D01*
X73877680Y-86661934D01*
X73785303Y-86594818D01*
X73742637Y-86539488D01*
X73736658Y-86469875D01*
X73769264Y-86408080D01*
X73785303Y-86394182D01*
X73795465Y-86386798D01*
X73877680Y-86327066D01*
X74038566Y-86166180D01*
X74172303Y-85982107D01*
X74275598Y-85779379D01*
X74345907Y-85562989D01*
X74364244Y-85447210D01*
X74381500Y-85338268D01*
X74381500Y-85110731D01*
X74360793Y-84979999D01*
X74345907Y-84886011D01*
X74275598Y-84669621D01*
X74275598Y-84669620D01*
X74222966Y-84566325D01*
X74172303Y-84466893D01*
X74038566Y-84282820D01*
X73980650Y-84224904D01*
X73947165Y-84163581D01*
X73952149Y-84093889D01*
X73994021Y-84037956D01*
X74003225Y-84031690D01*
X74099656Y-83972212D01*
X74223712Y-83848156D01*
X74315814Y-83698834D01*
X74370999Y-83532297D01*
X74381500Y-83429509D01*
X74381499Y-81939492D01*
X74370999Y-81836703D01*
X74315814Y-81670166D01*
X74223712Y-81520844D01*
X74099656Y-81396788D01*
X74006888Y-81339569D01*
X73950336Y-81304687D01*
X73950331Y-81304685D01*
X73913242Y-81292395D01*
X73783797Y-81249501D01*
X73783795Y-81249500D01*
X73681010Y-81239000D01*
X72190998Y-81239000D01*
X72190981Y-81239001D01*
X72088203Y-81249500D01*
X72088200Y-81249501D01*
X71921668Y-81304685D01*
X71921663Y-81304687D01*
X71772342Y-81396789D01*
X71648289Y-81520842D01*
X71556187Y-81670163D01*
X71556186Y-81670166D01*
X71501001Y-81836703D01*
X71501001Y-81836704D01*
X71501000Y-81836704D01*
X71490500Y-81939483D01*
X71490500Y-83429501D01*
X71490501Y-83429518D01*
X71501000Y-83532296D01*
X71501001Y-83532299D01*
X71556185Y-83698831D01*
X71556187Y-83698836D01*
X71648289Y-83848157D01*
X71772344Y-83972212D01*
X71868764Y-84031684D01*
X71915489Y-84083632D01*
X71926712Y-84152594D01*
X71898868Y-84216677D01*
X71891350Y-84224904D01*
X71833433Y-84282821D01*
X71742066Y-84408577D01*
X71729429Y-84423372D01*
X70602786Y-85550017D01*
X70477519Y-85675283D01*
X70477519Y-85675284D01*
X70477517Y-85675286D01*
X70450696Y-85712202D01*
X70373386Y-85818609D01*
X70336814Y-85890387D01*
X70336813Y-85890388D01*
X70292959Y-85976452D01*
X70292955Y-85976463D01*
X70246345Y-86119917D01*
X70246346Y-86119918D01*
X70238213Y-86144949D01*
X70210500Y-86319921D01*
X70210500Y-97705441D01*
X70190815Y-97772480D01*
X70138011Y-97818235D01*
X70068853Y-97828179D01*
X70005297Y-97799154D01*
X69998819Y-97793122D01*
X68997819Y-96792122D01*
X68964334Y-96730799D01*
X68961500Y-96704441D01*
X68961500Y-69026059D01*
X68981185Y-68959020D01*
X68997819Y-68938378D01*
X71549878Y-66386319D01*
X71611201Y-66352834D01*
X71637559Y-66350000D01*
X71985596Y-66350000D01*
X72006016Y-66355996D01*
X72027265Y-66357211D01*
X72048737Y-66368540D01*
X72052635Y-66369685D01*
X72058479Y-66373680D01*
X72086695Y-66394180D01*
X72129362Y-66449510D01*
X72135341Y-66519123D01*
X72102736Y-66580918D01*
X72086698Y-66594816D01*
X71994320Y-66661933D01*
X71833436Y-66822817D01*
X71833436Y-66822818D01*
X71833434Y-66822820D01*
X71775998Y-66901872D01*
X71699697Y-67006892D01*
X71596401Y-67209620D01*
X71596400Y-67209623D01*
X71526093Y-67426009D01*
X71490500Y-67650731D01*
X71490500Y-67878268D01*
X71526093Y-68102990D01*
X71596400Y-68319376D01*
X71596401Y-68319379D01*
X71661500Y-68447141D01*
X71699697Y-68522107D01*
X71833434Y-68706180D01*
X71994320Y-68867066D01*
X72178393Y-69000803D01*
X72227961Y-69026059D01*
X72381120Y-69104098D01*
X72381123Y-69104099D01*
X72489316Y-69139252D01*
X72597511Y-69174407D01*
X72701591Y-69190891D01*
X72822232Y-69210000D01*
X72822237Y-69210000D01*
X73049768Y-69210000D01*
X73158710Y-69192744D01*
X73274489Y-69174407D01*
X73490879Y-69104098D01*
X73693607Y-69000803D01*
X73877680Y-68867066D01*
X74038566Y-68706180D01*
X74172303Y-68522107D01*
X74275598Y-68319379D01*
X74345907Y-68102989D01*
X74364244Y-67987210D01*
X74381500Y-67878268D01*
X74381500Y-67650731D01*
X74360793Y-67519999D01*
X74345907Y-67426011D01*
X74275598Y-67209621D01*
X74275598Y-67209620D01*
X74222966Y-67106325D01*
X74172303Y-67006893D01*
X74038566Y-66822820D01*
X73877680Y-66661934D01*
X73785303Y-66594818D01*
X73742637Y-66539488D01*
X73736658Y-66469875D01*
X73769264Y-66408080D01*
X73785303Y-66394182D01*
X73813517Y-66373683D01*
X73877680Y-66327066D01*
X74038566Y-66166180D01*
X74172303Y-65982107D01*
X74275598Y-65779379D01*
X74345907Y-65562989D01*
X74364244Y-65447210D01*
X74381500Y-65338268D01*
X74381500Y-65110731D01*
X74360793Y-64979999D01*
X74345907Y-64886011D01*
X74275598Y-64669621D01*
X74275598Y-64669620D01*
X74222966Y-64566325D01*
X74172303Y-64466893D01*
X74038566Y-64282820D01*
X73980650Y-64224904D01*
X73947165Y-64163581D01*
X73952149Y-64093889D01*
X73994021Y-64037956D01*
X74003225Y-64031690D01*
X74099656Y-63972212D01*
X74223712Y-63848156D01*
X74315814Y-63698834D01*
X74370999Y-63532297D01*
X74381500Y-63429509D01*
X74381499Y-61939492D01*
X74370999Y-61836703D01*
X74315814Y-61670166D01*
X74223712Y-61520844D01*
X74099656Y-61396788D01*
X74006888Y-61339569D01*
X73950336Y-61304687D01*
X73950331Y-61304685D01*
X73913242Y-61292395D01*
X73783797Y-61249501D01*
X73783795Y-61249500D01*
X73681010Y-61239000D01*
X72190998Y-61239000D01*
X72190981Y-61239001D01*
X72088203Y-61249500D01*
X72088200Y-61249501D01*
X71921668Y-61304685D01*
X71921663Y-61304687D01*
X71772342Y-61396789D01*
X71646451Y-61522681D01*
X71585128Y-61556166D01*
X71558770Y-61559000D01*
X70221421Y-61559000D01*
X70163095Y-61568238D01*
X70046443Y-61586714D01*
X69877960Y-61641456D01*
X69877957Y-61641457D01*
X69720110Y-61721885D01*
X69576785Y-61826016D01*
X66073181Y-65329621D01*
X66011858Y-65363106D01*
X65942166Y-65358122D01*
X65886233Y-65316250D01*
X65861816Y-65250786D01*
X65861500Y-65241940D01*
X65861500Y-49926059D01*
X65881185Y-49859020D01*
X65897819Y-49838378D01*
X69062378Y-46673819D01*
X69123701Y-46640334D01*
X69150059Y-46637500D01*
X71985596Y-46637500D01*
X72006016Y-46643496D01*
X72027265Y-46644711D01*
X72048737Y-46656040D01*
X72052635Y-46657185D01*
X72058479Y-46661180D01*
X72086695Y-46681680D01*
X72129362Y-46737010D01*
X72135341Y-46806623D01*
X72102736Y-46868418D01*
X72086698Y-46882316D01*
X71994320Y-46949433D01*
X71833436Y-47110317D01*
X71833436Y-47110318D01*
X71833434Y-47110320D01*
X71833430Y-47110326D01*
X71699697Y-47294392D01*
X71596401Y-47497120D01*
X71596400Y-47497123D01*
X71526093Y-47713509D01*
X71490500Y-47938231D01*
X71490500Y-48165768D01*
X71526093Y-48390490D01*
X71596400Y-48606876D01*
X71596401Y-48606879D01*
X71643697Y-48699701D01*
X71699697Y-48809607D01*
X71833434Y-48993680D01*
X71994320Y-49154566D01*
X72178393Y-49288303D01*
X72227074Y-49313107D01*
X72381120Y-49391598D01*
X72381123Y-49391599D01*
X72489316Y-49426752D01*
X72597511Y-49461907D01*
X72701591Y-49478391D01*
X72822232Y-49497500D01*
X72822237Y-49497500D01*
X73049768Y-49497500D01*
X73158710Y-49480244D01*
X73274489Y-49461907D01*
X73490879Y-49391598D01*
X73693607Y-49288303D01*
X73877680Y-49154566D01*
X74038566Y-48993680D01*
X74172303Y-48809607D01*
X74275598Y-48606879D01*
X74345907Y-48390489D01*
X74364244Y-48274710D01*
X74381500Y-48165768D01*
X74381500Y-47938231D01*
X74360793Y-47807499D01*
X74345907Y-47713511D01*
X74275598Y-47497121D01*
X74275598Y-47497120D01*
X74180481Y-47310444D01*
X74172303Y-47294393D01*
X74038566Y-47110320D01*
X73877680Y-46949434D01*
X73845836Y-46926298D01*
X73785303Y-46882318D01*
X73742637Y-46826988D01*
X73736658Y-46757375D01*
X73769264Y-46695580D01*
X73785303Y-46681682D01*
X73813517Y-46661183D01*
X73877680Y-46614566D01*
X74038566Y-46453680D01*
X74172303Y-46269607D01*
X74275598Y-46066879D01*
X74345907Y-45850489D01*
X74364244Y-45734710D01*
X74381500Y-45625768D01*
X74381500Y-45398231D01*
X74360793Y-45267499D01*
X74345907Y-45173511D01*
X74275598Y-44957121D01*
X74275598Y-44957120D01*
X74172302Y-44754392D01*
X74038566Y-44570320D01*
X73980650Y-44512404D01*
X73947165Y-44451081D01*
X73952149Y-44381389D01*
X73994021Y-44325456D01*
X74003225Y-44319190D01*
X74099656Y-44259712D01*
X74223712Y-44135656D01*
X74315814Y-43986334D01*
X74370999Y-43819797D01*
X74381500Y-43717009D01*
X74381499Y-42226992D01*
X74370999Y-42124203D01*
X74315814Y-41957666D01*
X74223712Y-41808344D01*
X74099656Y-41684288D01*
X73950334Y-41592186D01*
X73783797Y-41537001D01*
X73783795Y-41537000D01*
X73681010Y-41526500D01*
X72190998Y-41526500D01*
X72190981Y-41526501D01*
X72088203Y-41537000D01*
X72088200Y-41537001D01*
X71921668Y-41592185D01*
X71921663Y-41592187D01*
X71772342Y-41684289D01*
X71646451Y-41810181D01*
X71585128Y-41843666D01*
X71558770Y-41846500D01*
X68083921Y-41846500D01*
X67996433Y-41860357D01*
X67908942Y-41874214D01*
X67740460Y-41928956D01*
X67740457Y-41928957D01*
X67582610Y-42009385D01*
X67439285Y-42113516D01*
X62602786Y-46950017D01*
X62477519Y-47075283D01*
X62477519Y-47075284D01*
X62477517Y-47075286D01*
X62452059Y-47110326D01*
X62373386Y-47218609D01*
X62359664Y-47245540D01*
X62311689Y-47296335D01*
X62243867Y-47313129D01*
X62177733Y-47290590D01*
X62148862Y-47262129D01*
X62117243Y-47218610D01*
X62038566Y-47110320D01*
X61877680Y-46949434D01*
X61845836Y-46926298D01*
X61785303Y-46882318D01*
X61742637Y-46826988D01*
X61736658Y-46757375D01*
X61769264Y-46695580D01*
X61785303Y-46681682D01*
X61813517Y-46661183D01*
X61877680Y-46614566D01*
X62038566Y-46453680D01*
X62172303Y-46269607D01*
X62275598Y-46066879D01*
X62345907Y-45850489D01*
X62364244Y-45734710D01*
X62381500Y-45625768D01*
X62381500Y-45398231D01*
X62360793Y-45267499D01*
X62345907Y-45173511D01*
X62275598Y-44957121D01*
X62275598Y-44957120D01*
X62172302Y-44754392D01*
X62038566Y-44570320D01*
X61980650Y-44512404D01*
X61947165Y-44451081D01*
X61952149Y-44381389D01*
X61994021Y-44325456D01*
X62003225Y-44319190D01*
X62099656Y-44259712D01*
X62223712Y-44135656D01*
X62315814Y-43986334D01*
X62370999Y-43819797D01*
X62381500Y-43717009D01*
X62381499Y-42226992D01*
X62370999Y-42124203D01*
X62315814Y-41957666D01*
X62223712Y-41808344D01*
X62099656Y-41684288D01*
X61950334Y-41592186D01*
X61783797Y-41537001D01*
X61783795Y-41537000D01*
X61681010Y-41526500D01*
X60190998Y-41526500D01*
X60190981Y-41526501D01*
X60088203Y-41537000D01*
X60088200Y-41537001D01*
X59921668Y-41592185D01*
X59921663Y-41592187D01*
X59772342Y-41684289D01*
X59646451Y-41810181D01*
X59585128Y-41843666D01*
X59558770Y-41846500D01*
X48911079Y-41846500D01*
X48733921Y-41846500D01*
X48675595Y-41855738D01*
X48558942Y-41874214D01*
X48390460Y-41928956D01*
X48390457Y-41928957D01*
X48232609Y-42009386D01*
X48188502Y-42041432D01*
X48144395Y-42073478D01*
X48089289Y-42113514D01*
X48089283Y-42113519D01*
X43927519Y-46275283D01*
X43927519Y-46275284D01*
X43927517Y-46275286D01*
X43882796Y-46336838D01*
X43823386Y-46418609D01*
X43753870Y-46555042D01*
X43742957Y-46576457D01*
X43742956Y-46576460D01*
X43688214Y-46744942D01*
X43667811Y-46873754D01*
X43667799Y-46873830D01*
X43667681Y-46874581D01*
X43660500Y-46919921D01*
X39324000Y-46919921D01*
X39324000Y-43292826D01*
X39343685Y-43225787D01*
X39396489Y-43180032D01*
X39465647Y-43170088D01*
X39529203Y-43199113D01*
X39551099Y-43223931D01*
X39575213Y-43260020D01*
X39608378Y-43309656D01*
X39608385Y-43309665D01*
X39826576Y-43575532D01*
X40069767Y-43818723D01*
X40069772Y-43818727D01*
X40069773Y-43818728D01*
X40335640Y-44036919D01*
X40621613Y-44228000D01*
X40621622Y-44228005D01*
X40621624Y-44228006D01*
X40924930Y-44390127D01*
X40924932Y-44390127D01*
X40924938Y-44390131D01*
X41242695Y-44521750D01*
X41571822Y-44621590D01*
X41909150Y-44688689D01*
X42251431Y-44722400D01*
X42251434Y-44722400D01*
X42595366Y-44722400D01*
X42595369Y-44722400D01*
X42937650Y-44688689D01*
X43274978Y-44621590D01*
X43604105Y-44521750D01*
X43921862Y-44390131D01*
X44225187Y-44228000D01*
X44511160Y-44036919D01*
X44777027Y-43818728D01*
X45020228Y-43575527D01*
X45238419Y-43309660D01*
X45429500Y-43023687D01*
X45591631Y-42720362D01*
X45723250Y-42402605D01*
X45823090Y-42073478D01*
X45890189Y-41736150D01*
X45923900Y-41393869D01*
X45923900Y-41049931D01*
X45905666Y-40864795D01*
X104882697Y-40864795D01*
X106887928Y-40864795D01*
X106887928Y-38402939D01*
X104882697Y-38402939D01*
X104882697Y-40864795D01*
X45905666Y-40864795D01*
X45890189Y-40707650D01*
X45823090Y-40370322D01*
X45723250Y-40041195D01*
X45591631Y-39723438D01*
X45429500Y-39420113D01*
X45238419Y-39134140D01*
X45020228Y-38868273D01*
X45020227Y-38868272D01*
X45020223Y-38868267D01*
X44777032Y-38625076D01*
X44563436Y-38449783D01*
X44511160Y-38406881D01*
X44423462Y-38348283D01*
X44421534Y-38346885D01*
X44401568Y-38321043D01*
X44380631Y-38295990D01*
X44380323Y-38293545D01*
X44378817Y-38291595D01*
X44375991Y-38259054D01*
X44371924Y-38226665D01*
X44372987Y-38224442D01*
X44372774Y-38221987D01*
X44387986Y-38193092D01*
X44402078Y-38163638D01*
X44404174Y-38162342D01*
X44405323Y-38160162D01*
X44433740Y-38144079D01*
X44461521Y-38126918D01*
X44464856Y-38126468D01*
X44466130Y-38125748D01*
X44469006Y-38125909D01*
X44494327Y-38122500D01*
X114727673Y-38122500D01*
X114794712Y-38142185D01*
G37*
G04 #@! TD.AperFunction*
G04 #@! TD*
M02*
