G04 #@! TF.GenerationSoftware,KiCad,Pcbnew,9.0.9.1-1.fc43*
G04 #@! TF.CreationDate,2026-06-11T17:20:55-03:00*
G04 #@! TF.ProjectId,lrfhss-test-board,6c726668-7373-42d7-9465-73742d626f61,v0.0*
G04 #@! TF.SameCoordinates,Original*
G04 #@! TF.FileFunction,Copper,L1,Top*
G04 #@! TF.FilePolarity,Positive*
%FSLAX46Y46*%
G04 Gerber Fmt 4.6, Leading zero omitted, Abs format (unit mm)*
G04 Created by KiCad (PCBNEW 9.0.9.1-1.fc43) date 2026-06-11 17:20:55*
%MOMM*%
%LPD*%
G01*
G04 APERTURE LIST*
G04 Aperture macros list*
%AMRoundRect*
0 Rectangle with rounded corners*
0 $1 Rounding radius*
0 $2 $3 $4 $5 $6 $7 $8 $9 X,Y pos of 4 corners*
0 Add a 4 corners polygon primitive as box body*
4,1,4,$2,$3,$4,$5,$6,$7,$8,$9,$2,$3,0*
0 Add four circle primitives for the rounded corners*
1,1,$1+$1,$2,$3*
1,1,$1+$1,$4,$5*
1,1,$1+$1,$6,$7*
1,1,$1+$1,$8,$9*
0 Add four rect primitives between the rounded corners*
20,1,$1+$1,$2,$3,$4,$5,0*
20,1,$1+$1,$4,$5,$6,$7,0*
20,1,$1+$1,$6,$7,$8,$9,0*
20,1,$1+$1,$8,$9,$2,$3,0*%
G04 Aperture macros list end*
%ADD10C,0.150000*%
G04 #@! TA.AperFunction,NonConductor*
%ADD11C,0.150000*%
G04 #@! TD*
G04 #@! TA.AperFunction,SMDPad,CuDef*
%ADD12RoundRect,0.200000X0.450000X-0.200000X0.450000X0.200000X-0.450000X0.200000X-0.450000X-0.200000X0*%
G04 #@! TD*
G04 #@! TA.AperFunction,SMDPad,CuDef*
%ADD13RoundRect,0.250001X1.249999X-0.799999X1.249999X0.799999X-1.249999X0.799999X-1.249999X-0.799999X0*%
G04 #@! TD*
G04 #@! TA.AperFunction,SMDPad,CuDef*
%ADD14RoundRect,0.250000X1.250000X-0.650000X1.250000X0.650000X-1.250000X0.650000X-1.250000X-0.650000X0*%
G04 #@! TD*
G04 #@! TA.AperFunction,SMDPad,CuDef*
%ADD15RoundRect,0.321429X1.178571X-0.578571X1.178571X0.578571X-1.178571X0.578571X-1.178571X-0.578571X0*%
G04 #@! TD*
G04 #@! TA.AperFunction,ComponentPad*
%ADD16C,5.500000*%
G04 #@! TD*
G04 #@! TA.AperFunction,SMDPad,CuDef*
%ADD17RoundRect,0.225000X-0.250000X0.225000X-0.250000X-0.225000X0.250000X-0.225000X0.250000X0.225000X0*%
G04 #@! TD*
G04 #@! TA.AperFunction,ComponentPad*
%ADD18R,1.530000X1.530000*%
G04 #@! TD*
G04 #@! TA.AperFunction,ComponentPad*
%ADD19C,1.530000*%
G04 #@! TD*
G04 #@! TA.AperFunction,SMDPad,CuDef*
%ADD20RoundRect,0.200000X-0.450000X0.200000X-0.450000X-0.200000X0.450000X-0.200000X0.450000X0.200000X0*%
G04 #@! TD*
G04 #@! TA.AperFunction,SMDPad,CuDef*
%ADD21RoundRect,0.250001X-1.249999X0.799999X-1.249999X-0.799999X1.249999X-0.799999X1.249999X0.799999X0*%
G04 #@! TD*
G04 #@! TA.AperFunction,ComponentPad*
%ADD22C,1.550000*%
G04 #@! TD*
G04 #@! TA.AperFunction,SMDPad,CuDef*
%ADD23RoundRect,0.250000X-0.250000X-0.475000X0.250000X-0.475000X0.250000X0.475000X-0.250000X0.475000X0*%
G04 #@! TD*
G04 #@! TA.AperFunction,ComponentPad*
%ADD24R,1.950000X1.950000*%
G04 #@! TD*
G04 #@! TA.AperFunction,ComponentPad*
%ADD25C,1.950000*%
G04 #@! TD*
G04 #@! TA.AperFunction,SMDPad,CuDef*
%ADD26RoundRect,0.200000X-0.200000X-0.275000X0.200000X-0.275000X0.200000X0.275000X-0.200000X0.275000X0*%
G04 #@! TD*
G04 #@! TA.AperFunction,SMDPad,CuDef*
%ADD27RoundRect,0.375000X-0.375000X0.625000X-0.375000X-0.625000X0.375000X-0.625000X0.375000X0.625000X0*%
G04 #@! TD*
G04 #@! TA.AperFunction,SMDPad,CuDef*
%ADD28RoundRect,0.500000X-1.400000X0.500000X-1.400000X-0.500000X1.400000X-0.500000X1.400000X0.500000X0*%
G04 #@! TD*
G04 #@! TA.AperFunction,SMDPad,CuDef*
%ADD29R,1.450000X0.600000*%
G04 #@! TD*
G04 #@! TA.AperFunction,SMDPad,CuDef*
%ADD30R,1.450000X0.300000*%
G04 #@! TD*
G04 #@! TA.AperFunction,HeatsinkPad*
%ADD31O,2.100000X1.000000*%
G04 #@! TD*
G04 #@! TA.AperFunction,HeatsinkPad*
%ADD32O,1.600000X1.000000*%
G04 #@! TD*
G04 #@! TA.AperFunction,SMDPad,CuDef*
%ADD33R,5.080000X2.286000*%
G04 #@! TD*
G04 #@! TA.AperFunction,SMDPad,CuDef*
%ADD34R,5.080000X2.413000*%
G04 #@! TD*
G04 #@! TA.AperFunction,SMDPad,CuDef*
%ADD35RoundRect,0.218750X0.218750X0.256250X-0.218750X0.256250X-0.218750X-0.256250X0.218750X-0.256250X0*%
G04 #@! TD*
G04 #@! TA.AperFunction,SMDPad,CuDef*
%ADD36RoundRect,0.135000X0.135000X0.185000X-0.135000X0.185000X-0.135000X-0.185000X0.135000X-0.185000X0*%
G04 #@! TD*
G04 #@! TA.AperFunction,SMDPad,CuDef*
%ADD37RoundRect,0.135000X-0.135000X-0.185000X0.135000X-0.185000X0.135000X0.185000X-0.135000X0.185000X0*%
G04 #@! TD*
G04 #@! TA.AperFunction,ComponentPad*
%ADD38R,1.100000X1.100000*%
G04 #@! TD*
G04 #@! TA.AperFunction,ComponentPad*
%ADD39C,1.100000*%
G04 #@! TD*
G04 #@! TA.AperFunction,ViaPad*
%ADD40C,0.650000*%
G04 #@! TD*
G04 #@! TA.AperFunction,ViaPad*
%ADD41C,1.500000*%
G04 #@! TD*
G04 #@! TA.AperFunction,Conductor*
%ADD42C,1.500000*%
G04 #@! TD*
G04 #@! TA.AperFunction,Conductor*
%ADD43C,2.500000*%
G04 #@! TD*
G04 #@! TA.AperFunction,Conductor*
%ADD44C,0.500000*%
G04 #@! TD*
G04 #@! TA.AperFunction,Conductor*
%ADD45C,0.750000*%
G04 #@! TD*
G04 #@! TA.AperFunction,Conductor*
%ADD46C,1.100000*%
G04 #@! TD*
G04 APERTURE END LIST*
D10*
D11*
X91692028Y-45436193D02*
X91349171Y-45436193D01*
X91520600Y-45436193D02*
X91520600Y-44636193D01*
X91520600Y-44636193D02*
X91463457Y-44750478D01*
X91463457Y-44750478D02*
X91406314Y-44826669D01*
X91406314Y-44826669D02*
X91349171Y-44864764D01*
D12*
G04 #@! TO.P,J4,1*
G04 #@! TO.N,/SPI0*
X102681800Y-58258800D03*
G04 #@! TO.P,J4,2*
G04 #@! TO.N,/SPI1*
X102681800Y-57008800D03*
G04 #@! TO.P,J4,3*
G04 #@! TO.N,/SPI2*
X102681800Y-55758800D03*
G04 #@! TO.P,J4,4*
G04 #@! TO.N,/SPI3*
X102681800Y-54508800D03*
D13*
G04 #@! TO.P,J4,5,MNTF*
G04 #@! TO.N,unconnected-(J4-MNTF-Pad5)*
X105431800Y-60808800D03*
G04 #@! TO.P,J4,6,MNTS*
G04 #@! TO.N,unconnected-(J4-MNTS-Pad6)*
X105431800Y-51958800D03*
G04 #@! TD*
D14*
G04 #@! TO.P,U1,1,VCC*
G04 #@! TO.N,VBUS*
X72943200Y-84871800D03*
G04 #@! TO.P,U1,2,GND*
G04 #@! TO.N,GND*
X72943200Y-80871800D03*
G04 #@! TO.P,U1,3,NC*
G04 #@! TO.N,unconnected-(U1-NC-Pad3)*
X72943200Y-76871800D03*
G04 #@! TO.P,U1,4,NC*
G04 #@! TO.N,unconnected-(U1-NC-Pad4)*
X72943200Y-72871800D03*
G04 #@! TO.P,U1,5,~{RESET}*
G04 #@! TO.N,/CTRL0*
X72943200Y-68871800D03*
G04 #@! TO.P,U1,6,BUSY*
G04 #@! TO.N,/CTRL1*
X72943200Y-64871800D03*
G04 #@! TO.P,U1,7,~{NSS}*
G04 #@! TO.N,/SPI3*
X72943200Y-60871800D03*
G04 #@! TO.P,U1,8,GND*
G04 #@! TO.N,GND*
X72943200Y-56871800D03*
G04 #@! TO.P,U1,9,SCK*
G04 #@! TO.N,/SPI2*
X91743200Y-56871800D03*
G04 #@! TO.P,U1,10,MISO*
G04 #@! TO.N,/SPI1*
X91743200Y-60871800D03*
G04 #@! TO.P,U1,11,MOSI*
G04 #@! TO.N,/SPI0*
X91743200Y-64871800D03*
G04 #@! TO.P,U1,12,NC*
G04 #@! TO.N,unconnected-(U1-NC-Pad12)*
X91743200Y-68871800D03*
D15*
G04 #@! TO.P,U1,13,DIO1*
G04 #@! TO.N,/DATA1*
X91743200Y-72871800D03*
D14*
G04 #@! TO.P,U1,14,DIO3*
G04 #@! TO.N,/DATA0*
X91743200Y-76871800D03*
G04 #@! TO.P,U1,15,GND*
G04 #@! TO.N,GND1*
X91743200Y-80871800D03*
G04 #@! TO.P,U1,16,ANT*
G04 #@! TO.N,ANT*
X91743200Y-84871800D03*
G04 #@! TD*
D16*
G04 #@! TO.P,H4,1*
G04 #@! TO.N,unconnected-(H4-Pad1)*
X104568599Y-113994002D03*
G04 #@! TD*
D17*
G04 #@! TO.P,C4,1*
G04 #@! TO.N,GND*
X62709000Y-83321800D03*
G04 #@! TO.P,C4,2*
G04 #@! TO.N,VBUS*
X62709000Y-84871800D03*
G04 #@! TD*
D18*
G04 #@! TO.P,J9,1,Pin_1*
G04 #@! TO.N,/SPI0*
X97481600Y-60193800D03*
D19*
G04 #@! TO.P,J9,2,Pin_2*
G04 #@! TO.N,/SPI1*
X97481600Y-57653800D03*
G04 #@! TO.P,J9,3,Pin_3*
G04 #@! TO.N,/SPI2*
X97481600Y-55113800D03*
G04 #@! TO.P,J9,4,Pin_4*
G04 #@! TO.N,/SPI3*
X97481600Y-52573800D03*
G04 #@! TD*
D20*
G04 #@! TO.P,J2,1*
G04 #@! TO.N,/CTRL1*
X61453501Y-66309800D03*
G04 #@! TO.P,J2,2*
G04 #@! TO.N,/CTRL0*
X61453501Y-67559800D03*
D21*
G04 #@! TO.P,J2,3,MNTF*
G04 #@! TO.N,unconnected-(J2-MNTF-Pad3)*
X58703501Y-63759800D03*
G04 #@! TO.P,J2,4,MNTS*
G04 #@! TO.N,unconnected-(J2-MNTS-Pad4)*
X58703501Y-70109800D03*
G04 #@! TD*
D22*
G04 #@! TO.P,J8,1,Pin_1*
G04 #@! TO.N,/DATA0*
X97608600Y-69927400D03*
G04 #@! TO.P,J8,2,Pin_2*
G04 #@! TO.N,/DATA1*
X97608600Y-67387400D03*
G04 #@! TD*
D23*
G04 #@! TO.P,C2,1*
G04 #@! TO.N,GND*
X78739500Y-112066400D03*
G04 #@! TO.P,C2,2*
G04 #@! TO.N,3V3*
X80639500Y-112066400D03*
G04 #@! TD*
D24*
G04 #@! TO.P,J10,1,Pin_1*
G04 #@! TO.N,3V3*
X73859600Y-111837400D03*
D25*
G04 #@! TO.P,J10,2,Pin_2*
G04 #@! TO.N,GND*
X68859600Y-111837400D03*
G04 #@! TD*
D26*
G04 #@! TO.P,R4,1*
G04 #@! TO.N,Net-(D1-A)*
X58289200Y-93397000D03*
G04 #@! TO.P,R4,2*
G04 #@! TO.N,VBUS*
X59939200Y-93397000D03*
G04 #@! TD*
D27*
G04 #@! TO.P,U2,1,GND*
G04 #@! TO.N,GND*
X88159800Y-108306800D03*
G04 #@! TO.P,U2,2,VO*
G04 #@! TO.N,3V3*
X85859800Y-108306800D03*
D28*
X85859800Y-114606800D03*
D27*
G04 #@! TO.P,U2,3,VI*
G04 #@! TO.N,VBUS*
X83559800Y-108306800D03*
G04 #@! TD*
D12*
G04 #@! TO.P,J3,1*
G04 #@! TO.N,/DATA0*
X102681800Y-69282400D03*
G04 #@! TO.P,J3,2*
G04 #@! TO.N,/DATA1*
X102681800Y-68032400D03*
D13*
G04 #@! TO.P,J3,3,MNTF*
G04 #@! TO.N,unconnected-(J3-MNTF-Pad3)*
X105431800Y-71832400D03*
G04 #@! TO.P,J3,4,MNTS*
G04 #@! TO.N,unconnected-(J3-MNTS-Pad4)*
X105431800Y-65482400D03*
G04 #@! TD*
D29*
G04 #@! TO.P,J1,A1,GND*
G04 #@! TO.N,GND*
X64772800Y-98019000D03*
G04 #@! TO.P,J1,A4,VBUS*
G04 #@! TO.N,VBUS*
X64772800Y-98819000D03*
D30*
G04 #@! TO.P,J1,A5,CC1*
G04 #@! TO.N,Net-(J1-CC1)*
X64772800Y-100019000D03*
G04 #@! TO.P,J1,A6,D+*
G04 #@! TO.N,unconnected-(J1-D+-PadA6)*
X64772800Y-101019000D03*
G04 #@! TO.P,J1,A7,D-*
G04 #@! TO.N,unconnected-(J1-D--PadA7)*
X64772800Y-101519000D03*
G04 #@! TO.P,J1,A8,SBU1*
G04 #@! TO.N,unconnected-(J1-SBU1-PadA8)*
X64772800Y-102519000D03*
D29*
G04 #@! TO.P,J1,A9,VBUS*
G04 #@! TO.N,VBUS*
X64772800Y-103719000D03*
G04 #@! TO.P,J1,A12,GND*
G04 #@! TO.N,GND*
X64772800Y-104519000D03*
G04 #@! TO.P,J1,B1,GND*
X64772800Y-104519000D03*
G04 #@! TO.P,J1,B4,VBUS*
G04 #@! TO.N,VBUS*
X64772800Y-103719000D03*
D30*
G04 #@! TO.P,J1,B5,CC2*
G04 #@! TO.N,Net-(J1-CC2)*
X64772800Y-103019000D03*
G04 #@! TO.P,J1,B6,D+*
G04 #@! TO.N,unconnected-(J1-D+-PadB6)*
X64772800Y-102019000D03*
G04 #@! TO.P,J1,B7,D-*
G04 #@! TO.N,unconnected-(J1-D--PadB7)*
X64772800Y-100519000D03*
G04 #@! TO.P,J1,B8,SBU2*
G04 #@! TO.N,unconnected-(J1-SBU2-PadB8)*
X64772800Y-99519000D03*
D29*
G04 #@! TO.P,J1,B9,VBUS*
G04 #@! TO.N,VBUS*
X64772800Y-98819000D03*
G04 #@! TO.P,J1,B12,GND*
G04 #@! TO.N,GND*
X64772800Y-98019000D03*
D31*
G04 #@! TO.P,J1,S1,SHIELD*
G04 #@! TO.N,Net-(J1-SHIELD)*
X63857800Y-96949000D03*
D32*
X59677800Y-96949000D03*
D31*
X63857800Y-105589000D03*
D32*
X59677800Y-105589000D03*
G04 #@! TD*
D33*
G04 #@! TO.P,J5,1*
G04 #@! TO.N,ANT*
X103603000Y-84871800D03*
D34*
G04 #@! TO.P,J5,S1*
G04 #@! TO.N,GND1*
X103603000Y-80490300D03*
G04 #@! TO.P,J5,S2*
X103603000Y-89253300D03*
G04 #@! TD*
D35*
G04 #@! TO.P,D1,1,K*
G04 #@! TO.N,GND*
X59864200Y-91517400D03*
G04 #@! TO.P,D1,2,A*
G04 #@! TO.N,Net-(D1-A)*
X58289200Y-91517400D03*
G04 #@! TD*
D36*
G04 #@! TO.P,R3,1*
G04 #@! TO.N,GND*
X68197400Y-100019000D03*
G04 #@! TO.P,R3,2*
G04 #@! TO.N,Net-(J1-CC1)*
X67177400Y-100019000D03*
G04 #@! TD*
D37*
G04 #@! TO.P,R1,1*
G04 #@! TO.N,GND*
X62837800Y-107665100D03*
G04 #@! TO.P,R1,2*
G04 #@! TO.N,Net-(J1-SHIELD)*
X63857800Y-107665100D03*
G04 #@! TD*
D16*
G04 #@! TO.P,H2,1*
G04 #@! TO.N,unconnected-(H2-Pad1)*
X104568600Y-46965798D03*
G04 #@! TD*
D24*
G04 #@! TO.P,J11,1,Pin_1*
G04 #@! TO.N,VBUS*
X102434600Y-100117200D03*
D25*
G04 #@! TO.P,J11,2,Pin_2*
G04 #@! TO.N,GND*
X102434600Y-105117200D03*
G04 #@! TD*
D22*
G04 #@! TO.P,J7,1,Pin_1*
G04 #@! TO.N,/CTRL1*
X67027000Y-65664800D03*
G04 #@! TO.P,J7,2,Pin_2*
G04 #@! TO.N,/CTRL0*
X67027000Y-68204800D03*
G04 #@! TD*
D23*
G04 #@! TO.P,C1,1*
G04 #@! TO.N,GND*
X78739500Y-108306800D03*
G04 #@! TO.P,C1,2*
G04 #@! TO.N,VBUS*
X80639500Y-108306800D03*
G04 #@! TD*
D36*
G04 #@! TO.P,R2,1*
G04 #@! TO.N,GND*
X68199400Y-103019000D03*
G04 #@! TO.P,R2,2*
G04 #@! TO.N,Net-(J1-CC2)*
X67179400Y-103019000D03*
G04 #@! TD*
D38*
G04 #@! TO.P,C3,1*
G04 #@! TO.N,VBUS*
X67408000Y-84871800D03*
D39*
G04 #@! TO.P,C3,2*
G04 #@! TO.N,GND*
X67408000Y-82871800D03*
G04 #@! TD*
D16*
G04 #@! TO.P,H1,1*
G04 #@! TO.N,unconnected-(H1-Pad1)*
X59568400Y-46965798D03*
G04 #@! TD*
G04 #@! TO.P,H3,1*
G04 #@! TO.N,unconnected-(H3-Pad1)*
X59568400Y-113994100D03*
G04 #@! TD*
D40*
G04 #@! TO.N,VBUS*
X75967800Y-104954000D03*
X66671400Y-98819000D03*
D41*
G04 #@! TO.N,GND*
X71345000Y-96648200D03*
X70726500Y-108840200D03*
X71345000Y-94781300D03*
X95246400Y-108840200D03*
X71345000Y-92914400D03*
X72593400Y-108840200D03*
X67458800Y-54433400D03*
X67458800Y-56300300D03*
X98980200Y-108840200D03*
X97113300Y-108840200D03*
X67458800Y-58167200D03*
X77466400Y-79004900D03*
X77466400Y-80871800D03*
X68859600Y-108840200D03*
X77466400Y-82738700D03*
G04 #@! TD*
D42*
G04 #@! TO.N,VBUS*
X83559800Y-106653200D02*
X81860600Y-104954000D01*
D43*
X75967800Y-90252000D02*
X74494600Y-88778800D01*
D42*
X74494600Y-86423200D02*
X74494600Y-88778800D01*
X75967800Y-104954000D02*
X75967800Y-102185400D01*
X62709000Y-88347000D02*
X63140800Y-88778800D01*
X67408000Y-88601000D02*
X67585800Y-88778800D01*
X81860600Y-104954000D02*
X97597800Y-104954000D01*
D44*
X66671400Y-95530600D02*
X66671400Y-98819000D01*
D43*
X75967800Y-102185400D02*
X75967800Y-90252000D01*
D42*
X83559800Y-108306800D02*
X83559800Y-106653200D01*
D44*
X65842800Y-103719000D02*
X64772800Y-103719000D01*
D42*
X81860600Y-104954000D02*
X75967800Y-104954000D01*
D44*
X67052400Y-104954000D02*
X66671400Y-104573000D01*
X65072200Y-93931400D02*
X66671400Y-95530600D01*
X66671400Y-104573000D02*
X66671400Y-104547600D01*
D42*
X75967800Y-104954000D02*
X67052400Y-104954000D01*
X72943200Y-84871800D02*
X74494600Y-86423200D01*
X67408000Y-84871800D02*
X67408000Y-88601000D01*
D43*
X74494600Y-88778800D02*
X67585800Y-88778800D01*
D42*
X97597800Y-104954000D02*
X102434600Y-100117200D01*
D43*
X67585800Y-88778800D02*
X63140800Y-88778800D01*
D44*
X59939200Y-93397000D02*
X60473600Y-93931400D01*
X60473600Y-93931400D02*
X65072200Y-93931400D01*
X66671400Y-104547600D02*
X65842800Y-103719000D01*
D45*
X80639500Y-108306800D02*
X83559800Y-108306800D01*
D42*
X62709000Y-84871800D02*
X62709000Y-88347000D01*
D44*
X66671400Y-98819000D02*
X64772800Y-98819000D01*
D45*
G04 #@! TO.N,3V3*
X84589400Y-112066400D02*
X85859800Y-110796000D01*
X80639500Y-112066400D02*
X84589400Y-112066400D01*
D42*
X85859800Y-108306800D02*
X85859800Y-114606800D01*
X76629000Y-114606800D02*
X73859600Y-111837400D01*
X85859800Y-114606800D02*
X76629000Y-114606800D01*
D45*
X85859800Y-110796000D02*
X85859800Y-108306800D01*
D44*
G04 #@! TO.N,/CTRL0*
X62891501Y-68997800D02*
X61453501Y-67559800D01*
X67124000Y-68204800D02*
X67917000Y-68997800D01*
X66234000Y-68997800D02*
X67027000Y-68204800D01*
X62891501Y-68997800D02*
X66234000Y-68997800D01*
X67917000Y-68997800D02*
X72943200Y-68997800D01*
G04 #@! TO.N,/CTRL1*
X67027000Y-65664800D02*
X67124000Y-65664800D01*
X62891501Y-64871800D02*
X66234000Y-64871800D01*
X67124000Y-65664800D02*
X67917000Y-64871800D01*
X62891501Y-64871800D02*
X61453501Y-66309800D01*
X67917000Y-64871800D02*
X72943200Y-64871800D01*
X66234000Y-64871800D02*
X67027000Y-65664800D01*
G04 #@! TO.N,/DATA0*
X97608600Y-69927400D02*
X102036800Y-69927400D01*
X102036800Y-69927400D02*
X102681800Y-69282400D01*
X92137400Y-76871800D02*
X91743200Y-76871800D01*
X91743200Y-76871800D02*
X97608600Y-71006400D01*
X97608600Y-71006400D02*
X97608600Y-69927400D01*
G04 #@! TO.N,/DATA1*
X102036800Y-67387400D02*
X102681800Y-68032400D01*
X91743200Y-72871800D02*
X92124200Y-72871800D01*
X92124200Y-72871800D02*
X97608600Y-67387400D01*
X97608600Y-67387400D02*
X102036800Y-67387400D01*
G04 #@! TO.N,/SPI3*
X83169200Y-60871800D02*
X91467200Y-52573800D01*
X97481600Y-52573800D02*
X101424000Y-52573800D01*
X91467200Y-52573800D02*
X97481600Y-52573800D01*
X102681800Y-53831600D02*
X102681800Y-54508800D01*
X101424000Y-52573800D02*
X102681800Y-53831600D01*
X72943200Y-60871800D02*
X83169200Y-60871800D01*
G04 #@! TO.N,/SPI2*
X94375400Y-56746800D02*
X96008400Y-55113800D01*
X91868200Y-56746800D02*
X94375400Y-56746800D01*
X98126600Y-55758800D02*
X102681800Y-55758800D01*
X97481600Y-55113800D02*
X98126600Y-55758800D01*
X96008400Y-55113800D02*
X97481600Y-55113800D01*
G04 #@! TO.N,/SPI0*
X91743200Y-65300000D02*
X91868200Y-65175000D01*
X97481600Y-60193800D02*
X101424000Y-60193800D01*
X101424000Y-60193800D02*
X102681800Y-58936000D01*
X102681800Y-58936000D02*
X102681800Y-58258800D01*
X93901200Y-64871800D02*
X97481600Y-61291400D01*
X91743200Y-64871800D02*
X93901200Y-64871800D01*
X97481600Y-61291400D02*
X97481600Y-60193800D01*
G04 #@! TO.N,/SPI1*
X91743200Y-60871800D02*
X94263600Y-60871800D01*
X97481600Y-57653800D02*
X98126600Y-57008800D01*
X98126600Y-57008800D02*
X102681800Y-57008800D01*
X94263600Y-60871800D02*
X97481600Y-57653800D01*
D45*
G04 #@! TO.N,Net-(J1-SHIELD)*
X63857800Y-105589000D02*
X63857800Y-107665100D01*
D44*
X59677800Y-105589000D02*
X63857800Y-105589000D01*
X59677800Y-96949000D02*
X59677800Y-105589000D01*
X63857800Y-96949000D02*
X59677800Y-96949000D01*
G04 #@! TO.N,Net-(J1-CC2)*
X64772800Y-103019000D02*
X67179400Y-103019000D01*
G04 #@! TO.N,Net-(J1-CC1)*
X64772800Y-100019000D02*
X67177400Y-100019000D01*
G04 #@! TO.N,Net-(D1-A)*
X58289200Y-91517400D02*
X58289200Y-93397000D01*
D46*
G04 #@! TO.N,ANT*
X91743200Y-84871800D02*
X103603000Y-84871800D01*
D45*
G04 #@! TO.N,GND1*
X91743200Y-80871800D02*
X103221500Y-80871800D01*
G04 #@! TD*
G04 #@! TA.AperFunction,Conductor*
G04 #@! TO.N,GND*
G36*
X103678659Y-43886083D02*
G01*
X103724414Y-43938887D01*
X103734358Y-44008045D01*
X103705333Y-44071601D01*
X103652575Y-44107439D01*
X103418545Y-44189330D01*
X103114916Y-44335550D01*
X102829562Y-44514851D01*
X102566077Y-44724972D01*
X102327774Y-44963275D01*
X102117653Y-45226760D01*
X101938352Y-45512114D01*
X101792132Y-45815743D01*
X101680827Y-46133832D01*
X101680823Y-46133844D01*
X101605833Y-46462400D01*
X101605831Y-46462416D01*
X101568100Y-46797289D01*
X101568100Y-47134306D01*
X101605831Y-47469179D01*
X101605833Y-47469195D01*
X101680823Y-47797751D01*
X101680827Y-47797763D01*
X101792132Y-48115852D01*
X101938352Y-48419481D01*
X101938354Y-48419484D01*
X102117654Y-48704837D01*
X102327775Y-48968321D01*
X102566077Y-49206623D01*
X102829561Y-49416744D01*
X103114914Y-49596044D01*
X103418549Y-49742267D01*
X103657448Y-49825861D01*
X103736634Y-49853570D01*
X103736646Y-49853574D01*
X104065206Y-49928565D01*
X104400092Y-49966297D01*
X104400093Y-49966298D01*
X104400096Y-49966298D01*
X104737107Y-49966298D01*
X104737107Y-49966297D01*
X105071994Y-49928565D01*
X105400554Y-49853574D01*
X105718651Y-49742267D01*
X106022286Y-49596044D01*
X106307639Y-49416744D01*
X106571123Y-49206623D01*
X106809425Y-48968321D01*
X107019546Y-48704837D01*
X107198846Y-48419484D01*
X107345069Y-48115849D01*
X107426958Y-47881825D01*
X107467679Y-47825049D01*
X107532632Y-47799302D01*
X107601194Y-47812758D01*
X107651596Y-47861146D01*
X107667999Y-47922780D01*
X107667999Y-76915400D01*
X107648314Y-76982439D01*
X107595510Y-77028194D01*
X107543999Y-77039400D01*
X93617700Y-77039400D01*
X93550661Y-77019715D01*
X93504906Y-76966911D01*
X93493700Y-76915400D01*
X93493699Y-76173929D01*
X93493698Y-76173923D01*
X93493697Y-76173916D01*
X93487291Y-76114317D01*
X93439403Y-75985922D01*
X93434419Y-75916230D01*
X93467902Y-75854910D01*
X97905704Y-71417107D01*
X97905709Y-71417104D01*
X97915912Y-71406900D01*
X97915914Y-71406900D01*
X98009100Y-71313714D01*
X98074992Y-71199586D01*
X98109100Y-71072292D01*
X98109100Y-70984536D01*
X103681300Y-70984536D01*
X103681300Y-72680263D01*
X103681301Y-72680282D01*
X103687708Y-72739881D01*
X103738002Y-72874727D01*
X103738003Y-72874728D01*
X103738004Y-72874730D01*
X103824254Y-72989946D01*
X103939470Y-73076196D01*
X103939471Y-73076196D01*
X103939472Y-73076197D01*
X104074318Y-73126491D01*
X104074317Y-73126491D01*
X104081245Y-73127235D01*
X104133928Y-73132900D01*
X104133937Y-73132900D01*
X106729663Y-73132900D01*
X106729672Y-73132900D01*
X106789282Y-73126491D01*
X106924130Y-73076196D01*
X107039346Y-72989946D01*
X107125596Y-72874730D01*
X107175891Y-72739882D01*
X107182300Y-72680272D01*
X107182300Y-70984528D01*
X107175891Y-70924918D01*
X107163842Y-70892613D01*
X107125597Y-70790072D01*
X107125596Y-70790071D01*
X107125596Y-70790070D01*
X107039346Y-70674854D01*
X106924130Y-70588604D01*
X106924128Y-70588603D01*
X106924127Y-70588602D01*
X106789281Y-70538308D01*
X106789282Y-70538308D01*
X106729682Y-70531901D01*
X106729680Y-70531900D01*
X106729672Y-70531900D01*
X104133928Y-70531900D01*
X104133920Y-70531900D01*
X104133917Y-70531901D01*
X104074318Y-70538308D01*
X103939472Y-70588602D01*
X103939470Y-70588604D01*
X103824254Y-70674854D01*
X103738004Y-70790070D01*
X103738002Y-70790072D01*
X103687708Y-70924918D01*
X103681301Y-70984517D01*
X103681300Y-70984536D01*
X98109100Y-70984536D01*
X98109100Y-70892613D01*
X98128785Y-70825574D01*
X98164207Y-70789513D01*
X98262318Y-70723958D01*
X98405158Y-70581118D01*
X98470712Y-70483009D01*
X98524324Y-70438204D01*
X98573814Y-70427900D01*
X102102690Y-70427900D01*
X102102692Y-70427900D01*
X102229986Y-70393792D01*
X102344114Y-70327900D01*
X102702795Y-69969219D01*
X102764118Y-69935734D01*
X102790476Y-69932900D01*
X103186070Y-69932900D01*
X103216499Y-69930046D01*
X103216501Y-69930046D01*
X103280590Y-69907619D01*
X103344682Y-69885193D01*
X103453950Y-69804550D01*
X103534593Y-69695282D01*
X103578542Y-69569683D01*
X103579446Y-69567101D01*
X103579446Y-69567099D01*
X103582300Y-69536669D01*
X103582300Y-69028130D01*
X103579446Y-68997700D01*
X103579446Y-68997698D01*
X103534593Y-68869519D01*
X103534592Y-68869517D01*
X103453950Y-68760250D01*
X103453948Y-68760249D01*
X103453948Y-68760248D01*
X103449777Y-68757170D01*
X103407526Y-68701523D01*
X103402067Y-68631867D01*
X103435134Y-68570317D01*
X103449777Y-68557630D01*
X103453947Y-68554552D01*
X103453950Y-68554550D01*
X103534593Y-68445282D01*
X103559714Y-68373490D01*
X103579446Y-68317101D01*
X103579446Y-68317099D01*
X103582300Y-68286669D01*
X103582300Y-67778130D01*
X103579446Y-67747700D01*
X103579446Y-67747698D01*
X103534593Y-67619519D01*
X103534592Y-67619517D01*
X103523237Y-67604131D01*
X103453950Y-67510250D01*
X103344682Y-67429607D01*
X103344680Y-67429606D01*
X103216500Y-67384753D01*
X103186070Y-67381900D01*
X103186066Y-67381900D01*
X102790476Y-67381900D01*
X102723437Y-67362215D01*
X102702795Y-67345581D01*
X102344116Y-66986902D01*
X102344114Y-66986900D01*
X102287050Y-66953954D01*
X102229987Y-66921008D01*
X102157692Y-66901637D01*
X102102692Y-66886900D01*
X102102691Y-66886900D01*
X98573814Y-66886900D01*
X98506775Y-66867215D01*
X98470712Y-66831791D01*
X98405156Y-66733679D01*
X98262318Y-66590841D01*
X98094362Y-66478617D01*
X98094352Y-66478612D01*
X97907727Y-66401309D01*
X97907719Y-66401307D01*
X97709607Y-66361900D01*
X97709603Y-66361900D01*
X97507597Y-66361900D01*
X97507592Y-66361900D01*
X97309480Y-66401307D01*
X97309472Y-66401309D01*
X97122847Y-66478612D01*
X97122837Y-66478617D01*
X96954881Y-66590841D01*
X96812041Y-66733681D01*
X96699817Y-66901637D01*
X96699812Y-66901647D01*
X96622509Y-67088272D01*
X96622507Y-67088280D01*
X96583100Y-67286392D01*
X96583100Y-67488401D01*
X96606119Y-67604131D01*
X96599890Y-67673722D01*
X96572182Y-67716002D01*
X92603205Y-71684981D01*
X92541882Y-71718466D01*
X92515524Y-71721300D01*
X90527144Y-71721300D01*
X90527138Y-71721300D01*
X90527134Y-71721301D01*
X90415327Y-71736020D01*
X90415322Y-71736022D01*
X90276201Y-71793647D01*
X90276200Y-71793647D01*
X90156725Y-71885325D01*
X90065047Y-72004800D01*
X90065047Y-72004801D01*
X90007422Y-72143922D01*
X90007420Y-72143927D01*
X89992701Y-72255734D01*
X89992700Y-72255750D01*
X89992700Y-73487849D01*
X89992701Y-73487865D01*
X90007420Y-73599672D01*
X90007422Y-73599677D01*
X90065047Y-73738798D01*
X90065047Y-73738799D01*
X90065049Y-73738802D01*
X90065050Y-73738803D01*
X90156725Y-73858275D01*
X90276197Y-73949950D01*
X90276200Y-73949951D01*
X90276201Y-73949952D01*
X90313972Y-73965597D01*
X90415326Y-74007579D01*
X90527144Y-74022300D01*
X90527151Y-74022300D01*
X92959249Y-74022300D01*
X92959256Y-74022300D01*
X93071074Y-74007579D01*
X93210198Y-73949952D01*
X93210199Y-73949952D01*
X93210199Y-73949951D01*
X93210203Y-73949950D01*
X93329675Y-73858275D01*
X93421350Y-73738803D01*
X93478979Y-73599674D01*
X93493700Y-73487856D01*
X93493700Y-72261475D01*
X93513385Y-72194436D01*
X93530019Y-72173794D01*
X95375916Y-70327897D01*
X97279998Y-68423814D01*
X97341319Y-68390331D01*
X97391867Y-68389880D01*
X97507595Y-68412899D01*
X97507596Y-68412900D01*
X97507597Y-68412900D01*
X97709604Y-68412900D01*
X97709605Y-68412899D01*
X97907727Y-68373491D01*
X98094356Y-68296186D01*
X98262318Y-68183958D01*
X98405158Y-68041118D01*
X98470712Y-67943009D01*
X98524324Y-67898204D01*
X98573814Y-67887900D01*
X101657300Y-67887900D01*
X101724339Y-67907585D01*
X101770094Y-67960389D01*
X101781300Y-68011900D01*
X101781300Y-68286669D01*
X101784153Y-68317099D01*
X101784153Y-68317101D01*
X101827277Y-68440339D01*
X101829007Y-68445282D01*
X101867266Y-68497122D01*
X101909651Y-68554551D01*
X101909652Y-68554552D01*
X101913826Y-68557633D01*
X101956075Y-68613282D01*
X101961531Y-68682938D01*
X101928461Y-68744486D01*
X101913826Y-68757167D01*
X101909652Y-68760247D01*
X101909651Y-68760248D01*
X101829007Y-68869517D01*
X101829006Y-68869519D01*
X101784153Y-68997698D01*
X101784153Y-68997700D01*
X101781300Y-69028130D01*
X101781300Y-69302900D01*
X101761615Y-69369939D01*
X101708811Y-69415694D01*
X101657300Y-69426900D01*
X98573814Y-69426900D01*
X98506775Y-69407215D01*
X98470712Y-69371791D01*
X98405156Y-69273679D01*
X98262318Y-69130841D01*
X98094362Y-69018617D01*
X98094352Y-69018612D01*
X97907727Y-68941309D01*
X97907719Y-68941307D01*
X97709607Y-68901900D01*
X97709603Y-68901900D01*
X97507597Y-68901900D01*
X97507592Y-68901900D01*
X97309480Y-68941307D01*
X97309472Y-68941309D01*
X97122847Y-69018612D01*
X97122837Y-69018617D01*
X96954881Y-69130841D01*
X96812041Y-69273681D01*
X96699817Y-69441637D01*
X96699812Y-69441647D01*
X96622509Y-69628272D01*
X96622507Y-69628280D01*
X96583100Y-69826392D01*
X96583100Y-70028407D01*
X96622507Y-70226519D01*
X96622509Y-70226527D01*
X96699812Y-70413152D01*
X96699817Y-70413162D01*
X96812041Y-70581118D01*
X96954876Y-70723953D01*
X96954882Y-70723958D01*
X96966136Y-70731478D01*
X97010941Y-70785091D01*
X97019647Y-70854416D01*
X96989491Y-70917443D01*
X96984925Y-70922260D01*
X92222203Y-75684981D01*
X92160880Y-75718466D01*
X92134522Y-75721300D01*
X90445329Y-75721300D01*
X90445323Y-75721301D01*
X90385716Y-75727708D01*
X90250871Y-75778002D01*
X90250864Y-75778006D01*
X90135655Y-75864252D01*
X90135652Y-75864255D01*
X90049406Y-75979464D01*
X90049402Y-75979471D01*
X89999108Y-76114317D01*
X89992701Y-76173916D01*
X89992701Y-76173923D01*
X89992700Y-76173935D01*
X89992701Y-76915400D01*
X89973017Y-76982439D01*
X89920213Y-77028194D01*
X89868701Y-77039400D01*
X88464600Y-77039400D01*
X88464600Y-93041400D01*
X107543999Y-93041400D01*
X107611038Y-93061085D01*
X107656793Y-93113889D01*
X107667999Y-93165400D01*
X107667999Y-113037022D01*
X107648314Y-113104061D01*
X107595510Y-113149816D01*
X107526352Y-113159760D01*
X107462796Y-113130735D01*
X107426958Y-113077977D01*
X107382096Y-112949772D01*
X107345068Y-112843951D01*
X107198845Y-112540316D01*
X107019545Y-112254963D01*
X106809424Y-111991479D01*
X106571122Y-111753177D01*
X106307638Y-111543056D01*
X106087257Y-111404581D01*
X106022282Y-111363754D01*
X105718653Y-111217534D01*
X105400564Y-111106229D01*
X105400552Y-111106225D01*
X105071996Y-111031235D01*
X105071980Y-111031233D01*
X104737107Y-110993502D01*
X104737103Y-110993502D01*
X104400095Y-110993502D01*
X104400090Y-110993502D01*
X104065217Y-111031233D01*
X104065201Y-111031235D01*
X103736645Y-111106225D01*
X103736633Y-111106229D01*
X103418544Y-111217534D01*
X103114915Y-111363754D01*
X102829561Y-111543055D01*
X102566076Y-111753176D01*
X102327773Y-111991479D01*
X102117652Y-112254964D01*
X101938351Y-112540318D01*
X101792131Y-112843947D01*
X101680826Y-113162036D01*
X101680822Y-113162048D01*
X101605832Y-113490604D01*
X101605830Y-113490620D01*
X101568099Y-113825493D01*
X101568099Y-114162510D01*
X101605830Y-114497383D01*
X101605832Y-114497399D01*
X101680822Y-114825955D01*
X101680826Y-114825967D01*
X101792131Y-115144056D01*
X101938351Y-115447685D01*
X101967093Y-115493428D01*
X102117653Y-115733041D01*
X102216745Y-115857299D01*
X102289006Y-115947912D01*
X102327774Y-115996525D01*
X102566076Y-116234827D01*
X102829560Y-116444948D01*
X103072820Y-116597799D01*
X103114915Y-116624249D01*
X103216124Y-116672989D01*
X103418548Y-116770471D01*
X103552359Y-116817293D01*
X103652852Y-116852458D01*
X103709628Y-116893179D01*
X103735375Y-116958132D01*
X103721919Y-117026694D01*
X103673531Y-117077096D01*
X103611897Y-117093499D01*
X60525382Y-117093499D01*
X60458343Y-117073814D01*
X60412588Y-117021010D01*
X60402644Y-116951852D01*
X60431669Y-116888296D01*
X60484427Y-116852458D01*
X60561573Y-116825463D01*
X60718451Y-116770569D01*
X61022086Y-116624346D01*
X61307439Y-116445046D01*
X61570923Y-116234925D01*
X61809225Y-115996623D01*
X62019346Y-115733139D01*
X62198646Y-115447786D01*
X62344869Y-115144151D01*
X62456176Y-114826054D01*
X62531167Y-114497494D01*
X62568900Y-114162604D01*
X62568900Y-113825596D01*
X62531167Y-113490706D01*
X62456176Y-113162146D01*
X62455634Y-113160598D01*
X62411857Y-113035489D01*
X62344869Y-112844049D01*
X62198646Y-112540414D01*
X62019346Y-112255061D01*
X61809225Y-111991577D01*
X61570923Y-111753275D01*
X61307439Y-111543154D01*
X61086902Y-111404581D01*
X61022083Y-111363852D01*
X60718454Y-111217632D01*
X60400365Y-111106327D01*
X60400353Y-111106323D01*
X60071797Y-111031333D01*
X60071781Y-111031331D01*
X59736908Y-110993600D01*
X59736904Y-110993600D01*
X59399896Y-110993600D01*
X59399891Y-110993600D01*
X59065018Y-111031331D01*
X59065002Y-111031333D01*
X58736446Y-111106323D01*
X58736434Y-111106327D01*
X58418345Y-111217632D01*
X58114716Y-111363852D01*
X57829362Y-111543153D01*
X57565877Y-111753274D01*
X57327574Y-111991577D01*
X57117453Y-112255062D01*
X56938152Y-112540416D01*
X56791932Y-112844045D01*
X56710041Y-113078075D01*
X56669320Y-113134851D01*
X56604367Y-113160598D01*
X56535805Y-113147142D01*
X56485402Y-113098754D01*
X56469000Y-113037120D01*
X56469000Y-110837721D01*
X72634100Y-110837721D01*
X72634100Y-112837078D01*
X72648632Y-112910135D01*
X72648633Y-112910139D01*
X72648634Y-112910140D01*
X72703999Y-112993001D01*
X72770029Y-113037120D01*
X72786860Y-113048366D01*
X72786864Y-113048367D01*
X72859921Y-113062899D01*
X72859924Y-113062900D01*
X72859926Y-113062900D01*
X73618818Y-113062900D01*
X73685857Y-113082585D01*
X73706499Y-113099219D01*
X75848735Y-115241455D01*
X75848764Y-115241486D01*
X75991214Y-115383936D01*
X75991218Y-115383939D01*
X76155079Y-115493428D01*
X76155083Y-115493430D01*
X76155086Y-115493432D01*
X76276616Y-115543771D01*
X76337164Y-115568851D01*
X76370370Y-115575456D01*
X76456984Y-115592684D01*
X76530456Y-115607300D01*
X76530459Y-115607300D01*
X76530460Y-115607300D01*
X76727540Y-115607300D01*
X83847570Y-115607300D01*
X83914609Y-115626985D01*
X83935251Y-115643619D01*
X83991144Y-115699512D01*
X84140466Y-115791614D01*
X84307003Y-115846799D01*
X84409791Y-115857300D01*
X87309808Y-115857299D01*
X87412597Y-115846799D01*
X87579134Y-115791614D01*
X87728456Y-115699512D01*
X87852512Y-115575456D01*
X87944614Y-115426134D01*
X87999799Y-115259597D01*
X88010300Y-115156809D01*
X88010299Y-114056792D01*
X87999799Y-113954003D01*
X87944614Y-113787466D01*
X87852512Y-113638144D01*
X87728456Y-113514088D01*
X87579134Y-113421986D01*
X87412597Y-113366801D01*
X87412595Y-113366800D01*
X87309816Y-113356300D01*
X87309809Y-113356300D01*
X86984300Y-113356300D01*
X86917261Y-113336615D01*
X86871506Y-113283811D01*
X86860300Y-113232300D01*
X86860300Y-108198270D01*
X86860299Y-108198256D01*
X86860299Y-107618649D01*
X86860298Y-107618624D01*
X86858004Y-107589469D01*
X86857509Y-107583173D01*
X86813418Y-107431410D01*
X86732970Y-107295380D01*
X86732968Y-107295378D01*
X86732965Y-107295374D01*
X86621225Y-107183634D01*
X86621216Y-107183627D01*
X86485190Y-107103182D01*
X86485185Y-107103180D01*
X86333433Y-107059092D01*
X86333420Y-107059090D01*
X86297963Y-107056300D01*
X85421649Y-107056300D01*
X85421624Y-107056301D01*
X85386172Y-107059091D01*
X85234414Y-107103180D01*
X85234409Y-107103182D01*
X85098383Y-107183627D01*
X85098374Y-107183634D01*
X84986634Y-107295374D01*
X84986627Y-107295383D01*
X84906182Y-107431409D01*
X84906180Y-107431414D01*
X84862092Y-107583166D01*
X84862090Y-107583179D01*
X84859300Y-107618629D01*
X84859300Y-110860548D01*
X84839615Y-110927587D01*
X84822981Y-110948229D01*
X84366629Y-111404581D01*
X84305306Y-111438066D01*
X84278948Y-111440900D01*
X81453641Y-111440900D01*
X81386602Y-111421215D01*
X81340847Y-111368411D01*
X81337469Y-111360259D01*
X81333296Y-111349069D01*
X81333293Y-111349065D01*
X81333293Y-111349064D01*
X81247047Y-111233855D01*
X81247044Y-111233852D01*
X81131835Y-111147606D01*
X81131828Y-111147602D01*
X80996986Y-111097310D01*
X80996985Y-111097309D01*
X80996983Y-111097309D01*
X80937373Y-111090900D01*
X80937363Y-111090900D01*
X80341629Y-111090900D01*
X80341623Y-111090901D01*
X80282016Y-111097308D01*
X80147171Y-111147602D01*
X80147164Y-111147606D01*
X80031955Y-111233852D01*
X80031952Y-111233855D01*
X79945706Y-111349064D01*
X79945702Y-111349071D01*
X79895408Y-111483917D01*
X79889001Y-111543516D01*
X79889000Y-111543535D01*
X79889000Y-112589270D01*
X79889001Y-112589276D01*
X79895408Y-112648883D01*
X79945702Y-112783728D01*
X79945706Y-112783735D01*
X80031952Y-112898944D01*
X80031955Y-112898947D01*
X80147164Y-112985193D01*
X80147171Y-112985197D01*
X80168095Y-112993001D01*
X80282017Y-113035491D01*
X80341627Y-113041900D01*
X80937372Y-113041899D01*
X80996983Y-113035491D01*
X81131831Y-112985196D01*
X81247046Y-112898946D01*
X81333296Y-112783731D01*
X81337460Y-112772565D01*
X81379329Y-112716634D01*
X81444793Y-112692216D01*
X81453641Y-112691900D01*
X84651007Y-112691900D01*
X84711110Y-112679944D01*
X84780698Y-112686170D01*
X84835876Y-112729032D01*
X84859122Y-112794921D01*
X84859300Y-112801561D01*
X84859300Y-113232300D01*
X84839615Y-113299339D01*
X84786811Y-113345094D01*
X84735300Y-113356300D01*
X84409799Y-113356300D01*
X84409780Y-113356301D01*
X84307003Y-113366800D01*
X84307000Y-113366801D01*
X84140468Y-113421985D01*
X84140463Y-113421987D01*
X83991142Y-113514089D01*
X83935251Y-113569981D01*
X83873928Y-113603466D01*
X83847570Y-113606300D01*
X77094782Y-113606300D01*
X77027743Y-113586615D01*
X77007101Y-113569981D01*
X75121419Y-111684299D01*
X75087934Y-111622976D01*
X75085100Y-111596618D01*
X75085100Y-110837723D01*
X75085099Y-110837721D01*
X75070567Y-110764664D01*
X75070566Y-110764660D01*
X75015201Y-110681799D01*
X74932340Y-110626434D01*
X74932339Y-110626433D01*
X74932335Y-110626432D01*
X74859277Y-110611900D01*
X74859274Y-110611900D01*
X72859926Y-110611900D01*
X72859923Y-110611900D01*
X72786864Y-110626432D01*
X72786860Y-110626433D01*
X72703999Y-110681799D01*
X72648633Y-110764660D01*
X72648632Y-110764664D01*
X72634100Y-110837721D01*
X56469000Y-110837721D01*
X56469000Y-97022920D01*
X58627299Y-97022920D01*
X58656140Y-97167907D01*
X58656143Y-97167917D01*
X58712712Y-97304488D01*
X58712719Y-97304501D01*
X58794848Y-97427415D01*
X58794851Y-97427419D01*
X58899380Y-97531948D01*
X58899384Y-97531951D01*
X59022298Y-97614080D01*
X59022311Y-97614087D01*
X59100752Y-97646578D01*
X59155156Y-97690419D01*
X59177221Y-97756713D01*
X59177300Y-97761139D01*
X59177300Y-104776860D01*
X59157615Y-104843899D01*
X59104811Y-104889654D01*
X59100753Y-104891421D01*
X59022308Y-104923914D01*
X59022298Y-104923919D01*
X58899384Y-105006048D01*
X58899380Y-105006051D01*
X58794851Y-105110580D01*
X58794848Y-105110584D01*
X58712719Y-105233498D01*
X58712712Y-105233511D01*
X58656143Y-105370082D01*
X58656140Y-105370092D01*
X58627300Y-105515079D01*
X58627300Y-105515082D01*
X58627300Y-105662918D01*
X58627300Y-105662920D01*
X58627299Y-105662920D01*
X58656140Y-105807907D01*
X58656143Y-105807917D01*
X58712712Y-105944488D01*
X58712719Y-105944501D01*
X58794848Y-106067415D01*
X58794851Y-106067419D01*
X58899380Y-106171948D01*
X58899384Y-106171951D01*
X59022298Y-106254080D01*
X59022311Y-106254087D01*
X59158882Y-106310656D01*
X59158887Y-106310658D01*
X59158891Y-106310658D01*
X59158892Y-106310659D01*
X59303879Y-106339500D01*
X59303882Y-106339500D01*
X60051720Y-106339500D01*
X60153117Y-106319330D01*
X60196713Y-106310658D01*
X60333295Y-106254084D01*
X60456216Y-106171951D01*
X60502347Y-106125820D01*
X60563670Y-106092334D01*
X60590029Y-106089500D01*
X62695571Y-106089500D01*
X62762610Y-106109185D01*
X62783253Y-106125820D01*
X62829380Y-106171948D01*
X62829384Y-106171951D01*
X62952298Y-106254080D01*
X62952311Y-106254087D01*
X63088882Y-106310656D01*
X63088887Y-106310658D01*
X63132492Y-106319331D01*
X63194401Y-106351714D01*
X63228976Y-106412429D01*
X63232300Y-106440948D01*
X63232300Y-107726710D01*
X63256335Y-107847544D01*
X63256338Y-107847554D01*
X63303487Y-107961383D01*
X63303492Y-107961392D01*
X63371941Y-108063832D01*
X63371944Y-108063836D01*
X63459063Y-108150955D01*
X63459067Y-108150958D01*
X63561507Y-108219407D01*
X63561513Y-108219410D01*
X63561514Y-108219411D01*
X63675348Y-108266563D01*
X63796189Y-108290599D01*
X63796193Y-108290600D01*
X63796194Y-108290600D01*
X63919407Y-108290600D01*
X63919408Y-108290599D01*
X64040252Y-108266563D01*
X64154086Y-108219411D01*
X64256533Y-108150958D01*
X64343658Y-108063833D01*
X64412111Y-107961386D01*
X64459263Y-107847552D01*
X64483300Y-107726706D01*
X64483300Y-106440948D01*
X64502985Y-106373909D01*
X64555789Y-106328154D01*
X64583102Y-106319332D01*
X64626713Y-106310658D01*
X64763295Y-106254084D01*
X64886216Y-106171951D01*
X64990751Y-106067416D01*
X65072884Y-105944495D01*
X65129458Y-105807913D01*
X65158300Y-105662918D01*
X65158300Y-105515082D01*
X65158300Y-105515079D01*
X65129459Y-105370092D01*
X65129458Y-105370091D01*
X65129458Y-105370087D01*
X65077993Y-105245839D01*
X65072887Y-105233511D01*
X65072880Y-105233498D01*
X64990751Y-105110584D01*
X64990748Y-105110580D01*
X64886219Y-105006051D01*
X64886215Y-105006048D01*
X64763301Y-104923919D01*
X64763288Y-104923912D01*
X64626717Y-104867343D01*
X64626707Y-104867340D01*
X64481720Y-104838500D01*
X64481718Y-104838500D01*
X63233882Y-104838500D01*
X63233880Y-104838500D01*
X63088892Y-104867340D01*
X63088882Y-104867343D01*
X62952311Y-104923912D01*
X62952298Y-104923919D01*
X62829384Y-105006048D01*
X62829380Y-105006051D01*
X62783253Y-105052180D01*
X62721930Y-105085666D01*
X62695571Y-105088500D01*
X60590029Y-105088500D01*
X60522990Y-105068815D01*
X60502347Y-105052180D01*
X60456219Y-105006051D01*
X60456215Y-105006048D01*
X60333301Y-104923919D01*
X60333291Y-104923914D01*
X60254847Y-104891421D01*
X60200443Y-104847579D01*
X60178379Y-104781285D01*
X60178300Y-104776860D01*
X60178300Y-97761139D01*
X60197985Y-97694100D01*
X60250789Y-97648345D01*
X60254848Y-97646578D01*
X60333288Y-97614087D01*
X60333288Y-97614086D01*
X60333295Y-97614084D01*
X60456216Y-97531951D01*
X60502347Y-97485820D01*
X60563670Y-97452334D01*
X60590029Y-97449500D01*
X62695571Y-97449500D01*
X62762610Y-97469185D01*
X62783253Y-97485820D01*
X62829380Y-97531948D01*
X62829384Y-97531951D01*
X62952298Y-97614080D01*
X62952311Y-97614087D01*
X63088882Y-97670656D01*
X63088887Y-97670658D01*
X63088891Y-97670658D01*
X63088892Y-97670659D01*
X63233879Y-97699500D01*
X63233882Y-97699500D01*
X64481720Y-97699500D01*
X64608303Y-97674320D01*
X64626713Y-97670658D01*
X64763295Y-97614084D01*
X64886216Y-97531951D01*
X64990751Y-97427416D01*
X65072884Y-97304495D01*
X65129458Y-97167913D01*
X65158300Y-97022918D01*
X65158300Y-96875082D01*
X65158300Y-96875079D01*
X65129459Y-96730092D01*
X65129458Y-96730091D01*
X65129458Y-96730087D01*
X65129456Y-96730082D01*
X65072887Y-96593511D01*
X65072880Y-96593498D01*
X64990751Y-96470584D01*
X64990748Y-96470580D01*
X64886219Y-96366051D01*
X64886215Y-96366048D01*
X64763301Y-96283919D01*
X64763288Y-96283912D01*
X64626717Y-96227343D01*
X64626707Y-96227340D01*
X64481720Y-96198500D01*
X64481718Y-96198500D01*
X63233882Y-96198500D01*
X63233880Y-96198500D01*
X63088892Y-96227340D01*
X63088882Y-96227343D01*
X62952311Y-96283912D01*
X62952298Y-96283919D01*
X62829384Y-96366048D01*
X62829380Y-96366051D01*
X62783253Y-96412180D01*
X62721930Y-96445666D01*
X62695571Y-96448500D01*
X60590029Y-96448500D01*
X60522990Y-96428815D01*
X60502347Y-96412180D01*
X60456219Y-96366051D01*
X60456215Y-96366048D01*
X60333301Y-96283919D01*
X60333288Y-96283912D01*
X60196717Y-96227343D01*
X60196707Y-96227340D01*
X60051720Y-96198500D01*
X60051718Y-96198500D01*
X59303882Y-96198500D01*
X59303880Y-96198500D01*
X59158892Y-96227340D01*
X59158882Y-96227343D01*
X59022311Y-96283912D01*
X59022298Y-96283919D01*
X58899384Y-96366048D01*
X58899380Y-96366051D01*
X58794851Y-96470580D01*
X58794848Y-96470584D01*
X58712719Y-96593498D01*
X58712712Y-96593511D01*
X58656143Y-96730082D01*
X58656140Y-96730092D01*
X58627300Y-96875079D01*
X58627300Y-96875082D01*
X58627300Y-97022918D01*
X58627300Y-97022920D01*
X58627299Y-97022920D01*
X56469000Y-97022920D01*
X56469000Y-91216255D01*
X57601200Y-91216255D01*
X57601200Y-91818544D01*
X57607209Y-91874424D01*
X57654362Y-92000847D01*
X57654364Y-92000850D01*
X57735228Y-92108872D01*
X57735230Y-92108873D01*
X57735232Y-92108876D01*
X57739009Y-92111703D01*
X57780881Y-92167636D01*
X57788700Y-92210971D01*
X57788700Y-92729711D01*
X57769015Y-92796750D01*
X57764471Y-92803344D01*
X57686407Y-92909118D01*
X57686406Y-92909119D01*
X57641553Y-93037298D01*
X57641553Y-93037300D01*
X57638700Y-93067730D01*
X57638700Y-93726269D01*
X57641553Y-93756699D01*
X57641553Y-93756701D01*
X57686406Y-93884880D01*
X57686407Y-93884882D01*
X57767050Y-93994150D01*
X57876318Y-94074793D01*
X57919045Y-94089744D01*
X58004499Y-94119646D01*
X58034930Y-94122500D01*
X58034934Y-94122500D01*
X58543470Y-94122500D01*
X58573899Y-94119646D01*
X58573901Y-94119646D01*
X58637990Y-94097219D01*
X58702082Y-94074793D01*
X58811350Y-93994150D01*
X58891993Y-93884882D01*
X58914419Y-93820790D01*
X58936846Y-93756701D01*
X58936846Y-93756699D01*
X58939700Y-93726269D01*
X58939700Y-93067730D01*
X59288700Y-93067730D01*
X59288700Y-93726269D01*
X59291553Y-93756699D01*
X59291553Y-93756701D01*
X59336406Y-93884880D01*
X59336407Y-93884882D01*
X59417050Y-93994150D01*
X59526318Y-94074793D01*
X59569045Y-94089744D01*
X59654499Y-94119646D01*
X59684930Y-94122500D01*
X59684934Y-94122500D01*
X59905524Y-94122500D01*
X59972563Y-94142185D01*
X59993205Y-94158819D01*
X60073100Y-94238714D01*
X60166286Y-94331900D01*
X60280414Y-94397792D01*
X60407708Y-94431900D01*
X64813524Y-94431900D01*
X64880563Y-94451585D01*
X64901205Y-94468219D01*
X66134581Y-95701594D01*
X66168066Y-95762917D01*
X66170900Y-95789275D01*
X66170900Y-98194500D01*
X66151215Y-98261539D01*
X66098411Y-98307294D01*
X66046900Y-98318500D01*
X65686234Y-98318500D01*
X65619195Y-98298815D01*
X65617374Y-98297623D01*
X65595540Y-98283034D01*
X65595539Y-98283033D01*
X65595538Y-98283033D01*
X65522476Y-98268500D01*
X65522474Y-98268500D01*
X64023126Y-98268500D01*
X64023123Y-98268500D01*
X63950064Y-98283032D01*
X63950058Y-98283034D01*
X63917975Y-98304471D01*
X63851297Y-98325347D01*
X63783918Y-98306861D01*
X63737229Y-98254881D01*
X63729312Y-98233458D01*
X63724303Y-98214763D01*
X63668285Y-98117737D01*
X63589063Y-98038515D01*
X63492037Y-97982497D01*
X63383818Y-97953500D01*
X63271782Y-97953500D01*
X63163563Y-97982497D01*
X63163560Y-97982498D01*
X63066540Y-98038513D01*
X63066534Y-98038517D01*
X62987317Y-98117734D01*
X62987313Y-98117740D01*
X62931298Y-98214760D01*
X62931297Y-98214763D01*
X62902300Y-98322982D01*
X62902300Y-98435018D01*
X62931297Y-98543237D01*
X62987315Y-98640263D01*
X63066537Y-98719485D01*
X63163563Y-98775503D01*
X63271782Y-98804500D01*
X63271784Y-98804500D01*
X63383816Y-98804500D01*
X63383818Y-98804500D01*
X63492037Y-98775503D01*
X63589063Y-98719485D01*
X63589071Y-98719476D01*
X63595509Y-98714538D01*
X63597126Y-98716645D01*
X63646942Y-98689444D01*
X63716634Y-98694428D01*
X63772567Y-98736300D01*
X63796984Y-98801764D01*
X63797300Y-98810610D01*
X63797300Y-99143673D01*
X63812444Y-99219810D01*
X63812444Y-99268190D01*
X63797300Y-99344326D01*
X63797300Y-99693673D01*
X63807471Y-99744810D01*
X63807471Y-99793190D01*
X63797300Y-99844326D01*
X63797300Y-100193673D01*
X63807471Y-100244810D01*
X63807471Y-100293190D01*
X63797300Y-100344326D01*
X63797300Y-100693673D01*
X63807471Y-100744810D01*
X63807471Y-100793190D01*
X63797300Y-100844326D01*
X63797300Y-101193673D01*
X63807471Y-101244810D01*
X63807471Y-101293190D01*
X63797300Y-101344326D01*
X63797300Y-101693673D01*
X63807471Y-101744810D01*
X63807471Y-101793190D01*
X63797300Y-101844326D01*
X63797300Y-102193673D01*
X63807471Y-102244810D01*
X63807471Y-102293190D01*
X63797300Y-102344326D01*
X63797300Y-102693673D01*
X63807471Y-102744810D01*
X63807471Y-102793190D01*
X63797300Y-102844326D01*
X63797300Y-103193673D01*
X63812444Y-103269810D01*
X63812444Y-103318190D01*
X63797300Y-103394326D01*
X63797300Y-103727390D01*
X63777615Y-103794429D01*
X63724811Y-103840184D01*
X63655653Y-103850128D01*
X63595964Y-103822869D01*
X63595509Y-103823462D01*
X63592931Y-103821484D01*
X63592097Y-103821103D01*
X63590514Y-103819629D01*
X63589067Y-103818519D01*
X63589063Y-103818515D01*
X63492037Y-103762497D01*
X63383818Y-103733500D01*
X63271782Y-103733500D01*
X63163563Y-103762497D01*
X63163560Y-103762498D01*
X63066540Y-103818513D01*
X63066534Y-103818517D01*
X62987317Y-103897734D01*
X62987313Y-103897740D01*
X62931298Y-103994760D01*
X62931297Y-103994763D01*
X62902300Y-104102982D01*
X62902300Y-104215018D01*
X62931297Y-104323237D01*
X62987315Y-104420263D01*
X63066537Y-104499485D01*
X63163563Y-104555503D01*
X63271782Y-104584500D01*
X63271784Y-104584500D01*
X63383816Y-104584500D01*
X63383818Y-104584500D01*
X63492037Y-104555503D01*
X63589063Y-104499485D01*
X63668285Y-104420263D01*
X63724303Y-104323237D01*
X63729313Y-104304538D01*
X63765675Y-104244880D01*
X63828521Y-104214349D01*
X63897896Y-104222642D01*
X63917977Y-104233529D01*
X63950060Y-104254966D01*
X63950064Y-104254967D01*
X64023121Y-104269499D01*
X64023124Y-104269500D01*
X64023126Y-104269500D01*
X65522475Y-104269500D01*
X65593434Y-104255385D01*
X65663025Y-104261612D01*
X65705307Y-104289321D01*
X66041458Y-104625472D01*
X66074943Y-104686795D01*
X66075394Y-104737344D01*
X66051900Y-104855454D01*
X66051900Y-104855459D01*
X66051900Y-105052541D01*
X66051900Y-105052543D01*
X66051899Y-105052543D01*
X66090347Y-105245829D01*
X66090350Y-105245839D01*
X66165764Y-105427907D01*
X66165771Y-105427920D01*
X66275260Y-105591781D01*
X66275263Y-105591785D01*
X66414614Y-105731136D01*
X66414618Y-105731139D01*
X66578479Y-105840628D01*
X66578492Y-105840635D01*
X66760560Y-105916049D01*
X66760565Y-105916051D01*
X66760569Y-105916051D01*
X66760570Y-105916052D01*
X66953856Y-105954500D01*
X66953859Y-105954500D01*
X75869259Y-105954500D01*
X81394818Y-105954500D01*
X81461857Y-105974185D01*
X81482499Y-105990819D01*
X82522981Y-107031301D01*
X82556466Y-107092624D01*
X82559300Y-107118982D01*
X82559300Y-107557300D01*
X82539615Y-107624339D01*
X82486811Y-107670094D01*
X82435300Y-107681300D01*
X81453641Y-107681300D01*
X81386602Y-107661615D01*
X81340847Y-107608811D01*
X81337469Y-107600659D01*
X81333296Y-107589469D01*
X81333293Y-107589465D01*
X81333293Y-107589464D01*
X81247047Y-107474255D01*
X81247044Y-107474252D01*
X81131835Y-107388006D01*
X81131828Y-107388002D01*
X80996986Y-107337710D01*
X80996985Y-107337709D01*
X80996983Y-107337709D01*
X80937373Y-107331300D01*
X80937363Y-107331300D01*
X80341629Y-107331300D01*
X80341623Y-107331301D01*
X80282016Y-107337708D01*
X80147171Y-107388002D01*
X80147164Y-107388006D01*
X80031955Y-107474252D01*
X80031952Y-107474255D01*
X79945706Y-107589464D01*
X79945702Y-107589471D01*
X79895408Y-107724317D01*
X79889001Y-107783916D01*
X79889000Y-107783935D01*
X79889000Y-108829670D01*
X79889001Y-108829676D01*
X79895408Y-108889283D01*
X79945702Y-109024128D01*
X79945706Y-109024135D01*
X80031952Y-109139344D01*
X80031955Y-109139347D01*
X80147164Y-109225593D01*
X80147171Y-109225597D01*
X80192118Y-109242361D01*
X80282017Y-109275891D01*
X80341627Y-109282300D01*
X80937372Y-109282299D01*
X80996983Y-109275891D01*
X81131831Y-109225596D01*
X81247046Y-109139346D01*
X81333296Y-109024131D01*
X81337460Y-109012965D01*
X81379329Y-108957034D01*
X81444793Y-108932616D01*
X81453641Y-108932300D01*
X82440765Y-108932300D01*
X82507804Y-108951985D01*
X82553559Y-109004789D01*
X82559757Y-109024506D01*
X82560323Y-109024342D01*
X82606180Y-109182185D01*
X82606182Y-109182190D01*
X82686627Y-109318216D01*
X82686634Y-109318225D01*
X82798374Y-109429965D01*
X82798378Y-109429968D01*
X82798380Y-109429970D01*
X82934410Y-109510418D01*
X83086173Y-109554509D01*
X83121637Y-109557300D01*
X83997962Y-109557299D01*
X84033427Y-109554509D01*
X84185190Y-109510418D01*
X84321220Y-109429970D01*
X84432970Y-109318220D01*
X84513418Y-109182190D01*
X84557509Y-109030427D01*
X84560300Y-108994963D01*
X84560300Y-108368406D01*
X84560300Y-106554659D01*
X84553921Y-106522589D01*
X84521852Y-106361365D01*
X84446432Y-106179286D01*
X84446431Y-106179285D01*
X84446428Y-106179279D01*
X84425121Y-106147391D01*
X84404243Y-106080714D01*
X84422727Y-106013333D01*
X84474706Y-105966643D01*
X84528223Y-105954500D01*
X97696343Y-105954500D01*
X97732905Y-105947226D01*
X97834516Y-105927015D01*
X97889636Y-105916051D01*
X97942965Y-105893961D01*
X98071714Y-105840632D01*
X98235582Y-105731139D01*
X98374939Y-105591782D01*
X98374940Y-105591779D01*
X98382006Y-105584714D01*
X98382008Y-105584710D01*
X102587701Y-101379019D01*
X102649024Y-101345534D01*
X102675382Y-101342700D01*
X103434276Y-101342700D01*
X103434277Y-101342699D01*
X103507340Y-101328166D01*
X103590201Y-101272801D01*
X103645566Y-101189940D01*
X103660100Y-101116874D01*
X103660100Y-99117526D01*
X103660100Y-99117523D01*
X103660099Y-99117521D01*
X103645567Y-99044464D01*
X103645566Y-99044460D01*
X103643344Y-99041135D01*
X103590201Y-98961599D01*
X103507340Y-98906234D01*
X103507339Y-98906233D01*
X103507335Y-98906232D01*
X103434277Y-98891700D01*
X103434274Y-98891700D01*
X101434926Y-98891700D01*
X101434923Y-98891700D01*
X101361864Y-98906232D01*
X101361860Y-98906233D01*
X101278999Y-98961599D01*
X101223633Y-99044460D01*
X101223632Y-99044464D01*
X101209100Y-99117521D01*
X101209100Y-99876418D01*
X101189415Y-99943457D01*
X101172781Y-99964099D01*
X97219699Y-103917181D01*
X97158376Y-103950666D01*
X97132018Y-103953500D01*
X77092300Y-103953500D01*
X77025261Y-103933815D01*
X76979506Y-103881011D01*
X76968300Y-103829500D01*
X76968300Y-103358289D01*
X76987985Y-103291250D01*
X77004619Y-103270608D01*
X77034651Y-103240576D01*
X77112317Y-103162910D01*
X77251143Y-102971833D01*
X77358368Y-102761392D01*
X77431353Y-102536768D01*
X77434654Y-102515924D01*
X77468300Y-102303497D01*
X77468300Y-90133902D01*
X77431353Y-89900631D01*
X77359875Y-89680647D01*
X77358812Y-89676880D01*
X77358368Y-89676008D01*
X77358368Y-89676007D01*
X77251143Y-89465566D01*
X77112317Y-89274490D01*
X75531419Y-87693592D01*
X75497934Y-87632269D01*
X75495100Y-87605911D01*
X75495100Y-86324656D01*
X75495099Y-86324654D01*
X75456652Y-86131370D01*
X75456650Y-86131363D01*
X75448854Y-86112543D01*
X75448852Y-86112537D01*
X75411475Y-86022300D01*
X75411475Y-86022299D01*
X75381235Y-85949293D01*
X75381234Y-85949292D01*
X75381232Y-85949286D01*
X75381228Y-85949280D01*
X75271739Y-85785417D01*
X75129286Y-85642964D01*
X75129255Y-85642935D01*
X74730018Y-85243698D01*
X74696533Y-85182375D01*
X74693699Y-85156017D01*
X74693699Y-84173929D01*
X74693698Y-84173923D01*
X74693697Y-84173916D01*
X74687291Y-84114317D01*
X74679959Y-84094660D01*
X74636997Y-83979471D01*
X74636993Y-83979464D01*
X74550747Y-83864255D01*
X74550744Y-83864252D01*
X74435535Y-83778006D01*
X74435528Y-83778002D01*
X74300682Y-83727708D01*
X74300683Y-83727708D01*
X74241083Y-83721301D01*
X74241081Y-83721300D01*
X74241073Y-83721300D01*
X74241064Y-83721300D01*
X71645329Y-83721300D01*
X71645323Y-83721301D01*
X71585716Y-83727708D01*
X71450871Y-83778002D01*
X71450864Y-83778006D01*
X71335655Y-83864252D01*
X71335652Y-83864255D01*
X71249406Y-83979464D01*
X71249402Y-83979471D01*
X71199108Y-84114317D01*
X71192701Y-84173916D01*
X71192701Y-84173923D01*
X71192700Y-84173935D01*
X71192700Y-85569670D01*
X71192701Y-85569676D01*
X71199108Y-85629283D01*
X71249402Y-85764128D01*
X71249406Y-85764135D01*
X71335652Y-85879344D01*
X71335655Y-85879347D01*
X71450864Y-85965593D01*
X71450871Y-85965597D01*
X71585717Y-86015891D01*
X71585716Y-86015891D01*
X71592644Y-86016635D01*
X71645327Y-86022300D01*
X72627417Y-86022299D01*
X72694456Y-86041983D01*
X72715098Y-86058618D01*
X73457781Y-86801301D01*
X73491266Y-86862624D01*
X73494100Y-86888982D01*
X73494100Y-87154300D01*
X73474415Y-87221339D01*
X73421611Y-87267094D01*
X73370100Y-87278300D01*
X68532500Y-87278300D01*
X68465461Y-87258615D01*
X68419706Y-87205811D01*
X68408500Y-87154300D01*
X68408500Y-84773256D01*
X68370052Y-84579970D01*
X68370051Y-84579969D01*
X68370051Y-84579965D01*
X68294632Y-84397886D01*
X68214230Y-84277555D01*
X68195715Y-84232855D01*
X68193966Y-84224060D01*
X68138601Y-84141199D01*
X68055740Y-84085834D01*
X68055734Y-84085832D01*
X68046936Y-84084082D01*
X68002243Y-84065568D01*
X67926105Y-84014695D01*
X67881919Y-83985171D01*
X67881916Y-83985169D01*
X67881914Y-83985168D01*
X67881911Y-83985166D01*
X67881906Y-83985164D01*
X67699839Y-83909750D01*
X67699829Y-83909747D01*
X67506543Y-83871300D01*
X67506541Y-83871300D01*
X67309459Y-83871300D01*
X67309457Y-83871300D01*
X67116170Y-83909747D01*
X67116160Y-83909750D01*
X66934093Y-83985164D01*
X66934082Y-83985170D01*
X66813755Y-84065569D01*
X66769063Y-84084082D01*
X66760263Y-84085832D01*
X66760261Y-84085833D01*
X66677399Y-84141199D01*
X66622033Y-84224061D01*
X66622032Y-84224063D01*
X66620282Y-84232863D01*
X66601769Y-84277555D01*
X66521370Y-84397882D01*
X66521364Y-84397893D01*
X66445950Y-84579960D01*
X66445947Y-84579970D01*
X66407500Y-84773256D01*
X66407500Y-87154300D01*
X66387815Y-87221339D01*
X66335011Y-87267094D01*
X66283500Y-87278300D01*
X63833500Y-87278300D01*
X63766461Y-87258615D01*
X63720706Y-87205811D01*
X63709500Y-87154300D01*
X63709500Y-84773256D01*
X63671052Y-84579970D01*
X63671051Y-84579969D01*
X63671051Y-84579965D01*
X63595635Y-84397893D01*
X63595635Y-84397892D01*
X63595628Y-84397879D01*
X63486139Y-84234018D01*
X63486136Y-84234014D01*
X63346785Y-84094663D01*
X63346781Y-84094660D01*
X63182920Y-83985171D01*
X63182907Y-83985164D01*
X63000839Y-83909750D01*
X63000829Y-83909747D01*
X62807543Y-83871300D01*
X62807541Y-83871300D01*
X62610459Y-83871300D01*
X62610457Y-83871300D01*
X62417170Y-83909747D01*
X62417160Y-83909750D01*
X62235092Y-83985164D01*
X62235079Y-83985171D01*
X62071218Y-84094660D01*
X62071214Y-84094663D01*
X61931863Y-84234014D01*
X61931860Y-84234018D01*
X61822371Y-84397879D01*
X61822364Y-84397892D01*
X61746950Y-84579960D01*
X61746947Y-84579970D01*
X61708500Y-84773256D01*
X61708500Y-88311605D01*
X61702431Y-88349924D01*
X61677246Y-88427431D01*
X61640300Y-88660702D01*
X61640300Y-88896897D01*
X61677246Y-89130168D01*
X61750233Y-89354796D01*
X61806674Y-89465566D01*
X61857457Y-89565233D01*
X61996283Y-89756310D01*
X62163290Y-89923317D01*
X62354367Y-90062143D01*
X62453791Y-90112802D01*
X62564803Y-90169366D01*
X62564805Y-90169366D01*
X62564808Y-90169368D01*
X62685212Y-90208489D01*
X62789431Y-90242353D01*
X63022703Y-90279300D01*
X63022708Y-90279300D01*
X67467708Y-90279300D01*
X73821711Y-90279300D01*
X73888750Y-90298985D01*
X73909392Y-90315619D01*
X74430981Y-90837208D01*
X74464466Y-90898531D01*
X74467300Y-90924889D01*
X74467300Y-102303497D01*
X74504246Y-102536768D01*
X74577233Y-102761396D01*
X74684457Y-102971833D01*
X74823283Y-103162910D01*
X74823285Y-103162912D01*
X74930981Y-103270608D01*
X74964466Y-103331931D01*
X74967300Y-103358289D01*
X74967300Y-103829500D01*
X74947615Y-103896539D01*
X74894811Y-103942294D01*
X74843300Y-103953500D01*
X66953859Y-103953500D01*
X66918856Y-103960462D01*
X66878114Y-103968566D01*
X66877779Y-103968536D01*
X66877482Y-103968690D01*
X66842980Y-103965421D01*
X66808522Y-103962337D01*
X66808257Y-103962131D01*
X66807924Y-103962100D01*
X66766243Y-103934629D01*
X66562795Y-103731181D01*
X66529310Y-103669858D01*
X66534294Y-103600166D01*
X66576166Y-103544233D01*
X66641630Y-103519816D01*
X66650476Y-103519500D01*
X66783340Y-103519500D01*
X66816203Y-103527103D01*
X66829340Y-103528348D01*
X66832580Y-103530892D01*
X66837800Y-103532100D01*
X66929204Y-103576784D01*
X66932882Y-103578582D01*
X67007818Y-103589500D01*
X67007823Y-103589500D01*
X67350977Y-103589500D01*
X67350982Y-103589500D01*
X67425918Y-103578582D01*
X67483710Y-103550329D01*
X67541499Y-103522078D01*
X67541502Y-103522076D01*
X67632476Y-103431102D01*
X67632478Y-103431099D01*
X67680958Y-103331931D01*
X67688982Y-103315518D01*
X67699900Y-103240582D01*
X67699900Y-102797418D01*
X67688982Y-102722482D01*
X67674898Y-102693673D01*
X67632478Y-102606900D01*
X67632476Y-102606897D01*
X67541502Y-102515923D01*
X67541499Y-102515921D01*
X67425921Y-102459419D01*
X67425919Y-102459418D01*
X67425918Y-102459418D01*
X67350982Y-102448500D01*
X67007818Y-102448500D01*
X66932882Y-102459418D01*
X66932880Y-102459418D01*
X66932878Y-102459419D01*
X66837800Y-102505900D01*
X66783340Y-102518500D01*
X65872300Y-102518500D01*
X65869644Y-102517720D01*
X65866958Y-102518385D01*
X65836307Y-102507931D01*
X65805261Y-102498815D01*
X65803449Y-102496724D01*
X65800829Y-102495831D01*
X65780690Y-102470458D01*
X65759506Y-102446011D01*
X65758586Y-102442611D01*
X65757391Y-102441105D01*
X65755348Y-102430634D01*
X65748916Y-102406843D01*
X65748300Y-102400685D01*
X65748300Y-102344326D01*
X65736957Y-102287303D01*
X65736361Y-102281343D01*
X65738128Y-102271946D01*
X65738128Y-102244810D01*
X65748300Y-102193674D01*
X65748300Y-101844326D01*
X65738128Y-101793188D01*
X65738128Y-101744810D01*
X65748300Y-101693674D01*
X65748300Y-101344326D01*
X65738128Y-101293188D01*
X65738128Y-101244810D01*
X65748300Y-101193674D01*
X65748300Y-100844326D01*
X65738127Y-100793187D01*
X65738085Y-100792319D01*
X65737881Y-100791918D01*
X65737899Y-100788461D01*
X65736361Y-100756657D01*
X65736957Y-100750696D01*
X65748300Y-100693674D01*
X65748300Y-100637314D01*
X65748916Y-100631157D01*
X65759815Y-100604283D01*
X65767985Y-100576461D01*
X65772787Y-100572299D01*
X65775176Y-100566410D01*
X65798877Y-100549692D01*
X65820789Y-100530706D01*
X65828028Y-100529131D01*
X65832272Y-100526138D01*
X65844139Y-100525626D01*
X65872300Y-100519500D01*
X66781340Y-100519500D01*
X66835800Y-100532100D01*
X66918030Y-100572299D01*
X66930882Y-100578582D01*
X67005818Y-100589500D01*
X67005823Y-100589500D01*
X67348977Y-100589500D01*
X67348982Y-100589500D01*
X67423918Y-100578582D01*
X67518998Y-100532100D01*
X67539499Y-100522078D01*
X67539502Y-100522076D01*
X67630476Y-100431102D01*
X67630478Y-100431099D01*
X67658729Y-100373310D01*
X67686982Y-100315518D01*
X67697900Y-100240582D01*
X67697900Y-99797418D01*
X67686982Y-99722482D01*
X67672898Y-99693673D01*
X67630478Y-99606900D01*
X67630476Y-99606897D01*
X67539502Y-99515923D01*
X67539499Y-99515921D01*
X67423921Y-99459419D01*
X67423919Y-99459418D01*
X67423918Y-99459418D01*
X67348982Y-99448500D01*
X67155142Y-99448500D01*
X67088103Y-99428815D01*
X67042348Y-99376011D01*
X67032404Y-99306853D01*
X67061429Y-99243297D01*
X67067461Y-99236819D01*
X67087540Y-99216740D01*
X67131915Y-99172365D01*
X67207681Y-99041135D01*
X67246900Y-98894766D01*
X67246900Y-98743234D01*
X67207681Y-98596865D01*
X67188512Y-98563663D01*
X67171900Y-98501664D01*
X67171900Y-95464710D01*
X67171900Y-95464708D01*
X67137792Y-95337414D01*
X67071900Y-95223286D01*
X66978714Y-95130100D01*
X66978713Y-95130099D01*
X66974383Y-95125769D01*
X66974372Y-95125759D01*
X65379516Y-93530902D01*
X65379515Y-93530901D01*
X65379514Y-93530900D01*
X65322450Y-93497954D01*
X65265387Y-93465008D01*
X65201739Y-93447954D01*
X65138092Y-93430900D01*
X65138091Y-93430900D01*
X60732276Y-93430900D01*
X60702835Y-93422255D01*
X60672849Y-93415732D01*
X60667833Y-93411977D01*
X60665237Y-93411215D01*
X60644595Y-93394581D01*
X60626019Y-93376005D01*
X60592534Y-93314682D01*
X60589700Y-93288324D01*
X60589700Y-93067730D01*
X60586846Y-93037300D01*
X60586846Y-93037298D01*
X60541993Y-92909119D01*
X60541992Y-92909117D01*
X60461350Y-92799850D01*
X60352082Y-92719207D01*
X60352080Y-92719206D01*
X60223900Y-92674353D01*
X60193470Y-92671500D01*
X60193466Y-92671500D01*
X59684934Y-92671500D01*
X59684930Y-92671500D01*
X59654500Y-92674353D01*
X59654498Y-92674353D01*
X59526319Y-92719206D01*
X59526317Y-92719207D01*
X59417050Y-92799850D01*
X59336407Y-92909117D01*
X59336406Y-92909119D01*
X59291553Y-93037298D01*
X59291553Y-93037300D01*
X59288700Y-93067730D01*
X58939700Y-93067730D01*
X58936846Y-93037300D01*
X58936846Y-93037298D01*
X58891993Y-92909119D01*
X58891993Y-92909118D01*
X58813929Y-92803344D01*
X58789959Y-92737715D01*
X58789700Y-92729711D01*
X58789700Y-92210971D01*
X58809385Y-92143932D01*
X58839391Y-92111703D01*
X58843167Y-92108876D01*
X58843167Y-92108875D01*
X58843172Y-92108872D01*
X58924036Y-92000850D01*
X58971191Y-91874422D01*
X58974846Y-91840423D01*
X58977199Y-91818544D01*
X58977200Y-91818529D01*
X58977200Y-91216270D01*
X58977199Y-91216255D01*
X58974345Y-91189718D01*
X58971191Y-91160378D01*
X58924036Y-91033950D01*
X58843172Y-90925928D01*
X58735150Y-90845064D01*
X58735147Y-90845062D01*
X58608724Y-90797909D01*
X58552844Y-90791900D01*
X58552830Y-90791900D01*
X58025570Y-90791900D01*
X58025555Y-90791900D01*
X57969675Y-90797909D01*
X57843252Y-90845062D01*
X57843249Y-90845064D01*
X57735228Y-90925928D01*
X57654364Y-91033949D01*
X57654362Y-91033952D01*
X57607209Y-91160375D01*
X57601200Y-91216255D01*
X56469000Y-91216255D01*
X56469000Y-76173935D01*
X71192700Y-76173935D01*
X71192700Y-77569670D01*
X71192701Y-77569676D01*
X71199108Y-77629283D01*
X71249402Y-77764128D01*
X71249406Y-77764135D01*
X71335652Y-77879344D01*
X71335655Y-77879347D01*
X71450864Y-77965593D01*
X71450871Y-77965597D01*
X71585717Y-78015891D01*
X71585716Y-78015891D01*
X71592644Y-78016635D01*
X71645327Y-78022300D01*
X74241072Y-78022299D01*
X74300683Y-78015891D01*
X74435531Y-77965596D01*
X74550746Y-77879346D01*
X74636996Y-77764131D01*
X74687291Y-77629283D01*
X74693700Y-77569673D01*
X74693699Y-76173928D01*
X74687291Y-76114317D01*
X74636996Y-75979469D01*
X74636995Y-75979468D01*
X74636993Y-75979464D01*
X74550747Y-75864255D01*
X74550744Y-75864252D01*
X74435535Y-75778006D01*
X74435528Y-75778002D01*
X74300682Y-75727708D01*
X74300683Y-75727708D01*
X74241083Y-75721301D01*
X74241081Y-75721300D01*
X74241073Y-75721300D01*
X74241064Y-75721300D01*
X71645329Y-75721300D01*
X71645323Y-75721301D01*
X71585716Y-75727708D01*
X71450871Y-75778002D01*
X71450864Y-75778006D01*
X71335655Y-75864252D01*
X71335652Y-75864255D01*
X71249406Y-75979464D01*
X71249402Y-75979471D01*
X71199108Y-76114317D01*
X71192701Y-76173916D01*
X71192701Y-76173923D01*
X71192700Y-76173935D01*
X56469000Y-76173935D01*
X56469000Y-72173935D01*
X71192700Y-72173935D01*
X71192700Y-73569670D01*
X71192701Y-73569676D01*
X71199108Y-73629283D01*
X71249402Y-73764128D01*
X71249406Y-73764135D01*
X71335652Y-73879344D01*
X71335655Y-73879347D01*
X71450864Y-73965593D01*
X71450871Y-73965597D01*
X71585717Y-74015891D01*
X71585716Y-74015891D01*
X71592644Y-74016635D01*
X71645327Y-74022300D01*
X74241072Y-74022299D01*
X74300683Y-74015891D01*
X74435531Y-73965596D01*
X74550746Y-73879346D01*
X74636996Y-73764131D01*
X74687291Y-73629283D01*
X74693700Y-73569673D01*
X74693699Y-72173928D01*
X74687291Y-72114317D01*
X74636996Y-71979469D01*
X74636995Y-71979468D01*
X74636993Y-71979464D01*
X74550747Y-71864255D01*
X74550744Y-71864252D01*
X74435535Y-71778006D01*
X74435528Y-71778002D01*
X74300682Y-71727708D01*
X74300683Y-71727708D01*
X74241083Y-71721301D01*
X74241081Y-71721300D01*
X74241073Y-71721300D01*
X74241064Y-71721300D01*
X71645329Y-71721300D01*
X71645323Y-71721301D01*
X71585716Y-71727708D01*
X71450871Y-71778002D01*
X71450864Y-71778006D01*
X71335655Y-71864252D01*
X71335652Y-71864255D01*
X71249406Y-71979464D01*
X71249402Y-71979471D01*
X71199108Y-72114317D01*
X71195925Y-72143927D01*
X71192701Y-72173923D01*
X71192700Y-72173935D01*
X56469000Y-72173935D01*
X56469000Y-69261936D01*
X56953001Y-69261936D01*
X56953001Y-70957663D01*
X56953002Y-70957682D01*
X56959409Y-71017281D01*
X57009703Y-71152127D01*
X57009704Y-71152128D01*
X57009705Y-71152130D01*
X57095955Y-71267346D01*
X57211171Y-71353596D01*
X57211172Y-71353596D01*
X57211173Y-71353597D01*
X57346019Y-71403891D01*
X57346018Y-71403891D01*
X57352946Y-71404635D01*
X57405629Y-71410300D01*
X57405638Y-71410300D01*
X60001364Y-71410300D01*
X60001373Y-71410300D01*
X60060983Y-71403891D01*
X60195831Y-71353596D01*
X60311047Y-71267346D01*
X60397297Y-71152130D01*
X60447592Y-71017282D01*
X60454001Y-70957672D01*
X60454001Y-69261928D01*
X60447592Y-69202318D01*
X60397297Y-69067470D01*
X60311047Y-68952254D01*
X60195831Y-68866004D01*
X60195829Y-68866003D01*
X60195828Y-68866002D01*
X60060982Y-68815708D01*
X60060983Y-68815708D01*
X60001383Y-68809301D01*
X60001381Y-68809300D01*
X60001373Y-68809300D01*
X57405629Y-68809300D01*
X57405621Y-68809300D01*
X57405618Y-68809301D01*
X57346019Y-68815708D01*
X57211173Y-68866002D01*
X57211171Y-68866004D01*
X57095955Y-68952254D01*
X57009705Y-69067470D01*
X57009703Y-69067472D01*
X56959409Y-69202318D01*
X56953002Y-69261917D01*
X56953001Y-69261936D01*
X56469000Y-69261936D01*
X56469000Y-66055530D01*
X60553001Y-66055530D01*
X60553001Y-66564069D01*
X60555854Y-66594499D01*
X60555854Y-66594501D01*
X60600707Y-66722680D01*
X60600708Y-66722682D01*
X60681352Y-66831951D01*
X60681353Y-66831952D01*
X60685527Y-66835033D01*
X60727776Y-66890682D01*
X60733232Y-66960338D01*
X60700162Y-67021886D01*
X60685527Y-67034567D01*
X60681353Y-67037647D01*
X60681352Y-67037648D01*
X60600708Y-67146917D01*
X60600707Y-67146919D01*
X60555854Y-67275098D01*
X60555854Y-67275100D01*
X60553001Y-67305530D01*
X60553001Y-67814069D01*
X60555854Y-67844499D01*
X60555854Y-67844501D01*
X60600707Y-67972680D01*
X60600708Y-67972682D01*
X60681351Y-68081950D01*
X60790619Y-68162593D01*
X60823033Y-68173935D01*
X60918800Y-68207446D01*
X60949231Y-68210300D01*
X60949235Y-68210300D01*
X61344825Y-68210300D01*
X61411864Y-68229985D01*
X61432506Y-68246619D01*
X62584187Y-69398300D01*
X62698315Y-69464192D01*
X62825608Y-69498300D01*
X62825609Y-69498300D01*
X62825610Y-69498300D01*
X66299890Y-69498300D01*
X66299892Y-69498300D01*
X66427186Y-69464192D01*
X66541314Y-69398300D01*
X66698397Y-69241215D01*
X66759718Y-69207731D01*
X66810267Y-69207280D01*
X66925995Y-69230299D01*
X66925996Y-69230300D01*
X66925997Y-69230300D01*
X67128004Y-69230300D01*
X67128004Y-69230299D01*
X67324637Y-69191187D01*
X67394228Y-69197414D01*
X67436509Y-69225123D01*
X67516500Y-69305114D01*
X67609686Y-69398300D01*
X67659223Y-69426900D01*
X67723814Y-69464192D01*
X67851107Y-69498300D01*
X67851108Y-69498300D01*
X71073644Y-69498300D01*
X71140683Y-69517985D01*
X71186438Y-69570789D01*
X71196934Y-69609049D01*
X71199108Y-69629283D01*
X71249402Y-69764128D01*
X71249406Y-69764135D01*
X71335652Y-69879344D01*
X71335655Y-69879347D01*
X71450864Y-69965593D01*
X71450871Y-69965597D01*
X71585717Y-70015891D01*
X71585716Y-70015891D01*
X71592644Y-70016635D01*
X71645327Y-70022300D01*
X74241072Y-70022299D01*
X74300683Y-70015891D01*
X74435531Y-69965596D01*
X74550746Y-69879346D01*
X74636996Y-69764131D01*
X74687291Y-69629283D01*
X74693700Y-69569673D01*
X74693699Y-68173935D01*
X89992700Y-68173935D01*
X89992700Y-69569670D01*
X89992701Y-69569676D01*
X89999108Y-69629283D01*
X90049402Y-69764128D01*
X90049406Y-69764135D01*
X90135652Y-69879344D01*
X90135655Y-69879347D01*
X90250864Y-69965593D01*
X90250871Y-69965597D01*
X90385717Y-70015891D01*
X90385716Y-70015891D01*
X90392644Y-70016635D01*
X90445327Y-70022300D01*
X93041072Y-70022299D01*
X93100683Y-70015891D01*
X93235531Y-69965596D01*
X93350746Y-69879346D01*
X93436996Y-69764131D01*
X93487291Y-69629283D01*
X93493700Y-69569673D01*
X93493699Y-68173928D01*
X93487291Y-68114317D01*
X93483367Y-68103797D01*
X93436997Y-67979471D01*
X93436993Y-67979464D01*
X93350747Y-67864255D01*
X93350744Y-67864252D01*
X93235535Y-67778006D01*
X93235528Y-67778002D01*
X93100682Y-67727708D01*
X93100683Y-67727708D01*
X93041083Y-67721301D01*
X93041081Y-67721300D01*
X93041073Y-67721300D01*
X93041064Y-67721300D01*
X90445329Y-67721300D01*
X90445323Y-67721301D01*
X90385716Y-67727708D01*
X90250871Y-67778002D01*
X90250864Y-67778006D01*
X90135655Y-67864252D01*
X90135652Y-67864255D01*
X90049406Y-67979464D01*
X90049402Y-67979471D01*
X89999108Y-68114317D01*
X89992701Y-68173916D01*
X89992701Y-68173923D01*
X89992700Y-68173935D01*
X74693699Y-68173935D01*
X74693699Y-68173928D01*
X74687291Y-68114317D01*
X74683367Y-68103797D01*
X74636997Y-67979471D01*
X74636993Y-67979464D01*
X74550747Y-67864255D01*
X74550744Y-67864252D01*
X74435535Y-67778006D01*
X74435528Y-67778002D01*
X74300682Y-67727708D01*
X74300683Y-67727708D01*
X74241083Y-67721301D01*
X74241081Y-67721300D01*
X74241073Y-67721300D01*
X74241064Y-67721300D01*
X71645329Y-67721300D01*
X71645323Y-67721301D01*
X71585716Y-67727708D01*
X71450871Y-67778002D01*
X71450864Y-67778006D01*
X71335655Y-67864252D01*
X71335652Y-67864255D01*
X71249406Y-67979464D01*
X71249402Y-67979471D01*
X71199108Y-68114317D01*
X71192701Y-68173916D01*
X71192701Y-68173923D01*
X71192700Y-68173935D01*
X71192700Y-68373300D01*
X71173015Y-68440339D01*
X71120211Y-68486094D01*
X71068700Y-68497300D01*
X68175676Y-68497300D01*
X68146235Y-68488655D01*
X68116249Y-68482132D01*
X68111233Y-68478377D01*
X68108637Y-68477615D01*
X68087995Y-68460981D01*
X68079510Y-68452496D01*
X68046025Y-68391173D01*
X68045574Y-68340623D01*
X68052500Y-68305805D01*
X68052500Y-68103796D01*
X68052499Y-68103792D01*
X68026419Y-67972680D01*
X68013091Y-67905673D01*
X67935786Y-67719044D01*
X67935784Y-67719041D01*
X67935782Y-67719037D01*
X67823558Y-67551081D01*
X67680718Y-67408241D01*
X67512762Y-67296017D01*
X67512752Y-67296012D01*
X67326127Y-67218709D01*
X67326119Y-67218707D01*
X67128007Y-67179300D01*
X67128003Y-67179300D01*
X66925997Y-67179300D01*
X66925992Y-67179300D01*
X66727880Y-67218707D01*
X66727872Y-67218709D01*
X66541247Y-67296012D01*
X66541237Y-67296017D01*
X66373281Y-67408241D01*
X66230441Y-67551081D01*
X66118217Y-67719037D01*
X66118212Y-67719047D01*
X66040909Y-67905672D01*
X66040907Y-67905680D01*
X66001500Y-68103792D01*
X66001500Y-68103796D01*
X66001500Y-68103797D01*
X66001500Y-68305803D01*
X66008426Y-68340623D01*
X66010114Y-68349110D01*
X66003885Y-68418702D01*
X65961022Y-68473879D01*
X65895132Y-68497122D01*
X65888496Y-68497300D01*
X63150177Y-68497300D01*
X63083138Y-68477615D01*
X63062496Y-68460981D01*
X62390320Y-67788805D01*
X62356835Y-67727482D01*
X62354001Y-67701124D01*
X62354001Y-67305530D01*
X62351147Y-67275100D01*
X62351147Y-67275098D01*
X62306294Y-67146919D01*
X62306293Y-67146917D01*
X62263012Y-67088273D01*
X62225651Y-67037650D01*
X62225649Y-67037649D01*
X62225649Y-67037648D01*
X62221478Y-67034570D01*
X62179227Y-66978923D01*
X62173768Y-66909267D01*
X62206835Y-66847717D01*
X62221478Y-66835030D01*
X62225648Y-66831952D01*
X62225651Y-66831950D01*
X62306294Y-66722682D01*
X62331415Y-66650890D01*
X62351147Y-66594501D01*
X62351147Y-66594499D01*
X62354001Y-66564069D01*
X62354001Y-66168476D01*
X62373686Y-66101437D01*
X62390320Y-66080795D01*
X63062496Y-65408619D01*
X63123819Y-65375134D01*
X63150177Y-65372300D01*
X65888496Y-65372300D01*
X65955535Y-65391985D01*
X66001290Y-65444789D01*
X66011234Y-65513947D01*
X66010114Y-65520490D01*
X66001500Y-65563798D01*
X66001500Y-65765807D01*
X66040907Y-65963919D01*
X66040909Y-65963927D01*
X66118212Y-66150552D01*
X66118217Y-66150562D01*
X66230441Y-66318518D01*
X66373281Y-66461358D01*
X66541237Y-66573582D01*
X66541241Y-66573584D01*
X66541244Y-66573586D01*
X66727873Y-66650891D01*
X66925992Y-66690299D01*
X66925996Y-66690300D01*
X66925997Y-66690300D01*
X67128004Y-66690300D01*
X67128005Y-66690299D01*
X67326127Y-66650891D01*
X67512756Y-66573586D01*
X67680718Y-66461358D01*
X67823558Y-66318518D01*
X67935786Y-66150556D01*
X68013091Y-65963927D01*
X68052500Y-65765803D01*
X68052500Y-65563797D01*
X68052500Y-65563794D01*
X68045574Y-65528977D01*
X68046281Y-65521067D01*
X68043506Y-65513624D01*
X68049351Y-65486760D01*
X68051801Y-65459386D01*
X68057051Y-65451374D01*
X68058362Y-65445352D01*
X68079515Y-65417099D01*
X68088001Y-65408614D01*
X68149326Y-65375132D01*
X68175677Y-65372300D01*
X71068701Y-65372300D01*
X71135740Y-65391985D01*
X71181495Y-65444789D01*
X71192701Y-65496300D01*
X71192701Y-65569676D01*
X71199108Y-65629283D01*
X71249402Y-65764128D01*
X71249406Y-65764135D01*
X71335652Y-65879344D01*
X71335655Y-65879347D01*
X71450864Y-65965593D01*
X71450871Y-65965597D01*
X71585717Y-66015891D01*
X71585716Y-66015891D01*
X71592644Y-66016635D01*
X71645327Y-66022300D01*
X74241072Y-66022299D01*
X74300683Y-66015891D01*
X74435531Y-65965596D01*
X74550746Y-65879346D01*
X74636996Y-65764131D01*
X74687291Y-65629283D01*
X74693700Y-65569673D01*
X74693699Y-64173928D01*
X74687291Y-64114317D01*
X74636996Y-63979469D01*
X74636995Y-63979468D01*
X74636993Y-63979464D01*
X74550747Y-63864255D01*
X74550744Y-63864252D01*
X74435535Y-63778006D01*
X74435528Y-63778002D01*
X74300682Y-63727708D01*
X74300683Y-63727708D01*
X74241083Y-63721301D01*
X74241081Y-63721300D01*
X74241073Y-63721300D01*
X74241064Y-63721300D01*
X71645329Y-63721300D01*
X71645323Y-63721301D01*
X71585716Y-63727708D01*
X71450871Y-63778002D01*
X71450864Y-63778006D01*
X71335655Y-63864252D01*
X71335652Y-63864255D01*
X71249406Y-63979464D01*
X71249402Y-63979471D01*
X71199108Y-64114317D01*
X71192701Y-64173916D01*
X71192701Y-64173923D01*
X71192700Y-64173935D01*
X71192700Y-64247300D01*
X71173015Y-64314339D01*
X71120211Y-64360094D01*
X71068700Y-64371300D01*
X67851107Y-64371300D01*
X67723812Y-64405408D01*
X67609686Y-64471300D01*
X67609685Y-64471301D01*
X67537460Y-64543526D01*
X67436508Y-64644477D01*
X67375184Y-64677961D01*
X67324636Y-64678412D01*
X67128007Y-64639300D01*
X67128003Y-64639300D01*
X66925997Y-64639300D01*
X66899970Y-64644477D01*
X66810267Y-64662319D01*
X66740675Y-64656090D01*
X66698396Y-64628382D01*
X66541316Y-64471302D01*
X66541314Y-64471300D01*
X66484250Y-64438354D01*
X66427187Y-64405408D01*
X66363539Y-64388354D01*
X66299892Y-64371300D01*
X62957393Y-64371300D01*
X62825608Y-64371300D01*
X62698313Y-64405408D01*
X62584187Y-64471300D01*
X62584184Y-64471302D01*
X61432506Y-65622981D01*
X61371183Y-65656466D01*
X61344825Y-65659300D01*
X60949231Y-65659300D01*
X60918801Y-65662153D01*
X60918799Y-65662153D01*
X60790620Y-65707006D01*
X60790618Y-65707007D01*
X60681351Y-65787650D01*
X60600708Y-65896917D01*
X60600707Y-65896919D01*
X60555854Y-66025098D01*
X60555854Y-66025100D01*
X60553001Y-66055530D01*
X56469000Y-66055530D01*
X56469000Y-62911936D01*
X56953001Y-62911936D01*
X56953001Y-64607663D01*
X56953002Y-64607682D01*
X56959409Y-64667281D01*
X57009703Y-64802127D01*
X57009704Y-64802128D01*
X57009705Y-64802130D01*
X57095955Y-64917346D01*
X57211171Y-65003596D01*
X57211172Y-65003596D01*
X57211173Y-65003597D01*
X57346019Y-65053891D01*
X57346018Y-65053891D01*
X57352946Y-65054635D01*
X57405629Y-65060300D01*
X57405638Y-65060300D01*
X60001364Y-65060300D01*
X60001373Y-65060300D01*
X60060983Y-65053891D01*
X60195831Y-65003596D01*
X60311047Y-64917346D01*
X60397297Y-64802130D01*
X60447592Y-64667282D01*
X60454001Y-64607672D01*
X60454001Y-62911928D01*
X60447592Y-62852318D01*
X60397297Y-62717470D01*
X60311047Y-62602254D01*
X60195831Y-62516004D01*
X60195829Y-62516003D01*
X60195828Y-62516002D01*
X60060982Y-62465708D01*
X60060983Y-62465708D01*
X60001383Y-62459301D01*
X60001381Y-62459300D01*
X60001373Y-62459300D01*
X57405629Y-62459300D01*
X57405621Y-62459300D01*
X57405618Y-62459301D01*
X57346019Y-62465708D01*
X57211173Y-62516002D01*
X57211171Y-62516004D01*
X57095955Y-62602254D01*
X57009705Y-62717470D01*
X57009703Y-62717472D01*
X56959409Y-62852318D01*
X56953002Y-62911917D01*
X56953001Y-62911936D01*
X56469000Y-62911936D01*
X56469000Y-60173935D01*
X71192700Y-60173935D01*
X71192700Y-61569670D01*
X71192701Y-61569676D01*
X71199108Y-61629283D01*
X71249402Y-61764128D01*
X71249406Y-61764135D01*
X71335652Y-61879344D01*
X71335655Y-61879347D01*
X71450864Y-61965593D01*
X71450871Y-61965597D01*
X71585717Y-62015891D01*
X71585716Y-62015891D01*
X71592644Y-62016635D01*
X71645327Y-62022300D01*
X74241072Y-62022299D01*
X74300683Y-62015891D01*
X74435531Y-61965596D01*
X74550746Y-61879346D01*
X74636996Y-61764131D01*
X74687291Y-61629283D01*
X74693700Y-61569673D01*
X74693700Y-61496300D01*
X74713385Y-61429261D01*
X74766189Y-61383506D01*
X74817700Y-61372300D01*
X83235090Y-61372300D01*
X83235092Y-61372300D01*
X83362386Y-61338192D01*
X83476514Y-61272300D01*
X91638195Y-53110619D01*
X91699518Y-53077134D01*
X91725876Y-53074300D01*
X96528412Y-53074300D01*
X96595451Y-53093985D01*
X96631513Y-53129408D01*
X96672609Y-53190912D01*
X96692810Y-53221146D01*
X96834252Y-53362588D01*
X96834256Y-53362591D01*
X97000573Y-53473721D01*
X97000586Y-53473728D01*
X97185384Y-53550273D01*
X97185389Y-53550275D01*
X97381577Y-53589299D01*
X97381581Y-53589300D01*
X97381582Y-53589300D01*
X97581619Y-53589300D01*
X97581620Y-53589299D01*
X97777811Y-53550275D01*
X97962620Y-53473725D01*
X98128944Y-53362591D01*
X98270391Y-53221144D01*
X98331686Y-53129408D01*
X98385297Y-53084604D01*
X98434788Y-53074300D01*
X101165324Y-53074300D01*
X101232363Y-53093985D01*
X101253005Y-53110619D01*
X101933989Y-53791603D01*
X101967474Y-53852926D01*
X101962490Y-53922618D01*
X101920618Y-53978551D01*
X101919944Y-53979052D01*
X101909651Y-53986648D01*
X101829007Y-54095917D01*
X101829006Y-54095919D01*
X101784153Y-54224098D01*
X101784153Y-54224100D01*
X101781300Y-54254530D01*
X101781300Y-54763069D01*
X101784153Y-54793499D01*
X101784153Y-54793501D01*
X101829006Y-54921680D01*
X101829007Y-54921682D01*
X101909650Y-55030950D01*
X101913823Y-55034030D01*
X101930249Y-55055663D01*
X101949347Y-55074973D01*
X101951062Y-55083075D01*
X101956073Y-55089674D01*
X101958195Y-55116756D01*
X101963822Y-55143326D01*
X101960884Y-55151070D01*
X101961532Y-55159330D01*
X101948676Y-55183259D01*
X101939045Y-55208655D01*
X101930485Y-55217120D01*
X101928466Y-55220880D01*
X101913951Y-55233474D01*
X101913274Y-55233975D01*
X101847677Y-55258031D01*
X101839512Y-55258300D01*
X98621100Y-55258300D01*
X98554061Y-55238615D01*
X98508306Y-55185811D01*
X98497100Y-55134300D01*
X98497100Y-55013781D01*
X98497099Y-55013777D01*
X98458076Y-54817596D01*
X98458075Y-54817589D01*
X98458073Y-54817584D01*
X98381528Y-54632786D01*
X98381521Y-54632773D01*
X98270391Y-54466456D01*
X98270388Y-54466452D01*
X98128947Y-54325011D01*
X98128943Y-54325008D01*
X97962626Y-54213878D01*
X97962613Y-54213871D01*
X97777815Y-54137326D01*
X97777803Y-54137323D01*
X97581622Y-54098300D01*
X97581618Y-54098300D01*
X97381582Y-54098300D01*
X97381577Y-54098300D01*
X97185396Y-54137323D01*
X97185384Y-54137326D01*
X97000586Y-54213871D01*
X97000573Y-54213878D01*
X96834256Y-54325008D01*
X96834252Y-54325011D01*
X96692810Y-54466453D01*
X96656349Y-54521021D01*
X96631513Y-54558191D01*
X96577903Y-54602996D01*
X96528412Y-54613300D01*
X95942508Y-54613300D01*
X95815212Y-54647408D01*
X95701086Y-54713300D01*
X95701083Y-54713302D01*
X94204405Y-56209981D01*
X94143082Y-56243466D01*
X94116724Y-56246300D01*
X93612864Y-56246300D01*
X93545825Y-56226615D01*
X93500070Y-56173811D01*
X93489574Y-56135554D01*
X93489370Y-56133657D01*
X93487291Y-56114317D01*
X93436996Y-55979469D01*
X93436995Y-55979468D01*
X93436993Y-55979464D01*
X93350747Y-55864255D01*
X93350744Y-55864252D01*
X93235535Y-55778006D01*
X93235528Y-55778002D01*
X93100682Y-55727708D01*
X93100683Y-55727708D01*
X93041083Y-55721301D01*
X93041081Y-55721300D01*
X93041073Y-55721300D01*
X93041064Y-55721300D01*
X90445329Y-55721300D01*
X90445323Y-55721301D01*
X90385716Y-55727708D01*
X90250871Y-55778002D01*
X90250864Y-55778006D01*
X90135655Y-55864252D01*
X90135652Y-55864255D01*
X90049406Y-55979464D01*
X90049402Y-55979471D01*
X89999108Y-56114317D01*
X89992701Y-56173916D01*
X89992700Y-56173935D01*
X89992700Y-57569670D01*
X89992701Y-57569676D01*
X89999108Y-57629283D01*
X90049402Y-57764128D01*
X90049406Y-57764135D01*
X90135652Y-57879344D01*
X90135655Y-57879347D01*
X90250864Y-57965593D01*
X90250871Y-57965597D01*
X90385717Y-58015891D01*
X90385716Y-58015891D01*
X90392644Y-58016635D01*
X90445327Y-58022300D01*
X93041072Y-58022299D01*
X93100683Y-58015891D01*
X93235531Y-57965596D01*
X93350746Y-57879346D01*
X93436996Y-57764131D01*
X93487291Y-57629283D01*
X93493700Y-57569673D01*
X93493700Y-57371300D01*
X93513385Y-57304261D01*
X93566189Y-57258506D01*
X93617700Y-57247300D01*
X94441290Y-57247300D01*
X94441292Y-57247300D01*
X94568586Y-57213192D01*
X94682714Y-57147300D01*
X96179395Y-55650619D01*
X96240718Y-55617134D01*
X96267076Y-55614300D01*
X96528412Y-55614300D01*
X96595451Y-55633985D01*
X96631513Y-55669408D01*
X96666186Y-55721300D01*
X96692810Y-55761146D01*
X96834252Y-55902588D01*
X96834256Y-55902591D01*
X97000573Y-56013721D01*
X97000586Y-56013728D01*
X97185384Y-56090273D01*
X97185389Y-56090275D01*
X97381577Y-56129299D01*
X97381581Y-56129300D01*
X97381582Y-56129300D01*
X97581619Y-56129300D01*
X97597088Y-56126222D01*
X97689827Y-56107775D01*
X97759414Y-56114001D01*
X97801697Y-56141711D01*
X97819286Y-56159300D01*
X97933414Y-56225192D01*
X98060708Y-56259300D01*
X98192493Y-56259300D01*
X101839512Y-56259300D01*
X101860386Y-56265429D01*
X101882094Y-56266841D01*
X101902428Y-56277774D01*
X101906551Y-56278985D01*
X101913179Y-56283555D01*
X101913856Y-56284055D01*
X101956088Y-56339716D01*
X101961523Y-56409374D01*
X101928435Y-56470913D01*
X101913856Y-56483545D01*
X101913179Y-56484045D01*
X101888428Y-56493095D01*
X101867330Y-56504793D01*
X101858080Y-56504191D01*
X101847558Y-56508039D01*
X101839512Y-56508300D01*
X98192493Y-56508300D01*
X98060708Y-56508300D01*
X97933414Y-56542408D01*
X97933413Y-56542408D01*
X97933411Y-56542409D01*
X97933410Y-56542409D01*
X97819284Y-56608300D01*
X97801695Y-56625889D01*
X97740371Y-56659373D01*
X97689825Y-56659823D01*
X97581622Y-56638300D01*
X97581618Y-56638300D01*
X97381582Y-56638300D01*
X97381577Y-56638300D01*
X97185396Y-56677323D01*
X97185384Y-56677326D01*
X97000586Y-56753871D01*
X97000573Y-56753878D01*
X96834256Y-56865008D01*
X96834252Y-56865011D01*
X96692811Y-57006452D01*
X96692808Y-57006456D01*
X96581678Y-57172773D01*
X96581671Y-57172786D01*
X96505126Y-57357584D01*
X96505123Y-57357596D01*
X96466100Y-57553777D01*
X96466100Y-57753822D01*
X96487623Y-57862026D01*
X96481396Y-57931618D01*
X96453687Y-57973898D01*
X94092605Y-60334981D01*
X94031282Y-60368466D01*
X94004924Y-60371300D01*
X93617699Y-60371300D01*
X93550660Y-60351615D01*
X93504905Y-60298811D01*
X93493699Y-60247300D01*
X93493699Y-60173929D01*
X93493698Y-60173923D01*
X93493697Y-60173916D01*
X93487291Y-60114317D01*
X93436996Y-59979469D01*
X93436995Y-59979468D01*
X93436993Y-59979464D01*
X93350747Y-59864255D01*
X93350744Y-59864252D01*
X93235535Y-59778006D01*
X93235528Y-59778002D01*
X93100682Y-59727708D01*
X93100683Y-59727708D01*
X93041083Y-59721301D01*
X93041081Y-59721300D01*
X93041073Y-59721300D01*
X93041064Y-59721300D01*
X90445329Y-59721300D01*
X90445323Y-59721301D01*
X90385716Y-59727708D01*
X90250871Y-59778002D01*
X90250864Y-59778006D01*
X90135655Y-59864252D01*
X90135652Y-59864255D01*
X90049406Y-59979464D01*
X90049402Y-59979471D01*
X89999108Y-60114317D01*
X89992701Y-60173916D01*
X89992701Y-60173923D01*
X89992700Y-60173935D01*
X89992700Y-61569670D01*
X89992701Y-61569676D01*
X89999108Y-61629283D01*
X90049402Y-61764128D01*
X90049406Y-61764135D01*
X90135652Y-61879344D01*
X90135655Y-61879347D01*
X90250864Y-61965593D01*
X90250871Y-61965597D01*
X90385717Y-62015891D01*
X90385716Y-62015891D01*
X90392644Y-62016635D01*
X90445327Y-62022300D01*
X93041072Y-62022299D01*
X93100683Y-62015891D01*
X93235531Y-61965596D01*
X93350746Y-61879346D01*
X93436996Y-61764131D01*
X93487291Y-61629283D01*
X93493700Y-61569673D01*
X93493700Y-61496300D01*
X93513385Y-61429261D01*
X93566189Y-61383506D01*
X93617700Y-61372300D01*
X94329490Y-61372300D01*
X94329492Y-61372300D01*
X94456786Y-61338192D01*
X94570914Y-61272300D01*
X96254419Y-59588792D01*
X96315742Y-59555308D01*
X96385433Y-59560292D01*
X96441367Y-59602164D01*
X96465784Y-59667628D01*
X96466100Y-59676474D01*
X96466100Y-60983478D01*
X96480632Y-61056535D01*
X96480633Y-61056539D01*
X96480634Y-61056540D01*
X96535999Y-61139401D01*
X96618860Y-61194766D01*
X96618865Y-61194767D01*
X96625284Y-61197426D01*
X96679689Y-61241265D01*
X96701756Y-61307559D01*
X96684479Y-61375259D01*
X96665516Y-61399670D01*
X93730205Y-64334981D01*
X93703277Y-64349684D01*
X93677459Y-64366277D01*
X93671258Y-64367168D01*
X93668882Y-64368466D01*
X93642524Y-64371300D01*
X93617699Y-64371300D01*
X93550660Y-64351615D01*
X93504905Y-64298811D01*
X93493699Y-64247300D01*
X93493699Y-64173929D01*
X93493698Y-64173923D01*
X93493697Y-64173916D01*
X93487291Y-64114317D01*
X93436996Y-63979469D01*
X93436995Y-63979468D01*
X93436993Y-63979464D01*
X93350747Y-63864255D01*
X93350744Y-63864252D01*
X93235535Y-63778006D01*
X93235528Y-63778002D01*
X93100682Y-63727708D01*
X93100683Y-63727708D01*
X93041083Y-63721301D01*
X93041081Y-63721300D01*
X93041073Y-63721300D01*
X93041064Y-63721300D01*
X90445329Y-63721300D01*
X90445323Y-63721301D01*
X90385716Y-63727708D01*
X90250871Y-63778002D01*
X90250864Y-63778006D01*
X90135655Y-63864252D01*
X90135652Y-63864255D01*
X90049406Y-63979464D01*
X90049402Y-63979471D01*
X89999108Y-64114317D01*
X89992701Y-64173916D01*
X89992701Y-64173923D01*
X89992700Y-64173935D01*
X89992700Y-65569670D01*
X89992701Y-65569676D01*
X89999108Y-65629283D01*
X90049402Y-65764128D01*
X90049406Y-65764135D01*
X90135652Y-65879344D01*
X90135655Y-65879347D01*
X90250864Y-65965593D01*
X90250871Y-65965597D01*
X90385717Y-66015891D01*
X90385716Y-66015891D01*
X90392644Y-66016635D01*
X90445327Y-66022300D01*
X93041072Y-66022299D01*
X93100683Y-66015891D01*
X93235531Y-65965596D01*
X93350746Y-65879346D01*
X93436996Y-65764131D01*
X93487291Y-65629283D01*
X93493700Y-65569673D01*
X93493700Y-65496300D01*
X93513385Y-65429261D01*
X93566189Y-65383506D01*
X93617700Y-65372300D01*
X93967090Y-65372300D01*
X93967092Y-65372300D01*
X94094386Y-65338192D01*
X94208514Y-65272300D01*
X94846277Y-64634536D01*
X103681300Y-64634536D01*
X103681300Y-66330263D01*
X103681301Y-66330282D01*
X103687708Y-66389881D01*
X103738002Y-66524727D01*
X103738003Y-66524728D01*
X103738004Y-66524730D01*
X103824254Y-66639946D01*
X103939470Y-66726196D01*
X103939471Y-66726196D01*
X103939472Y-66726197D01*
X104074318Y-66776491D01*
X104074317Y-66776491D01*
X104081245Y-66777235D01*
X104133928Y-66782900D01*
X104133937Y-66782900D01*
X106729663Y-66782900D01*
X106729672Y-66782900D01*
X106789282Y-66776491D01*
X106924130Y-66726196D01*
X107039346Y-66639946D01*
X107125596Y-66524730D01*
X107175891Y-66389882D01*
X107182300Y-66330272D01*
X107182300Y-64634528D01*
X107175891Y-64574918D01*
X107137245Y-64471302D01*
X107125597Y-64440072D01*
X107125596Y-64440071D01*
X107125596Y-64440070D01*
X107039346Y-64324854D01*
X106924130Y-64238604D01*
X106924128Y-64238603D01*
X106924127Y-64238602D01*
X106789281Y-64188308D01*
X106789282Y-64188308D01*
X106729682Y-64181901D01*
X106729680Y-64181900D01*
X106729672Y-64181900D01*
X104133928Y-64181900D01*
X104133920Y-64181900D01*
X104133917Y-64181901D01*
X104074318Y-64188308D01*
X103939472Y-64238602D01*
X103939470Y-64238604D01*
X103824254Y-64324854D01*
X103738004Y-64440070D01*
X103738002Y-64440072D01*
X103687708Y-64574918D01*
X103681301Y-64634517D01*
X103681300Y-64634536D01*
X94846277Y-64634536D01*
X97778704Y-61702107D01*
X97778709Y-61702104D01*
X97788912Y-61691900D01*
X97788914Y-61691900D01*
X97882100Y-61598714D01*
X97947992Y-61484586D01*
X97982100Y-61357292D01*
X97982100Y-61333300D01*
X98001785Y-61266261D01*
X98054589Y-61220506D01*
X98106100Y-61209300D01*
X98271276Y-61209300D01*
X98271277Y-61209299D01*
X98344340Y-61194766D01*
X98427201Y-61139401D01*
X98482566Y-61056540D01*
X98497100Y-60983474D01*
X98497100Y-60818300D01*
X98516785Y-60751261D01*
X98569589Y-60705506D01*
X98621100Y-60694300D01*
X101489890Y-60694300D01*
X101489892Y-60694300D01*
X101617186Y-60660192D01*
X101731314Y-60594300D01*
X102364678Y-59960936D01*
X103681300Y-59960936D01*
X103681300Y-61656663D01*
X103681301Y-61656682D01*
X103687708Y-61716281D01*
X103738002Y-61851127D01*
X103738003Y-61851128D01*
X103738004Y-61851130D01*
X103824254Y-61966346D01*
X103939470Y-62052596D01*
X103939471Y-62052596D01*
X103939472Y-62052597D01*
X104074318Y-62102891D01*
X104074317Y-62102891D01*
X104081245Y-62103635D01*
X104133928Y-62109300D01*
X104133937Y-62109300D01*
X106729663Y-62109300D01*
X106729672Y-62109300D01*
X106789282Y-62102891D01*
X106924130Y-62052596D01*
X107039346Y-61966346D01*
X107125596Y-61851130D01*
X107175891Y-61716282D01*
X107182300Y-61656672D01*
X107182300Y-59960928D01*
X107175891Y-59901318D01*
X107125596Y-59766470D01*
X107039346Y-59651254D01*
X106924130Y-59565004D01*
X106924128Y-59565003D01*
X106924127Y-59565002D01*
X106789281Y-59514708D01*
X106789282Y-59514708D01*
X106729682Y-59508301D01*
X106729680Y-59508300D01*
X106729672Y-59508300D01*
X104133928Y-59508300D01*
X104133920Y-59508300D01*
X104133917Y-59508301D01*
X104074318Y-59514708D01*
X103939472Y-59565002D01*
X103939470Y-59565004D01*
X103824254Y-59651254D01*
X103738004Y-59766470D01*
X103738002Y-59766472D01*
X103687708Y-59901318D01*
X103681301Y-59960917D01*
X103681300Y-59960936D01*
X102364678Y-59960936D01*
X103082300Y-59243314D01*
X103148192Y-59129186D01*
X103182300Y-59001892D01*
X103182300Y-59001883D01*
X103183361Y-58993832D01*
X103185891Y-58994165D01*
X103201985Y-58939356D01*
X103254789Y-58893601D01*
X103265323Y-58889361D01*
X103344682Y-58861593D01*
X103453950Y-58780950D01*
X103534593Y-58671682D01*
X103575868Y-58553725D01*
X103579446Y-58543501D01*
X103579446Y-58543499D01*
X103582300Y-58513069D01*
X103582300Y-58004530D01*
X103579446Y-57974100D01*
X103579446Y-57974098D01*
X103534593Y-57845919D01*
X103534592Y-57845917D01*
X103453950Y-57736650D01*
X103453948Y-57736649D01*
X103453948Y-57736648D01*
X103449777Y-57733570D01*
X103407526Y-57677923D01*
X103402067Y-57608267D01*
X103435134Y-57546717D01*
X103449777Y-57534030D01*
X103451024Y-57533108D01*
X103453950Y-57530950D01*
X103534593Y-57421682D01*
X103557022Y-57357584D01*
X103579446Y-57293501D01*
X103579446Y-57293499D01*
X103582300Y-57263069D01*
X103582300Y-56754530D01*
X103579446Y-56724100D01*
X103579446Y-56724098D01*
X103545080Y-56625889D01*
X103534593Y-56595918D01*
X103453950Y-56486650D01*
X103453948Y-56486649D01*
X103453948Y-56486648D01*
X103449777Y-56483570D01*
X103407526Y-56427923D01*
X103402067Y-56358267D01*
X103435134Y-56296717D01*
X103449777Y-56284030D01*
X103451024Y-56283108D01*
X103453950Y-56280950D01*
X103534593Y-56171682D01*
X103563078Y-56090276D01*
X103579446Y-56043501D01*
X103579446Y-56043499D01*
X103582300Y-56013069D01*
X103582300Y-55504530D01*
X103579446Y-55474100D01*
X103579446Y-55474098D01*
X103534593Y-55345919D01*
X103534592Y-55345917D01*
X103469928Y-55258300D01*
X103453950Y-55236650D01*
X103453948Y-55236649D01*
X103453948Y-55236648D01*
X103449777Y-55233570D01*
X103407526Y-55177923D01*
X103402067Y-55108267D01*
X103435134Y-55046717D01*
X103449777Y-55034030D01*
X103451024Y-55033108D01*
X103453950Y-55030950D01*
X103534593Y-54921682D01*
X103557019Y-54857590D01*
X103579446Y-54793501D01*
X103579446Y-54793499D01*
X103582300Y-54763069D01*
X103582300Y-54254530D01*
X103579446Y-54224100D01*
X103579446Y-54224098D01*
X103534593Y-54095919D01*
X103534592Y-54095917D01*
X103453950Y-53986650D01*
X103344682Y-53906007D01*
X103265344Y-53878245D01*
X103208569Y-53837523D01*
X103182822Y-53772570D01*
X103182617Y-53768123D01*
X103182300Y-53765715D01*
X103182300Y-53765708D01*
X103148192Y-53638414D01*
X103082300Y-53524286D01*
X102989114Y-53431100D01*
X101731314Y-52173300D01*
X101674250Y-52140354D01*
X101617187Y-52107408D01*
X101553539Y-52090354D01*
X101489892Y-52073300D01*
X101489891Y-52073300D01*
X98434788Y-52073300D01*
X98367749Y-52053615D01*
X98331686Y-52018191D01*
X98270391Y-51926456D01*
X98270389Y-51926453D01*
X98128947Y-51785011D01*
X98128943Y-51785008D01*
X97962626Y-51673878D01*
X97962613Y-51673871D01*
X97777815Y-51597326D01*
X97777803Y-51597323D01*
X97581622Y-51558300D01*
X97581618Y-51558300D01*
X97381582Y-51558300D01*
X97381577Y-51558300D01*
X97185396Y-51597323D01*
X97185384Y-51597326D01*
X97000586Y-51673871D01*
X97000573Y-51673878D01*
X96834256Y-51785008D01*
X96834252Y-51785011D01*
X96692810Y-51926453D01*
X96656349Y-51981021D01*
X96631513Y-52018191D01*
X96577903Y-52062996D01*
X96528412Y-52073300D01*
X91401307Y-52073300D01*
X91274012Y-52107408D01*
X91159886Y-52173300D01*
X91159883Y-52173302D01*
X82998205Y-60334981D01*
X82936882Y-60368466D01*
X82910524Y-60371300D01*
X74817699Y-60371300D01*
X74750660Y-60351615D01*
X74704905Y-60298811D01*
X74693699Y-60247300D01*
X74693699Y-60173929D01*
X74693698Y-60173923D01*
X74693697Y-60173916D01*
X74687291Y-60114317D01*
X74636996Y-59979469D01*
X74636995Y-59979468D01*
X74636993Y-59979464D01*
X74550747Y-59864255D01*
X74550744Y-59864252D01*
X74435535Y-59778006D01*
X74435528Y-59778002D01*
X74300682Y-59727708D01*
X74300683Y-59727708D01*
X74241083Y-59721301D01*
X74241081Y-59721300D01*
X74241073Y-59721300D01*
X74241064Y-59721300D01*
X71645329Y-59721300D01*
X71645323Y-59721301D01*
X71585716Y-59727708D01*
X71450871Y-59778002D01*
X71450864Y-59778006D01*
X71335655Y-59864252D01*
X71335652Y-59864255D01*
X71249406Y-59979464D01*
X71249402Y-59979471D01*
X71199108Y-60114317D01*
X71192701Y-60173916D01*
X71192701Y-60173923D01*
X71192700Y-60173935D01*
X56469000Y-60173935D01*
X56469000Y-51110936D01*
X103681300Y-51110936D01*
X103681300Y-52806663D01*
X103681301Y-52806682D01*
X103687708Y-52866281D01*
X103738002Y-53001127D01*
X103738003Y-53001128D01*
X103738004Y-53001130D01*
X103824254Y-53116346D01*
X103939470Y-53202596D01*
X103939471Y-53202596D01*
X103939472Y-53202597D01*
X104074318Y-53252891D01*
X104074317Y-53252891D01*
X104081245Y-53253635D01*
X104133928Y-53259300D01*
X104133937Y-53259300D01*
X106729663Y-53259300D01*
X106729672Y-53259300D01*
X106789282Y-53252891D01*
X106924130Y-53202596D01*
X107039346Y-53116346D01*
X107125596Y-53001130D01*
X107175891Y-52866282D01*
X107182300Y-52806672D01*
X107182300Y-51110928D01*
X107175891Y-51051318D01*
X107125596Y-50916470D01*
X107039346Y-50801254D01*
X106924130Y-50715004D01*
X106924128Y-50715003D01*
X106924127Y-50715002D01*
X106789281Y-50664708D01*
X106789282Y-50664708D01*
X106729682Y-50658301D01*
X106729680Y-50658300D01*
X106729672Y-50658300D01*
X104133928Y-50658300D01*
X104133920Y-50658300D01*
X104133917Y-50658301D01*
X104074318Y-50664708D01*
X103939472Y-50715002D01*
X103939470Y-50715004D01*
X103824254Y-50801254D01*
X103738004Y-50916470D01*
X103738002Y-50916472D01*
X103687708Y-51051318D01*
X103681301Y-51110917D01*
X103681300Y-51110936D01*
X56469000Y-51110936D01*
X56469000Y-47922777D01*
X56488685Y-47855738D01*
X56541489Y-47809983D01*
X56610647Y-47800039D01*
X56674203Y-47829064D01*
X56710041Y-47881822D01*
X56791932Y-48115852D01*
X56938152Y-48419481D01*
X56938154Y-48419484D01*
X57117454Y-48704837D01*
X57327575Y-48968321D01*
X57565877Y-49206623D01*
X57829361Y-49416744D01*
X58114714Y-49596044D01*
X58418349Y-49742267D01*
X58657248Y-49825861D01*
X58736434Y-49853570D01*
X58736446Y-49853574D01*
X59065006Y-49928565D01*
X59399892Y-49966297D01*
X59399893Y-49966298D01*
X59399896Y-49966298D01*
X59736907Y-49966298D01*
X59736907Y-49966297D01*
X60071794Y-49928565D01*
X60400354Y-49853574D01*
X60718451Y-49742267D01*
X61022086Y-49596044D01*
X61307439Y-49416744D01*
X61570923Y-49206623D01*
X61809225Y-48968321D01*
X62019346Y-48704837D01*
X62198646Y-48419484D01*
X62344869Y-48115849D01*
X62456176Y-47797752D01*
X62531167Y-47469192D01*
X62568900Y-47134302D01*
X62568900Y-46797294D01*
X62531167Y-46462404D01*
X62456176Y-46133844D01*
X62344869Y-45815747D01*
X62321246Y-45766693D01*
X91017297Y-45766693D01*
X92022528Y-45766693D01*
X92022528Y-44304837D01*
X91017297Y-44304837D01*
X91017297Y-45766693D01*
X62321246Y-45766693D01*
X62198646Y-45512112D01*
X62019346Y-45226759D01*
X61809225Y-44963275D01*
X61570923Y-44724973D01*
X61307439Y-44514852D01*
X61022086Y-44335552D01*
X61022083Y-44335550D01*
X60718454Y-44189330D01*
X60484425Y-44107439D01*
X60427649Y-44066718D01*
X60401902Y-44001765D01*
X60415358Y-43933203D01*
X60463746Y-43882800D01*
X60525380Y-43866398D01*
X103611620Y-43866398D01*
X103678659Y-43886083D01*
G37*
G04 #@! TD.AperFunction*
G04 #@! TD*
M02*
