G04 #@! TF.GenerationSoftware,KiCad,Pcbnew,9.0.9.1-1.fc43*
G04 #@! TF.CreationDate,2026-06-11T17:20:55-03:00*
G04 #@! TF.ProjectId,lrfhss-test-board,6c726668-7373-42d7-9465-73742d626f61,v0.0*
G04 #@! TF.SameCoordinates,Original*
G04 #@! TF.FileFunction,Paste,Top*
G04 #@! TF.FilePolarity,Positive*
%FSLAX46Y46*%
G04 Gerber Fmt 4.6, Leading zero omitted, Abs format (unit mm)*
G04 Created by KiCad (PCBNEW 9.0.9.1-1.fc43) date 2026-06-11 17:20:55*
%MOMM*%
%LPD*%
G01*
G04 APERTURE LIST*
G04 Aperture macros list*
%AMRoundRect*
0 Rectangle with rounded corners*
0 $1 Rounding radius*
0 $2 $3 $4 $5 $6 $7 $8 $9 X,Y pos of 4 corners*
0 Add a 4 corners polygon primitive as box body*
4,1,4,$2,$3,$4,$5,$6,$7,$8,$9,$2,$3,0*
0 Add four circle primitives for the rounded corners*
1,1,$1+$1,$2,$3*
1,1,$1+$1,$4,$5*
1,1,$1+$1,$6,$7*
1,1,$1+$1,$8,$9*
0 Add four rect primitives between the rounded corners*
20,1,$1+$1,$2,$3,$4,$5,0*
20,1,$1+$1,$4,$5,$6,$7,0*
20,1,$1+$1,$6,$7,$8,$9,0*
20,1,$1+$1,$8,$9,$2,$3,0*%
G04 Aperture macros list end*
%ADD10RoundRect,0.200000X0.450000X-0.200000X0.450000X0.200000X-0.450000X0.200000X-0.450000X-0.200000X0*%
%ADD11RoundRect,0.250001X1.249999X-0.799999X1.249999X0.799999X-1.249999X0.799999X-1.249999X-0.799999X0*%
%ADD12RoundRect,0.250000X1.250000X-0.650000X1.250000X0.650000X-1.250000X0.650000X-1.250000X-0.650000X0*%
%ADD13RoundRect,0.321429X1.178571X-0.578571X1.178571X0.578571X-1.178571X0.578571X-1.178571X-0.578571X0*%
%ADD14RoundRect,0.225000X-0.250000X0.225000X-0.250000X-0.225000X0.250000X-0.225000X0.250000X0.225000X0*%
%ADD15RoundRect,0.200000X-0.450000X0.200000X-0.450000X-0.200000X0.450000X-0.200000X0.450000X0.200000X0*%
%ADD16RoundRect,0.250001X-1.249999X0.799999X-1.249999X-0.799999X1.249999X-0.799999X1.249999X0.799999X0*%
%ADD17RoundRect,0.250000X-0.250000X-0.475000X0.250000X-0.475000X0.250000X0.475000X-0.250000X0.475000X0*%
%ADD18RoundRect,0.200000X-0.200000X-0.275000X0.200000X-0.275000X0.200000X0.275000X-0.200000X0.275000X0*%
%ADD19RoundRect,0.375000X-0.375000X0.625000X-0.375000X-0.625000X0.375000X-0.625000X0.375000X0.625000X0*%
%ADD20RoundRect,0.500000X-1.400000X0.500000X-1.400000X-0.500000X1.400000X-0.500000X1.400000X0.500000X0*%
%ADD21R,1.450000X0.600000*%
%ADD22R,1.450000X0.300000*%
%ADD23R,5.080000X2.286000*%
%ADD24R,5.080000X2.413000*%
%ADD25RoundRect,0.218750X0.218750X0.256250X-0.218750X0.256250X-0.218750X-0.256250X0.218750X-0.256250X0*%
%ADD26RoundRect,0.135000X0.135000X0.185000X-0.135000X0.185000X-0.135000X-0.185000X0.135000X-0.185000X0*%
%ADD27RoundRect,0.135000X-0.135000X-0.185000X0.135000X-0.185000X0.135000X0.185000X-0.135000X0.185000X0*%
G04 APERTURE END LIST*
D10*
G04 #@! TO.C,J4*
X102681800Y-58258800D03*
X102681800Y-57008800D03*
X102681800Y-55758800D03*
X102681800Y-54508800D03*
D11*
X105431800Y-60808800D03*
X105431800Y-51958800D03*
G04 #@! TD*
D12*
G04 #@! TO.C,U1*
X72943200Y-84871800D03*
X72943200Y-80871800D03*
X72943200Y-76871800D03*
X72943200Y-72871800D03*
X72943200Y-68871800D03*
X72943200Y-64871800D03*
X72943200Y-60871800D03*
X72943200Y-56871800D03*
X91743200Y-56871800D03*
X91743200Y-60871800D03*
X91743200Y-64871800D03*
X91743200Y-68871800D03*
D13*
X91743200Y-72871800D03*
D12*
X91743200Y-76871800D03*
X91743200Y-80871800D03*
X91743200Y-84871800D03*
G04 #@! TD*
D14*
G04 #@! TO.C,C4*
X62709000Y-83321800D03*
X62709000Y-84871800D03*
G04 #@! TD*
D15*
G04 #@! TO.C,J2*
X61453501Y-66309800D03*
X61453501Y-67559800D03*
D16*
X58703501Y-63759800D03*
X58703501Y-70109800D03*
G04 #@! TD*
D17*
G04 #@! TO.C,C2*
X78739500Y-112066400D03*
X80639500Y-112066400D03*
G04 #@! TD*
D18*
G04 #@! TO.C,R4*
X58289200Y-93397000D03*
X59939200Y-93397000D03*
G04 #@! TD*
D19*
G04 #@! TO.C,U2*
X88159800Y-108306800D03*
X85859800Y-108306800D03*
D20*
X85859800Y-114606800D03*
D19*
X83559800Y-108306800D03*
G04 #@! TD*
D10*
G04 #@! TO.C,J3*
X102681800Y-69282400D03*
X102681800Y-68032400D03*
D11*
X105431800Y-71832400D03*
X105431800Y-65482400D03*
G04 #@! TD*
D21*
G04 #@! TO.C,J1*
X64772800Y-98019000D03*
X64772800Y-98819000D03*
D22*
X64772800Y-100019000D03*
X64772800Y-101019000D03*
X64772800Y-101519000D03*
X64772800Y-102519000D03*
D21*
X64772800Y-103719000D03*
X64772800Y-104519000D03*
X64772800Y-104519000D03*
X64772800Y-103719000D03*
D22*
X64772800Y-103019000D03*
X64772800Y-102019000D03*
X64772800Y-100519000D03*
X64772800Y-99519000D03*
D21*
X64772800Y-98819000D03*
X64772800Y-98019000D03*
G04 #@! TD*
D23*
G04 #@! TO.C,J5*
X103603000Y-84871800D03*
D24*
X103603000Y-80490300D03*
X103603000Y-89253300D03*
G04 #@! TD*
D25*
G04 #@! TO.C,D1*
X59864200Y-91517400D03*
X58289200Y-91517400D03*
G04 #@! TD*
D26*
G04 #@! TO.C,R3*
X68197400Y-100019000D03*
X67177400Y-100019000D03*
G04 #@! TD*
D27*
G04 #@! TO.C,R1*
X62837800Y-107665100D03*
X63857800Y-107665100D03*
G04 #@! TD*
D17*
G04 #@! TO.C,C1*
X78739500Y-108306800D03*
X80639500Y-108306800D03*
G04 #@! TD*
D26*
G04 #@! TO.C,R2*
X68199400Y-103019000D03*
X67179400Y-103019000D03*
G04 #@! TD*
M02*
