M48
; DRILL file {KiCad 9.0.9.1-1.fc43} date 2026-06-11T17:21:02-0300
; FORMAT={-:-/ absolute / metric / decimal}
; #@! TF.CreationDate,2026-06-11T17:21:02-03:00
; #@! TF.GenerationSoftware,Kicad,Pcbnew,9.0.9.1-1.fc43
; #@! TF.FileFunction,MixedPlating,1,2
FMAT,2
METRIC
; #@! TA.AperFunction,Plated,PTH,ViaDrill
T1C0.250
; #@! TA.AperFunction,Plated,PTH,ComponentDrill
T2C0.600
; #@! TA.AperFunction,Plated,PTH,ComponentDrill
T3C0.700
; #@! TA.AperFunction,Plated,PTH,ComponentDrill
T4C1.020
; #@! TA.AperFunction,Plated,PTH,ViaDrill
T5C1.100
; #@! TA.AperFunction,Plated,PTH,ComponentDrill
T6C1.300
; #@! TA.AperFunction,Plated,PTH,ComponentDrill
T7C3.200
; #@! TA.AperFunction,NonPlated,NPTH,ComponentDrill
T8C0.650
%
G90
G05
T1
X66.671Y-98.819
X75.968Y-104.954
T3
X67.408Y-82.872
X67.408Y-84.872
T4
X67.027Y-65.665
X67.027Y-68.205
X97.482Y-52.574
X97.482Y-55.114
X97.482Y-57.654
X97.482Y-60.194
X97.609Y-67.387
X97.609Y-69.927
T5
X67.459Y-54.433
X67.459Y-56.3
X67.459Y-58.167
X68.86Y-108.84
X70.727Y-108.84
X71.345Y-92.914
X71.345Y-94.781
X71.345Y-96.648
X72.593Y-108.84
X77.466Y-79.005
X77.466Y-80.872
X77.466Y-82.739
X95.246Y-108.84
X97.113Y-108.84
X98.98Y-108.84
T6
X68.86Y-111.837
X73.86Y-111.837
X102.435Y-100.117
X102.435Y-105.117
T7
X59.568Y-46.966
X59.568Y-113.994
X104.569Y-113.994
X104.569Y-46.966
T8
X63.328Y-98.379
X63.328Y-104.159
T2
G00X59.978Y-96.949
M15
G01X59.378Y-96.949
M16
G05
G00X59.978Y-105.589
M15
G01X59.378Y-105.589
M16
G05
G00X64.408Y-96.949
M15
G01X63.308Y-96.949
M16
G05
G00X64.408Y-105.589
M15
G01X63.308Y-105.589
M16
G05
M30
